G04 #@! TF.GenerationSoftware,KiCad,Pcbnew,5.1.5+dfsg1-2build2*
G04 #@! TF.CreationDate,2021-01-30T12:17:23-05:00*
G04 #@! TF.ProjectId,breadboard_clock,62726561-6462-46f6-9172-645f636c6f63,rev?*
G04 #@! TF.SameCoordinates,Original*
G04 #@! TF.FileFunction,Legend,Top*
G04 #@! TF.FilePolarity,Positive*
%FSLAX46Y46*%
G04 Gerber Fmt 4.6, Leading zero omitted, Abs format (unit mm)*
G04 Created by KiCad (PCBNEW 5.1.5+dfsg1-2build2) date 2021-01-30 12:17:23*
%MOMM*%
%LPD*%
G04 APERTURE LIST*
%ADD10C,0.120000*%
%ADD11C,0.150000*%
G04 APERTURE END LIST*
D10*
X138540000Y-82520000D02*
X120540000Y-82520000D01*
X138540000Y-100520000D02*
X138540000Y-82520000D01*
X120540000Y-100520000D02*
X138540000Y-100520000D01*
X120540000Y-82520000D02*
X120540000Y-100520000D01*
X106620000Y-89660000D02*
X106620000Y-90230000D01*
X109280000Y-85030000D02*
X109280000Y-85600000D01*
X109280000Y-85600000D02*
X110800000Y-85600000D01*
X106620000Y-85030000D02*
X106620000Y-88140000D01*
X109280000Y-87120000D02*
X109280000Y-90230000D01*
X106620000Y-90230000D02*
X109280000Y-90230000D01*
X106620000Y-85030000D02*
X109280000Y-85030000D01*
X99060000Y-106660000D02*
X95610000Y-106660000D01*
X99060000Y-106660000D02*
X101010000Y-106660000D01*
X99060000Y-111780000D02*
X97110000Y-111780000D01*
X99060000Y-111780000D02*
X101010000Y-111780000D01*
X87630000Y-84465000D02*
X84180000Y-84465000D01*
X87630000Y-84465000D02*
X89580000Y-84465000D01*
X87630000Y-93335000D02*
X85680000Y-93335000D01*
X87630000Y-93335000D02*
X89580000Y-93335000D01*
X74930000Y-106660000D02*
X71480000Y-106660000D01*
X74930000Y-106660000D02*
X76880000Y-106660000D01*
X74930000Y-111780000D02*
X72980000Y-111780000D01*
X74930000Y-111780000D02*
X76880000Y-111780000D01*
X57150000Y-84465000D02*
X53700000Y-84465000D01*
X57150000Y-84465000D02*
X59100000Y-84465000D01*
X57150000Y-93335000D02*
X55200000Y-93335000D01*
X57150000Y-93335000D02*
X59100000Y-93335000D01*
X45720000Y-84465000D02*
X42270000Y-84465000D01*
X45720000Y-84465000D02*
X47670000Y-84465000D01*
X45720000Y-93335000D02*
X43770000Y-93335000D01*
X45720000Y-93335000D02*
X47670000Y-93335000D01*
X67310000Y-84465000D02*
X63860000Y-84465000D01*
X67310000Y-84465000D02*
X69260000Y-84465000D01*
X67310000Y-93335000D02*
X65360000Y-93335000D01*
X67310000Y-93335000D02*
X69260000Y-93335000D01*
X77470000Y-84465000D02*
X74020000Y-84465000D01*
X77470000Y-84465000D02*
X79420000Y-84465000D01*
X77470000Y-93335000D02*
X75520000Y-93335000D01*
X77470000Y-93335000D02*
X79420000Y-93335000D01*
X50560000Y-105010000D02*
X47110000Y-105010000D01*
X50560000Y-105010000D02*
X52510000Y-105010000D01*
X50560000Y-110130000D02*
X48610000Y-110130000D01*
X50560000Y-110130000D02*
X52510000Y-110130000D01*
X134260000Y-111210000D02*
X134260000Y-110420000D01*
X127360000Y-110420000D02*
X127360000Y-111210000D01*
X129210000Y-109370000D02*
X130910000Y-109370000D01*
X127960000Y-112220000D02*
X133660000Y-112220000D01*
X130710000Y-113510000D02*
X130710000Y-112220000D01*
X129610000Y-113720000D02*
X130510000Y-113720000D01*
X129410000Y-112220000D02*
X129410000Y-113510000D01*
X130710000Y-113510000D02*
X130510000Y-113720000D01*
X129410000Y-113510000D02*
X129610000Y-113720000D01*
X132210000Y-109370000D02*
X132410000Y-109370000D01*
X119410000Y-113640000D02*
X116810000Y-113640000D01*
X114660000Y-107340000D02*
X114910000Y-107340000D01*
X114660000Y-113640000D02*
X114660000Y-107340000D01*
X114910000Y-113640000D02*
X114660000Y-113640000D01*
X116810000Y-107340000D02*
X119410000Y-107340000D01*
X121560000Y-113640000D02*
X121310000Y-113640000D01*
X121560000Y-107340000D02*
X121560000Y-113640000D01*
X121310000Y-107340000D02*
X121560000Y-107340000D01*
X90730000Y-109898922D02*
X90730000Y-110416078D01*
X92150000Y-109898922D02*
X92150000Y-110416078D01*
X99651078Y-102160000D02*
X99133922Y-102160000D01*
X99651078Y-103580000D02*
X99133922Y-103580000D01*
X138990000Y-109898922D02*
X138990000Y-110416078D01*
X140410000Y-109898922D02*
X140410000Y-110416078D01*
X78148922Y-103580000D02*
X78666078Y-103580000D01*
X78148922Y-102160000D02*
X78666078Y-102160000D01*
X68020000Y-110416078D02*
X68020000Y-109898922D01*
X66600000Y-110416078D02*
X66600000Y-109898922D01*
X62303922Y-107390000D02*
X62821078Y-107390000D01*
X62303922Y-105970000D02*
X62821078Y-105970000D01*
X55775000Y-104818922D02*
X55775000Y-105336078D01*
X57195000Y-104818922D02*
X57195000Y-105336078D01*
X140660000Y-106157500D02*
X140660000Y-103472500D01*
X138740000Y-106157500D02*
X140660000Y-106157500D01*
X138740000Y-103472500D02*
X138740000Y-106157500D01*
X99620000Y-87703922D02*
X99620000Y-88221078D01*
X101040000Y-87703922D02*
X101040000Y-88221078D01*
X114860000Y-88308922D02*
X114860000Y-88826078D01*
X116280000Y-88308922D02*
X116280000Y-88826078D01*
X108660000Y-111081078D02*
X108660000Y-110563922D01*
X107240000Y-111081078D02*
X107240000Y-110563922D01*
X83260000Y-107271078D02*
X83260000Y-106753922D01*
X81840000Y-107271078D02*
X81840000Y-106753922D01*
X80678922Y-112710000D02*
X81196078Y-112710000D01*
X80678922Y-111290000D02*
X81196078Y-111290000D01*
X43890000Y-106001078D02*
X43890000Y-105483922D01*
X42470000Y-106001078D02*
X42470000Y-105483922D01*
X56440000Y-111168922D02*
X56440000Y-111686078D01*
X57860000Y-111168922D02*
X57860000Y-111686078D01*
D11*
X134301904Y-98924761D02*
X134206666Y-98972380D01*
X134016190Y-98972380D01*
X133920952Y-98924761D01*
X133873333Y-98829523D01*
X133873333Y-98448571D01*
X133920952Y-98353333D01*
X134016190Y-98305714D01*
X134206666Y-98305714D01*
X134301904Y-98353333D01*
X134349523Y-98448571D01*
X134349523Y-98543809D01*
X133873333Y-98639047D01*
X135301904Y-98972380D02*
X134730476Y-98972380D01*
X135016190Y-98972380D02*
X135016190Y-97972380D01*
X134920952Y-98115238D01*
X134825714Y-98210476D01*
X134730476Y-98258095D01*
X135920952Y-97972380D02*
X136016190Y-97972380D01*
X136111428Y-98020000D01*
X136159047Y-98067619D01*
X136206666Y-98162857D01*
X136254285Y-98353333D01*
X136254285Y-98591428D01*
X136206666Y-98781904D01*
X136159047Y-98877142D01*
X136111428Y-98924761D01*
X136016190Y-98972380D01*
X135920952Y-98972380D01*
X135825714Y-98924761D01*
X135778095Y-98877142D01*
X135730476Y-98781904D01*
X135682857Y-98591428D01*
X135682857Y-98353333D01*
X135730476Y-98162857D01*
X135778095Y-98067619D01*
X135825714Y-98020000D01*
X135920952Y-97972380D01*
X137206666Y-98972380D02*
X136635238Y-98972380D01*
X136920952Y-98972380D02*
X136920952Y-97972380D01*
X136825714Y-98115238D01*
X136730476Y-98210476D01*
X136635238Y-98258095D01*
X106664285Y-83482380D02*
X106664285Y-84196666D01*
X106616666Y-84339523D01*
X106521428Y-84434761D01*
X106378571Y-84482380D01*
X106283333Y-84482380D01*
X107664285Y-84482380D02*
X107092857Y-84482380D01*
X107378571Y-84482380D02*
X107378571Y-83482380D01*
X107283333Y-83625238D01*
X107188095Y-83720476D01*
X107092857Y-83768095D01*
X108283333Y-83482380D02*
X108378571Y-83482380D01*
X108473809Y-83530000D01*
X108521428Y-83577619D01*
X108569047Y-83672857D01*
X108616666Y-83863333D01*
X108616666Y-84101428D01*
X108569047Y-84291904D01*
X108521428Y-84387142D01*
X108473809Y-84434761D01*
X108378571Y-84482380D01*
X108283333Y-84482380D01*
X108188095Y-84434761D01*
X108140476Y-84387142D01*
X108092857Y-84291904D01*
X108045238Y-84101428D01*
X108045238Y-83863333D01*
X108092857Y-83672857D01*
X108140476Y-83577619D01*
X108188095Y-83530000D01*
X108283333Y-83482380D01*
X109569047Y-84482380D02*
X108997619Y-84482380D01*
X109283333Y-84482380D02*
X109283333Y-83482380D01*
X109188095Y-83625238D01*
X109092857Y-83720476D01*
X108997619Y-83768095D01*
X97345714Y-105272380D02*
X97345714Y-106081904D01*
X97393333Y-106177142D01*
X97440952Y-106224761D01*
X97536190Y-106272380D01*
X97726666Y-106272380D01*
X97821904Y-106224761D01*
X97869523Y-106177142D01*
X97917142Y-106081904D01*
X97917142Y-105272380D01*
X98917142Y-106272380D02*
X98345714Y-106272380D01*
X98631428Y-106272380D02*
X98631428Y-105272380D01*
X98536190Y-105415238D01*
X98440952Y-105510476D01*
X98345714Y-105558095D01*
X99536190Y-105272380D02*
X99631428Y-105272380D01*
X99726666Y-105320000D01*
X99774285Y-105367619D01*
X99821904Y-105462857D01*
X99869523Y-105653333D01*
X99869523Y-105891428D01*
X99821904Y-106081904D01*
X99774285Y-106177142D01*
X99726666Y-106224761D01*
X99631428Y-106272380D01*
X99536190Y-106272380D01*
X99440952Y-106224761D01*
X99393333Y-106177142D01*
X99345714Y-106081904D01*
X99298095Y-105891428D01*
X99298095Y-105653333D01*
X99345714Y-105462857D01*
X99393333Y-105367619D01*
X99440952Y-105320000D01*
X99536190Y-105272380D01*
X100440952Y-105700952D02*
X100345714Y-105653333D01*
X100298095Y-105605714D01*
X100250476Y-105510476D01*
X100250476Y-105462857D01*
X100298095Y-105367619D01*
X100345714Y-105320000D01*
X100440952Y-105272380D01*
X100631428Y-105272380D01*
X100726666Y-105320000D01*
X100774285Y-105367619D01*
X100821904Y-105462857D01*
X100821904Y-105510476D01*
X100774285Y-105605714D01*
X100726666Y-105653333D01*
X100631428Y-105700952D01*
X100440952Y-105700952D01*
X100345714Y-105748571D01*
X100298095Y-105796190D01*
X100250476Y-105891428D01*
X100250476Y-106081904D01*
X100298095Y-106177142D01*
X100345714Y-106224761D01*
X100440952Y-106272380D01*
X100631428Y-106272380D01*
X100726666Y-106224761D01*
X100774285Y-106177142D01*
X100821904Y-106081904D01*
X100821904Y-105891428D01*
X100774285Y-105796190D01*
X100726666Y-105748571D01*
X100631428Y-105700952D01*
X85915714Y-83072380D02*
X85915714Y-83881904D01*
X85963333Y-83977142D01*
X86010952Y-84024761D01*
X86106190Y-84072380D01*
X86296666Y-84072380D01*
X86391904Y-84024761D01*
X86439523Y-83977142D01*
X86487142Y-83881904D01*
X86487142Y-83072380D01*
X87487142Y-84072380D02*
X86915714Y-84072380D01*
X87201428Y-84072380D02*
X87201428Y-83072380D01*
X87106190Y-83215238D01*
X87010952Y-83310476D01*
X86915714Y-83358095D01*
X88106190Y-83072380D02*
X88201428Y-83072380D01*
X88296666Y-83120000D01*
X88344285Y-83167619D01*
X88391904Y-83262857D01*
X88439523Y-83453333D01*
X88439523Y-83691428D01*
X88391904Y-83881904D01*
X88344285Y-83977142D01*
X88296666Y-84024761D01*
X88201428Y-84072380D01*
X88106190Y-84072380D01*
X88010952Y-84024761D01*
X87963333Y-83977142D01*
X87915714Y-83881904D01*
X87868095Y-83691428D01*
X87868095Y-83453333D01*
X87915714Y-83262857D01*
X87963333Y-83167619D01*
X88010952Y-83120000D01*
X88106190Y-83072380D01*
X88772857Y-83072380D02*
X89439523Y-83072380D01*
X89010952Y-84072380D01*
X73215714Y-105272380D02*
X73215714Y-106081904D01*
X73263333Y-106177142D01*
X73310952Y-106224761D01*
X73406190Y-106272380D01*
X73596666Y-106272380D01*
X73691904Y-106224761D01*
X73739523Y-106177142D01*
X73787142Y-106081904D01*
X73787142Y-105272380D01*
X74787142Y-106272380D02*
X74215714Y-106272380D01*
X74501428Y-106272380D02*
X74501428Y-105272380D01*
X74406190Y-105415238D01*
X74310952Y-105510476D01*
X74215714Y-105558095D01*
X75406190Y-105272380D02*
X75501428Y-105272380D01*
X75596666Y-105320000D01*
X75644285Y-105367619D01*
X75691904Y-105462857D01*
X75739523Y-105653333D01*
X75739523Y-105891428D01*
X75691904Y-106081904D01*
X75644285Y-106177142D01*
X75596666Y-106224761D01*
X75501428Y-106272380D01*
X75406190Y-106272380D01*
X75310952Y-106224761D01*
X75263333Y-106177142D01*
X75215714Y-106081904D01*
X75168095Y-105891428D01*
X75168095Y-105653333D01*
X75215714Y-105462857D01*
X75263333Y-105367619D01*
X75310952Y-105320000D01*
X75406190Y-105272380D01*
X76596666Y-105272380D02*
X76406190Y-105272380D01*
X76310952Y-105320000D01*
X76263333Y-105367619D01*
X76168095Y-105510476D01*
X76120476Y-105700952D01*
X76120476Y-106081904D01*
X76168095Y-106177142D01*
X76215714Y-106224761D01*
X76310952Y-106272380D01*
X76501428Y-106272380D01*
X76596666Y-106224761D01*
X76644285Y-106177142D01*
X76691904Y-106081904D01*
X76691904Y-105843809D01*
X76644285Y-105748571D01*
X76596666Y-105700952D01*
X76501428Y-105653333D01*
X76310952Y-105653333D01*
X76215714Y-105700952D01*
X76168095Y-105748571D01*
X76120476Y-105843809D01*
X55435714Y-83072380D02*
X55435714Y-83881904D01*
X55483333Y-83977142D01*
X55530952Y-84024761D01*
X55626190Y-84072380D01*
X55816666Y-84072380D01*
X55911904Y-84024761D01*
X55959523Y-83977142D01*
X56007142Y-83881904D01*
X56007142Y-83072380D01*
X57007142Y-84072380D02*
X56435714Y-84072380D01*
X56721428Y-84072380D02*
X56721428Y-83072380D01*
X56626190Y-83215238D01*
X56530952Y-83310476D01*
X56435714Y-83358095D01*
X57626190Y-83072380D02*
X57721428Y-83072380D01*
X57816666Y-83120000D01*
X57864285Y-83167619D01*
X57911904Y-83262857D01*
X57959523Y-83453333D01*
X57959523Y-83691428D01*
X57911904Y-83881904D01*
X57864285Y-83977142D01*
X57816666Y-84024761D01*
X57721428Y-84072380D01*
X57626190Y-84072380D01*
X57530952Y-84024761D01*
X57483333Y-83977142D01*
X57435714Y-83881904D01*
X57388095Y-83691428D01*
X57388095Y-83453333D01*
X57435714Y-83262857D01*
X57483333Y-83167619D01*
X57530952Y-83120000D01*
X57626190Y-83072380D01*
X58864285Y-83072380D02*
X58388095Y-83072380D01*
X58340476Y-83548571D01*
X58388095Y-83500952D01*
X58483333Y-83453333D01*
X58721428Y-83453333D01*
X58816666Y-83500952D01*
X58864285Y-83548571D01*
X58911904Y-83643809D01*
X58911904Y-83881904D01*
X58864285Y-83977142D01*
X58816666Y-84024761D01*
X58721428Y-84072380D01*
X58483333Y-84072380D01*
X58388095Y-84024761D01*
X58340476Y-83977142D01*
X44005714Y-83072380D02*
X44005714Y-83881904D01*
X44053333Y-83977142D01*
X44100952Y-84024761D01*
X44196190Y-84072380D01*
X44386666Y-84072380D01*
X44481904Y-84024761D01*
X44529523Y-83977142D01*
X44577142Y-83881904D01*
X44577142Y-83072380D01*
X45577142Y-84072380D02*
X45005714Y-84072380D01*
X45291428Y-84072380D02*
X45291428Y-83072380D01*
X45196190Y-83215238D01*
X45100952Y-83310476D01*
X45005714Y-83358095D01*
X46196190Y-83072380D02*
X46291428Y-83072380D01*
X46386666Y-83120000D01*
X46434285Y-83167619D01*
X46481904Y-83262857D01*
X46529523Y-83453333D01*
X46529523Y-83691428D01*
X46481904Y-83881904D01*
X46434285Y-83977142D01*
X46386666Y-84024761D01*
X46291428Y-84072380D01*
X46196190Y-84072380D01*
X46100952Y-84024761D01*
X46053333Y-83977142D01*
X46005714Y-83881904D01*
X45958095Y-83691428D01*
X45958095Y-83453333D01*
X46005714Y-83262857D01*
X46053333Y-83167619D01*
X46100952Y-83120000D01*
X46196190Y-83072380D01*
X47386666Y-83405714D02*
X47386666Y-84072380D01*
X47148571Y-83024761D02*
X46910476Y-83739047D01*
X47529523Y-83739047D01*
X65595714Y-83072380D02*
X65595714Y-83881904D01*
X65643333Y-83977142D01*
X65690952Y-84024761D01*
X65786190Y-84072380D01*
X65976666Y-84072380D01*
X66071904Y-84024761D01*
X66119523Y-83977142D01*
X66167142Y-83881904D01*
X66167142Y-83072380D01*
X67167142Y-84072380D02*
X66595714Y-84072380D01*
X66881428Y-84072380D02*
X66881428Y-83072380D01*
X66786190Y-83215238D01*
X66690952Y-83310476D01*
X66595714Y-83358095D01*
X67786190Y-83072380D02*
X67881428Y-83072380D01*
X67976666Y-83120000D01*
X68024285Y-83167619D01*
X68071904Y-83262857D01*
X68119523Y-83453333D01*
X68119523Y-83691428D01*
X68071904Y-83881904D01*
X68024285Y-83977142D01*
X67976666Y-84024761D01*
X67881428Y-84072380D01*
X67786190Y-84072380D01*
X67690952Y-84024761D01*
X67643333Y-83977142D01*
X67595714Y-83881904D01*
X67548095Y-83691428D01*
X67548095Y-83453333D01*
X67595714Y-83262857D01*
X67643333Y-83167619D01*
X67690952Y-83120000D01*
X67786190Y-83072380D01*
X68452857Y-83072380D02*
X69071904Y-83072380D01*
X68738571Y-83453333D01*
X68881428Y-83453333D01*
X68976666Y-83500952D01*
X69024285Y-83548571D01*
X69071904Y-83643809D01*
X69071904Y-83881904D01*
X69024285Y-83977142D01*
X68976666Y-84024761D01*
X68881428Y-84072380D01*
X68595714Y-84072380D01*
X68500476Y-84024761D01*
X68452857Y-83977142D01*
X75755714Y-83072380D02*
X75755714Y-83881904D01*
X75803333Y-83977142D01*
X75850952Y-84024761D01*
X75946190Y-84072380D01*
X76136666Y-84072380D01*
X76231904Y-84024761D01*
X76279523Y-83977142D01*
X76327142Y-83881904D01*
X76327142Y-83072380D01*
X77327142Y-84072380D02*
X76755714Y-84072380D01*
X77041428Y-84072380D02*
X77041428Y-83072380D01*
X76946190Y-83215238D01*
X76850952Y-83310476D01*
X76755714Y-83358095D01*
X77946190Y-83072380D02*
X78041428Y-83072380D01*
X78136666Y-83120000D01*
X78184285Y-83167619D01*
X78231904Y-83262857D01*
X78279523Y-83453333D01*
X78279523Y-83691428D01*
X78231904Y-83881904D01*
X78184285Y-83977142D01*
X78136666Y-84024761D01*
X78041428Y-84072380D01*
X77946190Y-84072380D01*
X77850952Y-84024761D01*
X77803333Y-83977142D01*
X77755714Y-83881904D01*
X77708095Y-83691428D01*
X77708095Y-83453333D01*
X77755714Y-83262857D01*
X77803333Y-83167619D01*
X77850952Y-83120000D01*
X77946190Y-83072380D01*
X78660476Y-83167619D02*
X78708095Y-83120000D01*
X78803333Y-83072380D01*
X79041428Y-83072380D01*
X79136666Y-83120000D01*
X79184285Y-83167619D01*
X79231904Y-83262857D01*
X79231904Y-83358095D01*
X79184285Y-83500952D01*
X78612857Y-84072380D01*
X79231904Y-84072380D01*
X48845714Y-103622380D02*
X48845714Y-104431904D01*
X48893333Y-104527142D01*
X48940952Y-104574761D01*
X49036190Y-104622380D01*
X49226666Y-104622380D01*
X49321904Y-104574761D01*
X49369523Y-104527142D01*
X49417142Y-104431904D01*
X49417142Y-103622380D01*
X50417142Y-104622380D02*
X49845714Y-104622380D01*
X50131428Y-104622380D02*
X50131428Y-103622380D01*
X50036190Y-103765238D01*
X49940952Y-103860476D01*
X49845714Y-103908095D01*
X51036190Y-103622380D02*
X51131428Y-103622380D01*
X51226666Y-103670000D01*
X51274285Y-103717619D01*
X51321904Y-103812857D01*
X51369523Y-104003333D01*
X51369523Y-104241428D01*
X51321904Y-104431904D01*
X51274285Y-104527142D01*
X51226666Y-104574761D01*
X51131428Y-104622380D01*
X51036190Y-104622380D01*
X50940952Y-104574761D01*
X50893333Y-104527142D01*
X50845714Y-104431904D01*
X50798095Y-104241428D01*
X50798095Y-104003333D01*
X50845714Y-103812857D01*
X50893333Y-103717619D01*
X50940952Y-103670000D01*
X51036190Y-103622380D01*
X52321904Y-104622380D02*
X51750476Y-104622380D01*
X52036190Y-104622380D02*
X52036190Y-103622380D01*
X51940952Y-103765238D01*
X51845714Y-103860476D01*
X51750476Y-103908095D01*
X128524285Y-107694761D02*
X128667142Y-107742380D01*
X128905238Y-107742380D01*
X129000476Y-107694761D01*
X129048095Y-107647142D01*
X129095714Y-107551904D01*
X129095714Y-107456666D01*
X129048095Y-107361428D01*
X129000476Y-107313809D01*
X128905238Y-107266190D01*
X128714761Y-107218571D01*
X128619523Y-107170952D01*
X128571904Y-107123333D01*
X128524285Y-107028095D01*
X128524285Y-106932857D01*
X128571904Y-106837619D01*
X128619523Y-106790000D01*
X128714761Y-106742380D01*
X128952857Y-106742380D01*
X129095714Y-106790000D01*
X129429047Y-106742380D02*
X129667142Y-107742380D01*
X129857619Y-107028095D01*
X130048095Y-107742380D01*
X130286190Y-106742380D01*
X131190952Y-107742380D02*
X130619523Y-107742380D01*
X130905238Y-107742380D02*
X130905238Y-106742380D01*
X130810000Y-106885238D01*
X130714761Y-106980476D01*
X130619523Y-107028095D01*
X131810000Y-106742380D02*
X131905238Y-106742380D01*
X132000476Y-106790000D01*
X132048095Y-106837619D01*
X132095714Y-106932857D01*
X132143333Y-107123333D01*
X132143333Y-107361428D01*
X132095714Y-107551904D01*
X132048095Y-107647142D01*
X132000476Y-107694761D01*
X131905238Y-107742380D01*
X131810000Y-107742380D01*
X131714761Y-107694761D01*
X131667142Y-107647142D01*
X131619523Y-107551904D01*
X131571904Y-107361428D01*
X131571904Y-107123333D01*
X131619523Y-106932857D01*
X131667142Y-106837619D01*
X131714761Y-106790000D01*
X131810000Y-106742380D01*
X132524285Y-106837619D02*
X132571904Y-106790000D01*
X132667142Y-106742380D01*
X132905238Y-106742380D01*
X133000476Y-106790000D01*
X133048095Y-106837619D01*
X133095714Y-106932857D01*
X133095714Y-107028095D01*
X133048095Y-107170952D01*
X132476666Y-107742380D01*
X133095714Y-107742380D01*
X123014761Y-112775714D02*
X123062380Y-112632857D01*
X123062380Y-112394761D01*
X123014761Y-112299523D01*
X122967142Y-112251904D01*
X122871904Y-112204285D01*
X122776666Y-112204285D01*
X122681428Y-112251904D01*
X122633809Y-112299523D01*
X122586190Y-112394761D01*
X122538571Y-112585238D01*
X122490952Y-112680476D01*
X122443333Y-112728095D01*
X122348095Y-112775714D01*
X122252857Y-112775714D01*
X122157619Y-112728095D01*
X122110000Y-112680476D01*
X122062380Y-112585238D01*
X122062380Y-112347142D01*
X122110000Y-112204285D01*
X122062380Y-111870952D02*
X123062380Y-111632857D01*
X122348095Y-111442380D01*
X123062380Y-111251904D01*
X122062380Y-111013809D01*
X123062380Y-110109047D02*
X123062380Y-110680476D01*
X123062380Y-110394761D02*
X122062380Y-110394761D01*
X122205238Y-110490000D01*
X122300476Y-110585238D01*
X122348095Y-110680476D01*
X122062380Y-109490000D02*
X122062380Y-109394761D01*
X122110000Y-109299523D01*
X122157619Y-109251904D01*
X122252857Y-109204285D01*
X122443333Y-109156666D01*
X122681428Y-109156666D01*
X122871904Y-109204285D01*
X122967142Y-109251904D01*
X123014761Y-109299523D01*
X123062380Y-109394761D01*
X123062380Y-109490000D01*
X123014761Y-109585238D01*
X122967142Y-109632857D01*
X122871904Y-109680476D01*
X122681428Y-109728095D01*
X122443333Y-109728095D01*
X122252857Y-109680476D01*
X122157619Y-109632857D01*
X122110000Y-109585238D01*
X122062380Y-109490000D01*
X123062380Y-108204285D02*
X123062380Y-108775714D01*
X123062380Y-108490000D02*
X122062380Y-108490000D01*
X122205238Y-108585238D01*
X122300476Y-108680476D01*
X122348095Y-108775714D01*
X93542380Y-111276547D02*
X93066190Y-111609880D01*
X93542380Y-111847976D02*
X92542380Y-111847976D01*
X92542380Y-111467023D01*
X92590000Y-111371785D01*
X92637619Y-111324166D01*
X92732857Y-111276547D01*
X92875714Y-111276547D01*
X92970952Y-111324166D01*
X93018571Y-111371785D01*
X93066190Y-111467023D01*
X93066190Y-111847976D01*
X93542380Y-110324166D02*
X93542380Y-110895595D01*
X93542380Y-110609880D02*
X92542380Y-110609880D01*
X92685238Y-110705119D01*
X92780476Y-110800357D01*
X92828095Y-110895595D01*
X92542380Y-109705119D02*
X92542380Y-109609880D01*
X92590000Y-109514642D01*
X92637619Y-109467023D01*
X92732857Y-109419404D01*
X92923333Y-109371785D01*
X93161428Y-109371785D01*
X93351904Y-109419404D01*
X93447142Y-109467023D01*
X93494761Y-109514642D01*
X93542380Y-109609880D01*
X93542380Y-109705119D01*
X93494761Y-109800357D01*
X93447142Y-109847976D01*
X93351904Y-109895595D01*
X93161428Y-109943214D01*
X92923333Y-109943214D01*
X92732857Y-109895595D01*
X92637619Y-109847976D01*
X92590000Y-109800357D01*
X92542380Y-109705119D01*
X92542380Y-109038452D02*
X92542380Y-108371785D01*
X93542380Y-108800357D01*
X98273452Y-104972380D02*
X97940119Y-104496190D01*
X97702023Y-104972380D02*
X97702023Y-103972380D01*
X98082976Y-103972380D01*
X98178214Y-104020000D01*
X98225833Y-104067619D01*
X98273452Y-104162857D01*
X98273452Y-104305714D01*
X98225833Y-104400952D01*
X98178214Y-104448571D01*
X98082976Y-104496190D01*
X97702023Y-104496190D01*
X99225833Y-104972380D02*
X98654404Y-104972380D01*
X98940119Y-104972380D02*
X98940119Y-103972380D01*
X98844880Y-104115238D01*
X98749642Y-104210476D01*
X98654404Y-104258095D01*
X99844880Y-103972380D02*
X99940119Y-103972380D01*
X100035357Y-104020000D01*
X100082976Y-104067619D01*
X100130595Y-104162857D01*
X100178214Y-104353333D01*
X100178214Y-104591428D01*
X100130595Y-104781904D01*
X100082976Y-104877142D01*
X100035357Y-104924761D01*
X99940119Y-104972380D01*
X99844880Y-104972380D01*
X99749642Y-104924761D01*
X99702023Y-104877142D01*
X99654404Y-104781904D01*
X99606785Y-104591428D01*
X99606785Y-104353333D01*
X99654404Y-104162857D01*
X99702023Y-104067619D01*
X99749642Y-104020000D01*
X99844880Y-103972380D01*
X101035357Y-103972380D02*
X100844880Y-103972380D01*
X100749642Y-104020000D01*
X100702023Y-104067619D01*
X100606785Y-104210476D01*
X100559166Y-104400952D01*
X100559166Y-104781904D01*
X100606785Y-104877142D01*
X100654404Y-104924761D01*
X100749642Y-104972380D01*
X100940119Y-104972380D01*
X101035357Y-104924761D01*
X101082976Y-104877142D01*
X101130595Y-104781904D01*
X101130595Y-104543809D01*
X101082976Y-104448571D01*
X101035357Y-104400952D01*
X100940119Y-104353333D01*
X100749642Y-104353333D01*
X100654404Y-104400952D01*
X100606785Y-104448571D01*
X100559166Y-104543809D01*
X141802380Y-111276547D02*
X141326190Y-111609880D01*
X141802380Y-111847976D02*
X140802380Y-111847976D01*
X140802380Y-111467023D01*
X140850000Y-111371785D01*
X140897619Y-111324166D01*
X140992857Y-111276547D01*
X141135714Y-111276547D01*
X141230952Y-111324166D01*
X141278571Y-111371785D01*
X141326190Y-111467023D01*
X141326190Y-111847976D01*
X141802380Y-110324166D02*
X141802380Y-110895595D01*
X141802380Y-110609880D02*
X140802380Y-110609880D01*
X140945238Y-110705119D01*
X141040476Y-110800357D01*
X141088095Y-110895595D01*
X140802380Y-109705119D02*
X140802380Y-109609880D01*
X140850000Y-109514642D01*
X140897619Y-109467023D01*
X140992857Y-109419404D01*
X141183333Y-109371785D01*
X141421428Y-109371785D01*
X141611904Y-109419404D01*
X141707142Y-109467023D01*
X141754761Y-109514642D01*
X141802380Y-109609880D01*
X141802380Y-109705119D01*
X141754761Y-109800357D01*
X141707142Y-109847976D01*
X141611904Y-109895595D01*
X141421428Y-109943214D01*
X141183333Y-109943214D01*
X140992857Y-109895595D01*
X140897619Y-109847976D01*
X140850000Y-109800357D01*
X140802380Y-109705119D01*
X140802380Y-108467023D02*
X140802380Y-108943214D01*
X141278571Y-108990833D01*
X141230952Y-108943214D01*
X141183333Y-108847976D01*
X141183333Y-108609880D01*
X141230952Y-108514642D01*
X141278571Y-108467023D01*
X141373809Y-108419404D01*
X141611904Y-108419404D01*
X141707142Y-108467023D01*
X141754761Y-108514642D01*
X141802380Y-108609880D01*
X141802380Y-108847976D01*
X141754761Y-108943214D01*
X141707142Y-108990833D01*
X77288452Y-101672380D02*
X76955119Y-101196190D01*
X76717023Y-101672380D02*
X76717023Y-100672380D01*
X77097976Y-100672380D01*
X77193214Y-100720000D01*
X77240833Y-100767619D01*
X77288452Y-100862857D01*
X77288452Y-101005714D01*
X77240833Y-101100952D01*
X77193214Y-101148571D01*
X77097976Y-101196190D01*
X76717023Y-101196190D01*
X78240833Y-101672380D02*
X77669404Y-101672380D01*
X77955119Y-101672380D02*
X77955119Y-100672380D01*
X77859880Y-100815238D01*
X77764642Y-100910476D01*
X77669404Y-100958095D01*
X78859880Y-100672380D02*
X78955119Y-100672380D01*
X79050357Y-100720000D01*
X79097976Y-100767619D01*
X79145595Y-100862857D01*
X79193214Y-101053333D01*
X79193214Y-101291428D01*
X79145595Y-101481904D01*
X79097976Y-101577142D01*
X79050357Y-101624761D01*
X78955119Y-101672380D01*
X78859880Y-101672380D01*
X78764642Y-101624761D01*
X78717023Y-101577142D01*
X78669404Y-101481904D01*
X78621785Y-101291428D01*
X78621785Y-101053333D01*
X78669404Y-100862857D01*
X78717023Y-100767619D01*
X78764642Y-100720000D01*
X78859880Y-100672380D01*
X80050357Y-101005714D02*
X80050357Y-101672380D01*
X79812261Y-100624761D02*
X79574166Y-101339047D01*
X80193214Y-101339047D01*
X66112380Y-111276547D02*
X65636190Y-111609880D01*
X66112380Y-111847976D02*
X65112380Y-111847976D01*
X65112380Y-111467023D01*
X65160000Y-111371785D01*
X65207619Y-111324166D01*
X65302857Y-111276547D01*
X65445714Y-111276547D01*
X65540952Y-111324166D01*
X65588571Y-111371785D01*
X65636190Y-111467023D01*
X65636190Y-111847976D01*
X66112380Y-110324166D02*
X66112380Y-110895595D01*
X66112380Y-110609880D02*
X65112380Y-110609880D01*
X65255238Y-110705119D01*
X65350476Y-110800357D01*
X65398095Y-110895595D01*
X65112380Y-109705119D02*
X65112380Y-109609880D01*
X65160000Y-109514642D01*
X65207619Y-109467023D01*
X65302857Y-109419404D01*
X65493333Y-109371785D01*
X65731428Y-109371785D01*
X65921904Y-109419404D01*
X66017142Y-109467023D01*
X66064761Y-109514642D01*
X66112380Y-109609880D01*
X66112380Y-109705119D01*
X66064761Y-109800357D01*
X66017142Y-109847976D01*
X65921904Y-109895595D01*
X65731428Y-109943214D01*
X65493333Y-109943214D01*
X65302857Y-109895595D01*
X65207619Y-109847976D01*
X65160000Y-109800357D01*
X65112380Y-109705119D01*
X65112380Y-109038452D02*
X65112380Y-108419404D01*
X65493333Y-108752738D01*
X65493333Y-108609880D01*
X65540952Y-108514642D01*
X65588571Y-108467023D01*
X65683809Y-108419404D01*
X65921904Y-108419404D01*
X66017142Y-108467023D01*
X66064761Y-108514642D01*
X66112380Y-108609880D01*
X66112380Y-108895595D01*
X66064761Y-108990833D01*
X66017142Y-109038452D01*
X61443452Y-105482380D02*
X61110119Y-105006190D01*
X60872023Y-105482380D02*
X60872023Y-104482380D01*
X61252976Y-104482380D01*
X61348214Y-104530000D01*
X61395833Y-104577619D01*
X61443452Y-104672857D01*
X61443452Y-104815714D01*
X61395833Y-104910952D01*
X61348214Y-104958571D01*
X61252976Y-105006190D01*
X60872023Y-105006190D01*
X62395833Y-105482380D02*
X61824404Y-105482380D01*
X62110119Y-105482380D02*
X62110119Y-104482380D01*
X62014880Y-104625238D01*
X61919642Y-104720476D01*
X61824404Y-104768095D01*
X63014880Y-104482380D02*
X63110119Y-104482380D01*
X63205357Y-104530000D01*
X63252976Y-104577619D01*
X63300595Y-104672857D01*
X63348214Y-104863333D01*
X63348214Y-105101428D01*
X63300595Y-105291904D01*
X63252976Y-105387142D01*
X63205357Y-105434761D01*
X63110119Y-105482380D01*
X63014880Y-105482380D01*
X62919642Y-105434761D01*
X62872023Y-105387142D01*
X62824404Y-105291904D01*
X62776785Y-105101428D01*
X62776785Y-104863333D01*
X62824404Y-104672857D01*
X62872023Y-104577619D01*
X62919642Y-104530000D01*
X63014880Y-104482380D01*
X63729166Y-104577619D02*
X63776785Y-104530000D01*
X63872023Y-104482380D01*
X64110119Y-104482380D01*
X64205357Y-104530000D01*
X64252976Y-104577619D01*
X64300595Y-104672857D01*
X64300595Y-104768095D01*
X64252976Y-104910952D01*
X63681547Y-105482380D01*
X64300595Y-105482380D01*
X58587380Y-106196547D02*
X58111190Y-106529880D01*
X58587380Y-106767976D02*
X57587380Y-106767976D01*
X57587380Y-106387023D01*
X57635000Y-106291785D01*
X57682619Y-106244166D01*
X57777857Y-106196547D01*
X57920714Y-106196547D01*
X58015952Y-106244166D01*
X58063571Y-106291785D01*
X58111190Y-106387023D01*
X58111190Y-106767976D01*
X58587380Y-105244166D02*
X58587380Y-105815595D01*
X58587380Y-105529880D02*
X57587380Y-105529880D01*
X57730238Y-105625119D01*
X57825476Y-105720357D01*
X57873095Y-105815595D01*
X57587380Y-104625119D02*
X57587380Y-104529880D01*
X57635000Y-104434642D01*
X57682619Y-104387023D01*
X57777857Y-104339404D01*
X57968333Y-104291785D01*
X58206428Y-104291785D01*
X58396904Y-104339404D01*
X58492142Y-104387023D01*
X58539761Y-104434642D01*
X58587380Y-104529880D01*
X58587380Y-104625119D01*
X58539761Y-104720357D01*
X58492142Y-104767976D01*
X58396904Y-104815595D01*
X58206428Y-104863214D01*
X57968333Y-104863214D01*
X57777857Y-104815595D01*
X57682619Y-104767976D01*
X57635000Y-104720357D01*
X57587380Y-104625119D01*
X58587380Y-103339404D02*
X58587380Y-103910833D01*
X58587380Y-103625119D02*
X57587380Y-103625119D01*
X57730238Y-103720357D01*
X57825476Y-103815595D01*
X57873095Y-103910833D01*
X138502380Y-106162976D02*
X137502380Y-106162976D01*
X137502380Y-105924880D01*
X137550000Y-105782023D01*
X137645238Y-105686785D01*
X137740476Y-105639166D01*
X137930952Y-105591547D01*
X138073809Y-105591547D01*
X138264285Y-105639166D01*
X138359523Y-105686785D01*
X138454761Y-105782023D01*
X138502380Y-105924880D01*
X138502380Y-106162976D01*
X138502380Y-104639166D02*
X138502380Y-105210595D01*
X138502380Y-104924880D02*
X137502380Y-104924880D01*
X137645238Y-105020119D01*
X137740476Y-105115357D01*
X137788095Y-105210595D01*
X137502380Y-104020119D02*
X137502380Y-103924880D01*
X137550000Y-103829642D01*
X137597619Y-103782023D01*
X137692857Y-103734404D01*
X137883333Y-103686785D01*
X138121428Y-103686785D01*
X138311904Y-103734404D01*
X138407142Y-103782023D01*
X138454761Y-103829642D01*
X138502380Y-103924880D01*
X138502380Y-104020119D01*
X138454761Y-104115357D01*
X138407142Y-104162976D01*
X138311904Y-104210595D01*
X138121428Y-104258214D01*
X137883333Y-104258214D01*
X137692857Y-104210595D01*
X137597619Y-104162976D01*
X137550000Y-104115357D01*
X137502380Y-104020119D01*
X138502380Y-102734404D02*
X138502380Y-103305833D01*
X138502380Y-103020119D02*
X137502380Y-103020119D01*
X137645238Y-103115357D01*
X137740476Y-103210595D01*
X137788095Y-103305833D01*
X102337142Y-89081547D02*
X102384761Y-89129166D01*
X102432380Y-89272023D01*
X102432380Y-89367261D01*
X102384761Y-89510119D01*
X102289523Y-89605357D01*
X102194285Y-89652976D01*
X102003809Y-89700595D01*
X101860952Y-89700595D01*
X101670476Y-89652976D01*
X101575238Y-89605357D01*
X101480000Y-89510119D01*
X101432380Y-89367261D01*
X101432380Y-89272023D01*
X101480000Y-89129166D01*
X101527619Y-89081547D01*
X102432380Y-88129166D02*
X102432380Y-88700595D01*
X102432380Y-88414880D02*
X101432380Y-88414880D01*
X101575238Y-88510119D01*
X101670476Y-88605357D01*
X101718095Y-88700595D01*
X101432380Y-87510119D02*
X101432380Y-87414880D01*
X101480000Y-87319642D01*
X101527619Y-87272023D01*
X101622857Y-87224404D01*
X101813333Y-87176785D01*
X102051428Y-87176785D01*
X102241904Y-87224404D01*
X102337142Y-87272023D01*
X102384761Y-87319642D01*
X102432380Y-87414880D01*
X102432380Y-87510119D01*
X102384761Y-87605357D01*
X102337142Y-87652976D01*
X102241904Y-87700595D01*
X102051428Y-87748214D01*
X101813333Y-87748214D01*
X101622857Y-87700595D01*
X101527619Y-87652976D01*
X101480000Y-87605357D01*
X101432380Y-87510119D01*
X101432380Y-86843452D02*
X101432380Y-86176785D01*
X102432380Y-86605357D01*
X117577142Y-89686547D02*
X117624761Y-89734166D01*
X117672380Y-89877023D01*
X117672380Y-89972261D01*
X117624761Y-90115119D01*
X117529523Y-90210357D01*
X117434285Y-90257976D01*
X117243809Y-90305595D01*
X117100952Y-90305595D01*
X116910476Y-90257976D01*
X116815238Y-90210357D01*
X116720000Y-90115119D01*
X116672380Y-89972261D01*
X116672380Y-89877023D01*
X116720000Y-89734166D01*
X116767619Y-89686547D01*
X117672380Y-88734166D02*
X117672380Y-89305595D01*
X117672380Y-89019880D02*
X116672380Y-89019880D01*
X116815238Y-89115119D01*
X116910476Y-89210357D01*
X116958095Y-89305595D01*
X116672380Y-88115119D02*
X116672380Y-88019880D01*
X116720000Y-87924642D01*
X116767619Y-87877023D01*
X116862857Y-87829404D01*
X117053333Y-87781785D01*
X117291428Y-87781785D01*
X117481904Y-87829404D01*
X117577142Y-87877023D01*
X117624761Y-87924642D01*
X117672380Y-88019880D01*
X117672380Y-88115119D01*
X117624761Y-88210357D01*
X117577142Y-88257976D01*
X117481904Y-88305595D01*
X117291428Y-88353214D01*
X117053333Y-88353214D01*
X116862857Y-88305595D01*
X116767619Y-88257976D01*
X116720000Y-88210357D01*
X116672380Y-88115119D01*
X116672380Y-86924642D02*
X116672380Y-87115119D01*
X116720000Y-87210357D01*
X116767619Y-87257976D01*
X116910476Y-87353214D01*
X117100952Y-87400833D01*
X117481904Y-87400833D01*
X117577142Y-87353214D01*
X117624761Y-87305595D01*
X117672380Y-87210357D01*
X117672380Y-87019880D01*
X117624761Y-86924642D01*
X117577142Y-86877023D01*
X117481904Y-86829404D01*
X117243809Y-86829404D01*
X117148571Y-86877023D01*
X117100952Y-86924642D01*
X117053333Y-87019880D01*
X117053333Y-87210357D01*
X117100952Y-87305595D01*
X117148571Y-87353214D01*
X117243809Y-87400833D01*
X106657142Y-111941547D02*
X106704761Y-111989166D01*
X106752380Y-112132023D01*
X106752380Y-112227261D01*
X106704761Y-112370119D01*
X106609523Y-112465357D01*
X106514285Y-112512976D01*
X106323809Y-112560595D01*
X106180952Y-112560595D01*
X105990476Y-112512976D01*
X105895238Y-112465357D01*
X105800000Y-112370119D01*
X105752380Y-112227261D01*
X105752380Y-112132023D01*
X105800000Y-111989166D01*
X105847619Y-111941547D01*
X106752380Y-110989166D02*
X106752380Y-111560595D01*
X106752380Y-111274880D02*
X105752380Y-111274880D01*
X105895238Y-111370119D01*
X105990476Y-111465357D01*
X106038095Y-111560595D01*
X105752380Y-110370119D02*
X105752380Y-110274880D01*
X105800000Y-110179642D01*
X105847619Y-110132023D01*
X105942857Y-110084404D01*
X106133333Y-110036785D01*
X106371428Y-110036785D01*
X106561904Y-110084404D01*
X106657142Y-110132023D01*
X106704761Y-110179642D01*
X106752380Y-110274880D01*
X106752380Y-110370119D01*
X106704761Y-110465357D01*
X106657142Y-110512976D01*
X106561904Y-110560595D01*
X106371428Y-110608214D01*
X106133333Y-110608214D01*
X105942857Y-110560595D01*
X105847619Y-110512976D01*
X105800000Y-110465357D01*
X105752380Y-110370119D01*
X105752380Y-109132023D02*
X105752380Y-109608214D01*
X106228571Y-109655833D01*
X106180952Y-109608214D01*
X106133333Y-109512976D01*
X106133333Y-109274880D01*
X106180952Y-109179642D01*
X106228571Y-109132023D01*
X106323809Y-109084404D01*
X106561904Y-109084404D01*
X106657142Y-109132023D01*
X106704761Y-109179642D01*
X106752380Y-109274880D01*
X106752380Y-109512976D01*
X106704761Y-109608214D01*
X106657142Y-109655833D01*
X81257142Y-108131547D02*
X81304761Y-108179166D01*
X81352380Y-108322023D01*
X81352380Y-108417261D01*
X81304761Y-108560119D01*
X81209523Y-108655357D01*
X81114285Y-108702976D01*
X80923809Y-108750595D01*
X80780952Y-108750595D01*
X80590476Y-108702976D01*
X80495238Y-108655357D01*
X80400000Y-108560119D01*
X80352380Y-108417261D01*
X80352380Y-108322023D01*
X80400000Y-108179166D01*
X80447619Y-108131547D01*
X81352380Y-107179166D02*
X81352380Y-107750595D01*
X81352380Y-107464880D02*
X80352380Y-107464880D01*
X80495238Y-107560119D01*
X80590476Y-107655357D01*
X80638095Y-107750595D01*
X80352380Y-106560119D02*
X80352380Y-106464880D01*
X80400000Y-106369642D01*
X80447619Y-106322023D01*
X80542857Y-106274404D01*
X80733333Y-106226785D01*
X80971428Y-106226785D01*
X81161904Y-106274404D01*
X81257142Y-106322023D01*
X81304761Y-106369642D01*
X81352380Y-106464880D01*
X81352380Y-106560119D01*
X81304761Y-106655357D01*
X81257142Y-106702976D01*
X81161904Y-106750595D01*
X80971428Y-106798214D01*
X80733333Y-106798214D01*
X80542857Y-106750595D01*
X80447619Y-106702976D01*
X80400000Y-106655357D01*
X80352380Y-106560119D01*
X80685714Y-105369642D02*
X81352380Y-105369642D01*
X80304761Y-105607738D02*
X81019047Y-105845833D01*
X81019047Y-105226785D01*
X79818452Y-110707142D02*
X79770833Y-110754761D01*
X79627976Y-110802380D01*
X79532738Y-110802380D01*
X79389880Y-110754761D01*
X79294642Y-110659523D01*
X79247023Y-110564285D01*
X79199404Y-110373809D01*
X79199404Y-110230952D01*
X79247023Y-110040476D01*
X79294642Y-109945238D01*
X79389880Y-109850000D01*
X79532738Y-109802380D01*
X79627976Y-109802380D01*
X79770833Y-109850000D01*
X79818452Y-109897619D01*
X80770833Y-110802380D02*
X80199404Y-110802380D01*
X80485119Y-110802380D02*
X80485119Y-109802380D01*
X80389880Y-109945238D01*
X80294642Y-110040476D01*
X80199404Y-110088095D01*
X81389880Y-109802380D02*
X81485119Y-109802380D01*
X81580357Y-109850000D01*
X81627976Y-109897619D01*
X81675595Y-109992857D01*
X81723214Y-110183333D01*
X81723214Y-110421428D01*
X81675595Y-110611904D01*
X81627976Y-110707142D01*
X81580357Y-110754761D01*
X81485119Y-110802380D01*
X81389880Y-110802380D01*
X81294642Y-110754761D01*
X81247023Y-110707142D01*
X81199404Y-110611904D01*
X81151785Y-110421428D01*
X81151785Y-110183333D01*
X81199404Y-109992857D01*
X81247023Y-109897619D01*
X81294642Y-109850000D01*
X81389880Y-109802380D01*
X82056547Y-109802380D02*
X82675595Y-109802380D01*
X82342261Y-110183333D01*
X82485119Y-110183333D01*
X82580357Y-110230952D01*
X82627976Y-110278571D01*
X82675595Y-110373809D01*
X82675595Y-110611904D01*
X82627976Y-110707142D01*
X82580357Y-110754761D01*
X82485119Y-110802380D01*
X82199404Y-110802380D01*
X82104166Y-110754761D01*
X82056547Y-110707142D01*
X41887142Y-106861547D02*
X41934761Y-106909166D01*
X41982380Y-107052023D01*
X41982380Y-107147261D01*
X41934761Y-107290119D01*
X41839523Y-107385357D01*
X41744285Y-107432976D01*
X41553809Y-107480595D01*
X41410952Y-107480595D01*
X41220476Y-107432976D01*
X41125238Y-107385357D01*
X41030000Y-107290119D01*
X40982380Y-107147261D01*
X40982380Y-107052023D01*
X41030000Y-106909166D01*
X41077619Y-106861547D01*
X41982380Y-105909166D02*
X41982380Y-106480595D01*
X41982380Y-106194880D02*
X40982380Y-106194880D01*
X41125238Y-106290119D01*
X41220476Y-106385357D01*
X41268095Y-106480595D01*
X40982380Y-105290119D02*
X40982380Y-105194880D01*
X41030000Y-105099642D01*
X41077619Y-105052023D01*
X41172857Y-105004404D01*
X41363333Y-104956785D01*
X41601428Y-104956785D01*
X41791904Y-105004404D01*
X41887142Y-105052023D01*
X41934761Y-105099642D01*
X41982380Y-105194880D01*
X41982380Y-105290119D01*
X41934761Y-105385357D01*
X41887142Y-105432976D01*
X41791904Y-105480595D01*
X41601428Y-105528214D01*
X41363333Y-105528214D01*
X41172857Y-105480595D01*
X41077619Y-105432976D01*
X41030000Y-105385357D01*
X40982380Y-105290119D01*
X41077619Y-104575833D02*
X41030000Y-104528214D01*
X40982380Y-104432976D01*
X40982380Y-104194880D01*
X41030000Y-104099642D01*
X41077619Y-104052023D01*
X41172857Y-104004404D01*
X41268095Y-104004404D01*
X41410952Y-104052023D01*
X41982380Y-104623452D01*
X41982380Y-104004404D01*
X59157142Y-112546547D02*
X59204761Y-112594166D01*
X59252380Y-112737023D01*
X59252380Y-112832261D01*
X59204761Y-112975119D01*
X59109523Y-113070357D01*
X59014285Y-113117976D01*
X58823809Y-113165595D01*
X58680952Y-113165595D01*
X58490476Y-113117976D01*
X58395238Y-113070357D01*
X58300000Y-112975119D01*
X58252380Y-112832261D01*
X58252380Y-112737023D01*
X58300000Y-112594166D01*
X58347619Y-112546547D01*
X59252380Y-111594166D02*
X59252380Y-112165595D01*
X59252380Y-111879880D02*
X58252380Y-111879880D01*
X58395238Y-111975119D01*
X58490476Y-112070357D01*
X58538095Y-112165595D01*
X58252380Y-110975119D02*
X58252380Y-110879880D01*
X58300000Y-110784642D01*
X58347619Y-110737023D01*
X58442857Y-110689404D01*
X58633333Y-110641785D01*
X58871428Y-110641785D01*
X59061904Y-110689404D01*
X59157142Y-110737023D01*
X59204761Y-110784642D01*
X59252380Y-110879880D01*
X59252380Y-110975119D01*
X59204761Y-111070357D01*
X59157142Y-111117976D01*
X59061904Y-111165595D01*
X58871428Y-111213214D01*
X58633333Y-111213214D01*
X58442857Y-111165595D01*
X58347619Y-111117976D01*
X58300000Y-111070357D01*
X58252380Y-110975119D01*
X59252380Y-109689404D02*
X59252380Y-110260833D01*
X59252380Y-109975119D02*
X58252380Y-109975119D01*
X58395238Y-110070357D01*
X58490476Y-110165595D01*
X58538095Y-110260833D01*
M02*
