G04 #@! TF.GenerationSoftware,KiCad,Pcbnew,5.1.5+dfsg1-2build2*
G04 #@! TF.CreationDate,2021-01-30T12:17:23-05:00*
G04 #@! TF.ProjectId,breadboard_clock,62726561-6462-46f6-9172-645f636c6f63,rev?*
G04 #@! TF.SameCoordinates,Original*
G04 #@! TF.FileFunction,Soldermask,Bot*
G04 #@! TF.FilePolarity,Negative*
%FSLAX46Y46*%
G04 Gerber Fmt 4.6, Leading zero omitted, Abs format (unit mm)*
G04 Created by KiCad (PCBNEW 5.1.5+dfsg1-2build2) date 2021-01-30 12:17:23*
%MOMM*%
%LPD*%
G04 APERTURE LIST*
%ADD10C,0.100000*%
G04 APERTURE END LIST*
D10*
G36*
X132407740Y-110328626D02*
G01*
X132456136Y-110338253D01*
X132493902Y-110353896D01*
X132547311Y-110376019D01*
X132547312Y-110376020D01*
X132629369Y-110430848D01*
X132699152Y-110500631D01*
X132699153Y-110500633D01*
X132753981Y-110582689D01*
X132791747Y-110673865D01*
X132811000Y-110770655D01*
X132811000Y-110869345D01*
X132791747Y-110966135D01*
X132753981Y-111057311D01*
X132753980Y-111057312D01*
X132699152Y-111139369D01*
X132629369Y-111209152D01*
X132588062Y-111236752D01*
X132547311Y-111263981D01*
X132493902Y-111286104D01*
X132456136Y-111301747D01*
X132407740Y-111311374D01*
X132359345Y-111321000D01*
X132260655Y-111321000D01*
X132212260Y-111311374D01*
X132163864Y-111301747D01*
X132126098Y-111286104D01*
X132072689Y-111263981D01*
X132031938Y-111236752D01*
X131990631Y-111209152D01*
X131920848Y-111139369D01*
X131866020Y-111057312D01*
X131866019Y-111057311D01*
X131828253Y-110966135D01*
X131809000Y-110869345D01*
X131809000Y-110770655D01*
X131828253Y-110673865D01*
X131866019Y-110582689D01*
X131920847Y-110500633D01*
X131920848Y-110500631D01*
X131990631Y-110430848D01*
X132072688Y-110376020D01*
X132072689Y-110376019D01*
X132126098Y-110353896D01*
X132163864Y-110338253D01*
X132212260Y-110328626D01*
X132260655Y-110319000D01*
X132359345Y-110319000D01*
X132407740Y-110328626D01*
G37*
G36*
X129407740Y-110328626D02*
G01*
X129456136Y-110338253D01*
X129493902Y-110353896D01*
X129547311Y-110376019D01*
X129547312Y-110376020D01*
X129629369Y-110430848D01*
X129699152Y-110500631D01*
X129699153Y-110500633D01*
X129753981Y-110582689D01*
X129791747Y-110673865D01*
X129811000Y-110770655D01*
X129811000Y-110869345D01*
X129791747Y-110966135D01*
X129753981Y-111057311D01*
X129753980Y-111057312D01*
X129699152Y-111139369D01*
X129629369Y-111209152D01*
X129588062Y-111236752D01*
X129547311Y-111263981D01*
X129493902Y-111286104D01*
X129456136Y-111301747D01*
X129407740Y-111311374D01*
X129359345Y-111321000D01*
X129260655Y-111321000D01*
X129212260Y-111311374D01*
X129163864Y-111301747D01*
X129126098Y-111286104D01*
X129072689Y-111263981D01*
X129031938Y-111236752D01*
X128990631Y-111209152D01*
X128920848Y-111139369D01*
X128866020Y-111057312D01*
X128866019Y-111057311D01*
X128828253Y-110966135D01*
X128809000Y-110869345D01*
X128809000Y-110770655D01*
X128828253Y-110673865D01*
X128866019Y-110582689D01*
X128920847Y-110500633D01*
X128920848Y-110500631D01*
X128990631Y-110430848D01*
X129072688Y-110376020D01*
X129072689Y-110376019D01*
X129126098Y-110353896D01*
X129163864Y-110338253D01*
X129212260Y-110328626D01*
X129260655Y-110319000D01*
X129359345Y-110319000D01*
X129407740Y-110328626D01*
G37*
G36*
X133450721Y-95990174D02*
G01*
X133550995Y-96031709D01*
X133550996Y-96031710D01*
X133641242Y-96092010D01*
X133717990Y-96168758D01*
X133717991Y-96168760D01*
X133778291Y-96259005D01*
X133819826Y-96359279D01*
X133841000Y-96465730D01*
X133841000Y-96574270D01*
X133819826Y-96680721D01*
X133778291Y-96780995D01*
X133778290Y-96780996D01*
X133717990Y-96871242D01*
X133641242Y-96947990D01*
X133595812Y-96978345D01*
X133550995Y-97008291D01*
X133450721Y-97049826D01*
X133344270Y-97071000D01*
X133235730Y-97071000D01*
X133129279Y-97049826D01*
X133029005Y-97008291D01*
X132984188Y-96978345D01*
X132938758Y-96947990D01*
X132862010Y-96871242D01*
X132801710Y-96780996D01*
X132801709Y-96780995D01*
X132760174Y-96680721D01*
X132739000Y-96574270D01*
X132739000Y-96465730D01*
X132760174Y-96359279D01*
X132801709Y-96259005D01*
X132862009Y-96168760D01*
X132862010Y-96168758D01*
X132938758Y-96092010D01*
X133029004Y-96031710D01*
X133029005Y-96031709D01*
X133129279Y-95990174D01*
X133235730Y-95969000D01*
X133344270Y-95969000D01*
X133450721Y-95990174D01*
G37*
G36*
X129700721Y-95990174D02*
G01*
X129800995Y-96031709D01*
X129800996Y-96031710D01*
X129891242Y-96092010D01*
X129967990Y-96168758D01*
X129967991Y-96168760D01*
X130028291Y-96259005D01*
X130069826Y-96359279D01*
X130091000Y-96465730D01*
X130091000Y-96574270D01*
X130069826Y-96680721D01*
X130028291Y-96780995D01*
X130028290Y-96780996D01*
X129967990Y-96871242D01*
X129891242Y-96947990D01*
X129845812Y-96978345D01*
X129800995Y-97008291D01*
X129700721Y-97049826D01*
X129594270Y-97071000D01*
X129485730Y-97071000D01*
X129379279Y-97049826D01*
X129279005Y-97008291D01*
X129234188Y-96978345D01*
X129188758Y-96947990D01*
X129112010Y-96871242D01*
X129051710Y-96780996D01*
X129051709Y-96780995D01*
X129010174Y-96680721D01*
X128989000Y-96574270D01*
X128989000Y-96465730D01*
X129010174Y-96359279D01*
X129051709Y-96259005D01*
X129112009Y-96168760D01*
X129112010Y-96168758D01*
X129188758Y-96092010D01*
X129279004Y-96031710D01*
X129279005Y-96031709D01*
X129379279Y-95990174D01*
X129485730Y-95969000D01*
X129594270Y-95969000D01*
X129700721Y-95990174D01*
G37*
G36*
X125950721Y-95990174D02*
G01*
X126050995Y-96031709D01*
X126050996Y-96031710D01*
X126141242Y-96092010D01*
X126217990Y-96168758D01*
X126217991Y-96168760D01*
X126278291Y-96259005D01*
X126319826Y-96359279D01*
X126341000Y-96465730D01*
X126341000Y-96574270D01*
X126319826Y-96680721D01*
X126278291Y-96780995D01*
X126278290Y-96780996D01*
X126217990Y-96871242D01*
X126141242Y-96947990D01*
X126095812Y-96978345D01*
X126050995Y-97008291D01*
X125950721Y-97049826D01*
X125844270Y-97071000D01*
X125735730Y-97071000D01*
X125629279Y-97049826D01*
X125529005Y-97008291D01*
X125484188Y-96978345D01*
X125438758Y-96947990D01*
X125362010Y-96871242D01*
X125301710Y-96780996D01*
X125301709Y-96780995D01*
X125260174Y-96680721D01*
X125239000Y-96574270D01*
X125239000Y-96465730D01*
X125260174Y-96359279D01*
X125301709Y-96259005D01*
X125362009Y-96168760D01*
X125362010Y-96168758D01*
X125438758Y-96092010D01*
X125529004Y-96031710D01*
X125529005Y-96031709D01*
X125629279Y-95990174D01*
X125735730Y-95969000D01*
X125844270Y-95969000D01*
X125950721Y-95990174D01*
G37*
G36*
X136549999Y-85269737D02*
G01*
X136559608Y-85272652D01*
X136568472Y-85277390D01*
X136576237Y-85283763D01*
X136582610Y-85291528D01*
X136587348Y-85300392D01*
X136590263Y-85310001D01*
X136591852Y-85326140D01*
X136591852Y-89313860D01*
X136590263Y-89329999D01*
X136587348Y-89339608D01*
X136582610Y-89348472D01*
X136576237Y-89356237D01*
X136568472Y-89362610D01*
X136559608Y-89367348D01*
X136549999Y-89370263D01*
X136533860Y-89371852D01*
X133546140Y-89371852D01*
X133530001Y-89370263D01*
X133520392Y-89367348D01*
X133511528Y-89362610D01*
X133503763Y-89356237D01*
X133497390Y-89348472D01*
X133492652Y-89339608D01*
X133489737Y-89329999D01*
X133488148Y-89313860D01*
X133488148Y-85326140D01*
X133489737Y-85310001D01*
X133492652Y-85300392D01*
X133497390Y-85291528D01*
X133503763Y-85283763D01*
X133511528Y-85277390D01*
X133520392Y-85272652D01*
X133530001Y-85269737D01*
X133546140Y-85268148D01*
X136533860Y-85268148D01*
X136549999Y-85269737D01*
G37*
G36*
X125549999Y-85269737D02*
G01*
X125559608Y-85272652D01*
X125568472Y-85277390D01*
X125576237Y-85283763D01*
X125582610Y-85291528D01*
X125587348Y-85300392D01*
X125590263Y-85310001D01*
X125591852Y-85326140D01*
X125591852Y-89313860D01*
X125590263Y-89329999D01*
X125587348Y-89339608D01*
X125582610Y-89348472D01*
X125576237Y-89356237D01*
X125568472Y-89362610D01*
X125559608Y-89367348D01*
X125549999Y-89370263D01*
X125533860Y-89371852D01*
X122546140Y-89371852D01*
X122530001Y-89370263D01*
X122520392Y-89367348D01*
X122511528Y-89362610D01*
X122503763Y-89356237D01*
X122497390Y-89348472D01*
X122492652Y-89339608D01*
X122489737Y-89329999D01*
X122488148Y-89313860D01*
X122488148Y-85326140D01*
X122489737Y-85310001D01*
X122492652Y-85300392D01*
X122497390Y-85291528D01*
X122503763Y-85283763D01*
X122511528Y-85277390D01*
X122520392Y-85272652D01*
X122530001Y-85269737D01*
X122546140Y-85268148D01*
X125533860Y-85268148D01*
X125549999Y-85269737D01*
G37*
M02*
