G04 #@! TF.GenerationSoftware,KiCad,Pcbnew,5.1.5+dfsg1-2build2*
G04 #@! TF.CreationDate,2021-01-30T12:17:23-05:00*
G04 #@! TF.ProjectId,breadboard_clock,62726561-6462-46f6-9172-645f636c6f63,rev?*
G04 #@! TF.SameCoordinates,Original*
G04 #@! TF.FileFunction,Soldermask,Top*
G04 #@! TF.FilePolarity,Negative*
%FSLAX46Y46*%
G04 Gerber Fmt 4.6, Leading zero omitted, Abs format (unit mm)*
G04 Created by KiCad (PCBNEW 5.1.5+dfsg1-2build2) date 2021-01-30 12:17:23*
%MOMM*%
%LPD*%
G04 APERTURE LIST*
%ADD10C,0.100000*%
G04 APERTURE END LIST*
D10*
G36*
X121061000Y-115291000D02*
G01*
X119659000Y-115291000D01*
X119659000Y-113639000D01*
X121061000Y-113639000D01*
X121061000Y-115291000D01*
G37*
G36*
X116561000Y-115291000D02*
G01*
X115159000Y-115291000D01*
X115159000Y-113639000D01*
X116561000Y-113639000D01*
X116561000Y-115291000D01*
G37*
G36*
X57734468Y-111831065D02*
G01*
X57773138Y-111842796D01*
X57808777Y-111861846D01*
X57840017Y-111887483D01*
X57865654Y-111918723D01*
X57884704Y-111954362D01*
X57896435Y-111993032D01*
X57901000Y-112039388D01*
X57901000Y-112690612D01*
X57896435Y-112736968D01*
X57884704Y-112775638D01*
X57865654Y-112811277D01*
X57840017Y-112842517D01*
X57808777Y-112868154D01*
X57773138Y-112887204D01*
X57734468Y-112898935D01*
X57688112Y-112903500D01*
X56611888Y-112903500D01*
X56565532Y-112898935D01*
X56526862Y-112887204D01*
X56491223Y-112868154D01*
X56459983Y-112842517D01*
X56434346Y-112811277D01*
X56415296Y-112775638D01*
X56403565Y-112736968D01*
X56399000Y-112690612D01*
X56399000Y-112039388D01*
X56403565Y-111993032D01*
X56415296Y-111954362D01*
X56434346Y-111918723D01*
X56459983Y-111887483D01*
X56491223Y-111861846D01*
X56526862Y-111842796D01*
X56565532Y-111831065D01*
X56611888Y-111826500D01*
X57688112Y-111826500D01*
X57734468Y-111831065D01*
G37*
G36*
X80371968Y-111253565D02*
G01*
X80410638Y-111265296D01*
X80446277Y-111284346D01*
X80477517Y-111309983D01*
X80503154Y-111341223D01*
X80522204Y-111376862D01*
X80533935Y-111415532D01*
X80538500Y-111461888D01*
X80538500Y-112538112D01*
X80533935Y-112584468D01*
X80522204Y-112623138D01*
X80503154Y-112658777D01*
X80477517Y-112690017D01*
X80446277Y-112715654D01*
X80410638Y-112734704D01*
X80371968Y-112746435D01*
X80325612Y-112751000D01*
X79674388Y-112751000D01*
X79628032Y-112746435D01*
X79589362Y-112734704D01*
X79553723Y-112715654D01*
X79522483Y-112690017D01*
X79496846Y-112658777D01*
X79477796Y-112623138D01*
X79466065Y-112584468D01*
X79461500Y-112538112D01*
X79461500Y-111461888D01*
X79466065Y-111415532D01*
X79477796Y-111376862D01*
X79496846Y-111341223D01*
X79522483Y-111309983D01*
X79553723Y-111284346D01*
X79589362Y-111265296D01*
X79628032Y-111253565D01*
X79674388Y-111249000D01*
X80325612Y-111249000D01*
X80371968Y-111253565D01*
G37*
G36*
X82246968Y-111253565D02*
G01*
X82285638Y-111265296D01*
X82321277Y-111284346D01*
X82352517Y-111309983D01*
X82378154Y-111341223D01*
X82397204Y-111376862D01*
X82408935Y-111415532D01*
X82413500Y-111461888D01*
X82413500Y-112538112D01*
X82408935Y-112584468D01*
X82397204Y-112623138D01*
X82378154Y-112658777D01*
X82352517Y-112690017D01*
X82321277Y-112715654D01*
X82285638Y-112734704D01*
X82246968Y-112746435D01*
X82200612Y-112751000D01*
X81549388Y-112751000D01*
X81503032Y-112746435D01*
X81464362Y-112734704D01*
X81428723Y-112715654D01*
X81397483Y-112690017D01*
X81371846Y-112658777D01*
X81352796Y-112623138D01*
X81341065Y-112584468D01*
X81336500Y-112538112D01*
X81336500Y-111461888D01*
X81341065Y-111415532D01*
X81352796Y-111376862D01*
X81371846Y-111341223D01*
X81397483Y-111309983D01*
X81428723Y-111284346D01*
X81464362Y-111265296D01*
X81503032Y-111253565D01*
X81549388Y-111249000D01*
X82200612Y-111249000D01*
X82246968Y-111253565D01*
G37*
G36*
X135011000Y-112371000D02*
G01*
X133909000Y-112371000D01*
X133909000Y-111469000D01*
X135011000Y-111469000D01*
X135011000Y-112371000D01*
G37*
G36*
X127711000Y-112371000D02*
G01*
X126609000Y-112371000D01*
X126609000Y-111469000D01*
X127711000Y-111469000D01*
X127711000Y-112371000D01*
G37*
G36*
X108534468Y-111226065D02*
G01*
X108573138Y-111237796D01*
X108608777Y-111256846D01*
X108640017Y-111282483D01*
X108665654Y-111313723D01*
X108684704Y-111349362D01*
X108696435Y-111388032D01*
X108701000Y-111434388D01*
X108701000Y-112085612D01*
X108696435Y-112131968D01*
X108684704Y-112170638D01*
X108665654Y-112206277D01*
X108640017Y-112237517D01*
X108608777Y-112263154D01*
X108573138Y-112282204D01*
X108534468Y-112293935D01*
X108488112Y-112298500D01*
X107411888Y-112298500D01*
X107365532Y-112293935D01*
X107326862Y-112282204D01*
X107291223Y-112263154D01*
X107259983Y-112237517D01*
X107234346Y-112206277D01*
X107215296Y-112170638D01*
X107203565Y-112131968D01*
X107199000Y-112085612D01*
X107199000Y-111434388D01*
X107203565Y-111388032D01*
X107215296Y-111349362D01*
X107234346Y-111313723D01*
X107259983Y-111282483D01*
X107291223Y-111256846D01*
X107326862Y-111237796D01*
X107365532Y-111226065D01*
X107411888Y-111221500D01*
X108488112Y-111221500D01*
X108534468Y-111226065D01*
G37*
G36*
X67894468Y-110561065D02*
G01*
X67933138Y-110572796D01*
X67968777Y-110591846D01*
X68000017Y-110617483D01*
X68025654Y-110648723D01*
X68044704Y-110684362D01*
X68056435Y-110723032D01*
X68061000Y-110769388D01*
X68061000Y-111420612D01*
X68056435Y-111466968D01*
X68044704Y-111505638D01*
X68025654Y-111541277D01*
X68000017Y-111572517D01*
X67968777Y-111598154D01*
X67933138Y-111617204D01*
X67894468Y-111628935D01*
X67848112Y-111633500D01*
X66771888Y-111633500D01*
X66725532Y-111628935D01*
X66686862Y-111617204D01*
X66651223Y-111598154D01*
X66619983Y-111572517D01*
X66594346Y-111541277D01*
X66575296Y-111505638D01*
X66563565Y-111466968D01*
X66559000Y-111420612D01*
X66559000Y-110769388D01*
X66563565Y-110723032D01*
X66575296Y-110684362D01*
X66594346Y-110648723D01*
X66619983Y-110617483D01*
X66651223Y-110591846D01*
X66686862Y-110572796D01*
X66725532Y-110561065D01*
X66771888Y-110556500D01*
X67848112Y-110556500D01*
X67894468Y-110561065D01*
G37*
G36*
X92024468Y-110561065D02*
G01*
X92063138Y-110572796D01*
X92098777Y-110591846D01*
X92130017Y-110617483D01*
X92155654Y-110648723D01*
X92174704Y-110684362D01*
X92186435Y-110723032D01*
X92191000Y-110769388D01*
X92191000Y-111420612D01*
X92186435Y-111466968D01*
X92174704Y-111505638D01*
X92155654Y-111541277D01*
X92130017Y-111572517D01*
X92098777Y-111598154D01*
X92063138Y-111617204D01*
X92024468Y-111628935D01*
X91978112Y-111633500D01*
X90901888Y-111633500D01*
X90855532Y-111628935D01*
X90816862Y-111617204D01*
X90781223Y-111598154D01*
X90749983Y-111572517D01*
X90724346Y-111541277D01*
X90705296Y-111505638D01*
X90693565Y-111466968D01*
X90689000Y-111420612D01*
X90689000Y-110769388D01*
X90693565Y-110723032D01*
X90705296Y-110684362D01*
X90724346Y-110648723D01*
X90749983Y-110617483D01*
X90781223Y-110591846D01*
X90816862Y-110572796D01*
X90855532Y-110561065D01*
X90901888Y-110556500D01*
X91978112Y-110556500D01*
X92024468Y-110561065D01*
G37*
G36*
X140284468Y-110561065D02*
G01*
X140323138Y-110572796D01*
X140358777Y-110591846D01*
X140390017Y-110617483D01*
X140415654Y-110648723D01*
X140434704Y-110684362D01*
X140446435Y-110723032D01*
X140451000Y-110769388D01*
X140451000Y-111420612D01*
X140446435Y-111466968D01*
X140434704Y-111505638D01*
X140415654Y-111541277D01*
X140390017Y-111572517D01*
X140358777Y-111598154D01*
X140323138Y-111617204D01*
X140284468Y-111628935D01*
X140238112Y-111633500D01*
X139161888Y-111633500D01*
X139115532Y-111628935D01*
X139076862Y-111617204D01*
X139041223Y-111598154D01*
X139009983Y-111572517D01*
X138984346Y-111541277D01*
X138965296Y-111505638D01*
X138953565Y-111466968D01*
X138949000Y-111420612D01*
X138949000Y-110769388D01*
X138953565Y-110723032D01*
X138965296Y-110684362D01*
X138984346Y-110648723D01*
X139009983Y-110617483D01*
X139041223Y-110591846D01*
X139076862Y-110572796D01*
X139115532Y-110561065D01*
X139161888Y-110556500D01*
X140238112Y-110556500D01*
X140284468Y-110561065D01*
G37*
G36*
X97519928Y-110776764D02*
G01*
X97541009Y-110783160D01*
X97560445Y-110793548D01*
X97577476Y-110807524D01*
X97591452Y-110824555D01*
X97601840Y-110843991D01*
X97608236Y-110865072D01*
X97611000Y-110893140D01*
X97611000Y-111356860D01*
X97608236Y-111384928D01*
X97601840Y-111406009D01*
X97591452Y-111425445D01*
X97577476Y-111442476D01*
X97560445Y-111456452D01*
X97541009Y-111466840D01*
X97519928Y-111473236D01*
X97491860Y-111476000D01*
X95678140Y-111476000D01*
X95650072Y-111473236D01*
X95628991Y-111466840D01*
X95609555Y-111456452D01*
X95592524Y-111442476D01*
X95578548Y-111425445D01*
X95568160Y-111406009D01*
X95561764Y-111384928D01*
X95559000Y-111356860D01*
X95559000Y-110893140D01*
X95561764Y-110865072D01*
X95568160Y-110843991D01*
X95578548Y-110824555D01*
X95592524Y-110807524D01*
X95609555Y-110793548D01*
X95628991Y-110783160D01*
X95650072Y-110776764D01*
X95678140Y-110774000D01*
X97491860Y-110774000D01*
X97519928Y-110776764D01*
G37*
G36*
X73389928Y-110776764D02*
G01*
X73411009Y-110783160D01*
X73430445Y-110793548D01*
X73447476Y-110807524D01*
X73461452Y-110824555D01*
X73471840Y-110843991D01*
X73478236Y-110865072D01*
X73481000Y-110893140D01*
X73481000Y-111356860D01*
X73478236Y-111384928D01*
X73471840Y-111406009D01*
X73461452Y-111425445D01*
X73447476Y-111442476D01*
X73430445Y-111456452D01*
X73411009Y-111466840D01*
X73389928Y-111473236D01*
X73361860Y-111476000D01*
X71548140Y-111476000D01*
X71520072Y-111473236D01*
X71498991Y-111466840D01*
X71479555Y-111456452D01*
X71462524Y-111442476D01*
X71448548Y-111425445D01*
X71438160Y-111406009D01*
X71431764Y-111384928D01*
X71429000Y-111356860D01*
X71429000Y-110893140D01*
X71431764Y-110865072D01*
X71438160Y-110843991D01*
X71448548Y-110824555D01*
X71462524Y-110807524D01*
X71479555Y-110793548D01*
X71498991Y-110783160D01*
X71520072Y-110776764D01*
X71548140Y-110774000D01*
X73361860Y-110774000D01*
X73389928Y-110776764D01*
G37*
G36*
X78339928Y-110776764D02*
G01*
X78361009Y-110783160D01*
X78380445Y-110793548D01*
X78397476Y-110807524D01*
X78411452Y-110824555D01*
X78421840Y-110843991D01*
X78428236Y-110865072D01*
X78431000Y-110893140D01*
X78431000Y-111356860D01*
X78428236Y-111384928D01*
X78421840Y-111406009D01*
X78411452Y-111425445D01*
X78397476Y-111442476D01*
X78380445Y-111456452D01*
X78361009Y-111466840D01*
X78339928Y-111473236D01*
X78311860Y-111476000D01*
X76498140Y-111476000D01*
X76470072Y-111473236D01*
X76448991Y-111466840D01*
X76429555Y-111456452D01*
X76412524Y-111442476D01*
X76398548Y-111425445D01*
X76388160Y-111406009D01*
X76381764Y-111384928D01*
X76379000Y-111356860D01*
X76379000Y-110893140D01*
X76381764Y-110865072D01*
X76388160Y-110843991D01*
X76398548Y-110824555D01*
X76412524Y-110807524D01*
X76429555Y-110793548D01*
X76448991Y-110783160D01*
X76470072Y-110776764D01*
X76498140Y-110774000D01*
X78311860Y-110774000D01*
X78339928Y-110776764D01*
G37*
G36*
X102469928Y-110776764D02*
G01*
X102491009Y-110783160D01*
X102510445Y-110793548D01*
X102527476Y-110807524D01*
X102541452Y-110824555D01*
X102551840Y-110843991D01*
X102558236Y-110865072D01*
X102561000Y-110893140D01*
X102561000Y-111356860D01*
X102558236Y-111384928D01*
X102551840Y-111406009D01*
X102541452Y-111425445D01*
X102527476Y-111442476D01*
X102510445Y-111456452D01*
X102491009Y-111466840D01*
X102469928Y-111473236D01*
X102441860Y-111476000D01*
X100628140Y-111476000D01*
X100600072Y-111473236D01*
X100578991Y-111466840D01*
X100559555Y-111456452D01*
X100542524Y-111442476D01*
X100528548Y-111425445D01*
X100518160Y-111406009D01*
X100511764Y-111384928D01*
X100509000Y-111356860D01*
X100509000Y-110893140D01*
X100511764Y-110865072D01*
X100518160Y-110843991D01*
X100528548Y-110824555D01*
X100542524Y-110807524D01*
X100559555Y-110793548D01*
X100578991Y-110783160D01*
X100600072Y-110776764D01*
X100628140Y-110774000D01*
X102441860Y-110774000D01*
X102469928Y-110776764D01*
G37*
G36*
X129407740Y-110328626D02*
G01*
X129456136Y-110338253D01*
X129493902Y-110353896D01*
X129547311Y-110376019D01*
X129565472Y-110388154D01*
X129629369Y-110430848D01*
X129699152Y-110500631D01*
X129726752Y-110541938D01*
X129753981Y-110582689D01*
X129791747Y-110673865D01*
X129807115Y-110751122D01*
X129811000Y-110770656D01*
X129811000Y-110869344D01*
X129791747Y-110966136D01*
X129776104Y-111003902D01*
X129753981Y-111057311D01*
X129753980Y-111057312D01*
X129699152Y-111139369D01*
X129629369Y-111209152D01*
X129603145Y-111226674D01*
X129547311Y-111263981D01*
X129502643Y-111282483D01*
X129456136Y-111301747D01*
X129407740Y-111311374D01*
X129359345Y-111321000D01*
X129260655Y-111321000D01*
X129212260Y-111311374D01*
X129163864Y-111301747D01*
X129117357Y-111282483D01*
X129072689Y-111263981D01*
X129016855Y-111226674D01*
X128990631Y-111209152D01*
X128920848Y-111139369D01*
X128866020Y-111057312D01*
X128866019Y-111057311D01*
X128843896Y-111003902D01*
X128828253Y-110966136D01*
X128809000Y-110869344D01*
X128809000Y-110770656D01*
X128812886Y-110751122D01*
X128828253Y-110673865D01*
X128866019Y-110582689D01*
X128893248Y-110541938D01*
X128920848Y-110500631D01*
X128990631Y-110430848D01*
X129054528Y-110388154D01*
X129072689Y-110376019D01*
X129126098Y-110353896D01*
X129163864Y-110338253D01*
X129212260Y-110328626D01*
X129260655Y-110319000D01*
X129359345Y-110319000D01*
X129407740Y-110328626D01*
G37*
G36*
X132407740Y-110328626D02*
G01*
X132456136Y-110338253D01*
X132493902Y-110353896D01*
X132547311Y-110376019D01*
X132565472Y-110388154D01*
X132629369Y-110430848D01*
X132699152Y-110500631D01*
X132726752Y-110541938D01*
X132753981Y-110582689D01*
X132791747Y-110673865D01*
X132807115Y-110751122D01*
X132811000Y-110770656D01*
X132811000Y-110869344D01*
X132791747Y-110966136D01*
X132776104Y-111003902D01*
X132753981Y-111057311D01*
X132753980Y-111057312D01*
X132699152Y-111139369D01*
X132629369Y-111209152D01*
X132603145Y-111226674D01*
X132547311Y-111263981D01*
X132502643Y-111282483D01*
X132456136Y-111301747D01*
X132407740Y-111311374D01*
X132359345Y-111321000D01*
X132260655Y-111321000D01*
X132212260Y-111311374D01*
X132163864Y-111301747D01*
X132117357Y-111282483D01*
X132072689Y-111263981D01*
X132016855Y-111226674D01*
X131990631Y-111209152D01*
X131920848Y-111139369D01*
X131866020Y-111057312D01*
X131866019Y-111057311D01*
X131843896Y-111003902D01*
X131828253Y-110966136D01*
X131809000Y-110869344D01*
X131809000Y-110770656D01*
X131812886Y-110751122D01*
X131828253Y-110673865D01*
X131866019Y-110582689D01*
X131893248Y-110541938D01*
X131920848Y-110500631D01*
X131990631Y-110430848D01*
X132054528Y-110388154D01*
X132072689Y-110376019D01*
X132126098Y-110353896D01*
X132163864Y-110338253D01*
X132212260Y-110328626D01*
X132260655Y-110319000D01*
X132359345Y-110319000D01*
X132407740Y-110328626D01*
G37*
G36*
X57734468Y-109956065D02*
G01*
X57773138Y-109967796D01*
X57808777Y-109986846D01*
X57840017Y-110012483D01*
X57865654Y-110043723D01*
X57884704Y-110079362D01*
X57896435Y-110118032D01*
X57901000Y-110164388D01*
X57901000Y-110815612D01*
X57896435Y-110861968D01*
X57884704Y-110900638D01*
X57865654Y-110936277D01*
X57840017Y-110967517D01*
X57808777Y-110993154D01*
X57773138Y-111012204D01*
X57734468Y-111023935D01*
X57688112Y-111028500D01*
X56611888Y-111028500D01*
X56565532Y-111023935D01*
X56526862Y-111012204D01*
X56491223Y-110993154D01*
X56459983Y-110967517D01*
X56434346Y-110936277D01*
X56415296Y-110900638D01*
X56403565Y-110861968D01*
X56399000Y-110815612D01*
X56399000Y-110164388D01*
X56403565Y-110118032D01*
X56415296Y-110079362D01*
X56434346Y-110043723D01*
X56459983Y-110012483D01*
X56491223Y-109986846D01*
X56526862Y-109967796D01*
X56565532Y-109956065D01*
X56611888Y-109951500D01*
X57688112Y-109951500D01*
X57734468Y-109956065D01*
G37*
G36*
X100124336Y-107672733D02*
G01*
X100154883Y-107681999D01*
X100183033Y-107697046D01*
X100207706Y-107717294D01*
X100227954Y-107741967D01*
X100243001Y-107770117D01*
X100252267Y-107800664D01*
X100256000Y-107838567D01*
X100256000Y-110601433D01*
X100252267Y-110639336D01*
X100243001Y-110669883D01*
X100227954Y-110698033D01*
X100207706Y-110722706D01*
X100183033Y-110742954D01*
X100154883Y-110758001D01*
X100124336Y-110767267D01*
X100086433Y-110771000D01*
X98033567Y-110771000D01*
X97995664Y-110767267D01*
X97965117Y-110758001D01*
X97936967Y-110742954D01*
X97912294Y-110722706D01*
X97892046Y-110698033D01*
X97876999Y-110669883D01*
X97867733Y-110639336D01*
X97864000Y-110601433D01*
X97864000Y-107838567D01*
X97867733Y-107800664D01*
X97876999Y-107770117D01*
X97892046Y-107741967D01*
X97912294Y-107717294D01*
X97936967Y-107697046D01*
X97965117Y-107681999D01*
X97995664Y-107672733D01*
X98033567Y-107669000D01*
X100086433Y-107669000D01*
X100124336Y-107672733D01*
G37*
G36*
X75994336Y-107672733D02*
G01*
X76024883Y-107681999D01*
X76053033Y-107697046D01*
X76077706Y-107717294D01*
X76097954Y-107741967D01*
X76113001Y-107770117D01*
X76122267Y-107800664D01*
X76126000Y-107838567D01*
X76126000Y-110601433D01*
X76122267Y-110639336D01*
X76113001Y-110669883D01*
X76097954Y-110698033D01*
X76077706Y-110722706D01*
X76053033Y-110742954D01*
X76024883Y-110758001D01*
X75994336Y-110767267D01*
X75956433Y-110771000D01*
X73903567Y-110771000D01*
X73865664Y-110767267D01*
X73835117Y-110758001D01*
X73806967Y-110742954D01*
X73782294Y-110722706D01*
X73762046Y-110698033D01*
X73746999Y-110669883D01*
X73737733Y-110639336D01*
X73734000Y-110601433D01*
X73734000Y-107838567D01*
X73737733Y-107800664D01*
X73746999Y-107770117D01*
X73762046Y-107741967D01*
X73782294Y-107717294D01*
X73806967Y-107697046D01*
X73835117Y-107681999D01*
X73865664Y-107672733D01*
X73903567Y-107669000D01*
X75956433Y-107669000D01*
X75994336Y-107672733D01*
G37*
G36*
X108534468Y-109351065D02*
G01*
X108573138Y-109362796D01*
X108608777Y-109381846D01*
X108640017Y-109407483D01*
X108665654Y-109438723D01*
X108684704Y-109474362D01*
X108696435Y-109513032D01*
X108701000Y-109559388D01*
X108701000Y-110210612D01*
X108696435Y-110256968D01*
X108684704Y-110295638D01*
X108665654Y-110331277D01*
X108640017Y-110362517D01*
X108608777Y-110388154D01*
X108573138Y-110407204D01*
X108534468Y-110418935D01*
X108488112Y-110423500D01*
X107411888Y-110423500D01*
X107365532Y-110418935D01*
X107326862Y-110407204D01*
X107291223Y-110388154D01*
X107259983Y-110362517D01*
X107234346Y-110331277D01*
X107215296Y-110295638D01*
X107203565Y-110256968D01*
X107199000Y-110210612D01*
X107199000Y-109559388D01*
X107203565Y-109513032D01*
X107215296Y-109474362D01*
X107234346Y-109438723D01*
X107259983Y-109407483D01*
X107291223Y-109381846D01*
X107326862Y-109362796D01*
X107365532Y-109351065D01*
X107411888Y-109346500D01*
X108488112Y-109346500D01*
X108534468Y-109351065D01*
G37*
G36*
X102469928Y-109506764D02*
G01*
X102491009Y-109513160D01*
X102510445Y-109523548D01*
X102527476Y-109537524D01*
X102541452Y-109554555D01*
X102551840Y-109573991D01*
X102558236Y-109595072D01*
X102561000Y-109623140D01*
X102561000Y-110086860D01*
X102558236Y-110114928D01*
X102551840Y-110136009D01*
X102541452Y-110155445D01*
X102527476Y-110172476D01*
X102510445Y-110186452D01*
X102491009Y-110196840D01*
X102469928Y-110203236D01*
X102441860Y-110206000D01*
X100628140Y-110206000D01*
X100600072Y-110203236D01*
X100578991Y-110196840D01*
X100559555Y-110186452D01*
X100542524Y-110172476D01*
X100528548Y-110155445D01*
X100518160Y-110136009D01*
X100511764Y-110114928D01*
X100509000Y-110086860D01*
X100509000Y-109623140D01*
X100511764Y-109595072D01*
X100518160Y-109573991D01*
X100528548Y-109554555D01*
X100542524Y-109537524D01*
X100559555Y-109523548D01*
X100578991Y-109513160D01*
X100600072Y-109506764D01*
X100628140Y-109504000D01*
X102441860Y-109504000D01*
X102469928Y-109506764D01*
G37*
G36*
X73389928Y-109506764D02*
G01*
X73411009Y-109513160D01*
X73430445Y-109523548D01*
X73447476Y-109537524D01*
X73461452Y-109554555D01*
X73471840Y-109573991D01*
X73478236Y-109595072D01*
X73481000Y-109623140D01*
X73481000Y-110086860D01*
X73478236Y-110114928D01*
X73471840Y-110136009D01*
X73461452Y-110155445D01*
X73447476Y-110172476D01*
X73430445Y-110186452D01*
X73411009Y-110196840D01*
X73389928Y-110203236D01*
X73361860Y-110206000D01*
X71548140Y-110206000D01*
X71520072Y-110203236D01*
X71498991Y-110196840D01*
X71479555Y-110186452D01*
X71462524Y-110172476D01*
X71448548Y-110155445D01*
X71438160Y-110136009D01*
X71431764Y-110114928D01*
X71429000Y-110086860D01*
X71429000Y-109623140D01*
X71431764Y-109595072D01*
X71438160Y-109573991D01*
X71448548Y-109554555D01*
X71462524Y-109537524D01*
X71479555Y-109523548D01*
X71498991Y-109513160D01*
X71520072Y-109506764D01*
X71548140Y-109504000D01*
X73361860Y-109504000D01*
X73389928Y-109506764D01*
G37*
G36*
X78339928Y-109506764D02*
G01*
X78361009Y-109513160D01*
X78380445Y-109523548D01*
X78397476Y-109537524D01*
X78411452Y-109554555D01*
X78421840Y-109573991D01*
X78428236Y-109595072D01*
X78431000Y-109623140D01*
X78431000Y-110086860D01*
X78428236Y-110114928D01*
X78421840Y-110136009D01*
X78411452Y-110155445D01*
X78397476Y-110172476D01*
X78380445Y-110186452D01*
X78361009Y-110196840D01*
X78339928Y-110203236D01*
X78311860Y-110206000D01*
X76498140Y-110206000D01*
X76470072Y-110203236D01*
X76448991Y-110196840D01*
X76429555Y-110186452D01*
X76412524Y-110172476D01*
X76398548Y-110155445D01*
X76388160Y-110136009D01*
X76381764Y-110114928D01*
X76379000Y-110086860D01*
X76379000Y-109623140D01*
X76381764Y-109595072D01*
X76388160Y-109573991D01*
X76398548Y-109554555D01*
X76412524Y-109537524D01*
X76429555Y-109523548D01*
X76448991Y-109513160D01*
X76470072Y-109506764D01*
X76498140Y-109504000D01*
X78311860Y-109504000D01*
X78339928Y-109506764D01*
G37*
G36*
X97519928Y-109506764D02*
G01*
X97541009Y-109513160D01*
X97560445Y-109523548D01*
X97577476Y-109537524D01*
X97591452Y-109554555D01*
X97601840Y-109573991D01*
X97608236Y-109595072D01*
X97611000Y-109623140D01*
X97611000Y-110086860D01*
X97608236Y-110114928D01*
X97601840Y-110136009D01*
X97591452Y-110155445D01*
X97577476Y-110172476D01*
X97560445Y-110186452D01*
X97541009Y-110196840D01*
X97519928Y-110203236D01*
X97491860Y-110206000D01*
X95678140Y-110206000D01*
X95650072Y-110203236D01*
X95628991Y-110196840D01*
X95609555Y-110186452D01*
X95592524Y-110172476D01*
X95578548Y-110155445D01*
X95568160Y-110136009D01*
X95561764Y-110114928D01*
X95559000Y-110086860D01*
X95559000Y-109623140D01*
X95561764Y-109595072D01*
X95568160Y-109573991D01*
X95578548Y-109554555D01*
X95592524Y-109537524D01*
X95609555Y-109523548D01*
X95628991Y-109513160D01*
X95650072Y-109506764D01*
X95678140Y-109504000D01*
X97491860Y-109504000D01*
X97519928Y-109506764D01*
G37*
G36*
X127711000Y-110161000D02*
G01*
X126609000Y-110161000D01*
X126609000Y-109259000D01*
X127711000Y-109259000D01*
X127711000Y-110161000D01*
G37*
G36*
X135011000Y-110161000D02*
G01*
X133909000Y-110161000D01*
X133909000Y-109259000D01*
X135011000Y-109259000D01*
X135011000Y-110161000D01*
G37*
G36*
X128961000Y-109861000D02*
G01*
X128159000Y-109861000D01*
X128159000Y-108259000D01*
X128961000Y-108259000D01*
X128961000Y-109861000D01*
G37*
G36*
X131961000Y-109861000D02*
G01*
X131159000Y-109861000D01*
X131159000Y-108259000D01*
X131961000Y-108259000D01*
X131961000Y-109861000D01*
G37*
G36*
X133461000Y-109861000D02*
G01*
X132659000Y-109861000D01*
X132659000Y-108259000D01*
X133461000Y-108259000D01*
X133461000Y-109861000D01*
G37*
G36*
X49019928Y-109126764D02*
G01*
X49041009Y-109133160D01*
X49060445Y-109143548D01*
X49077476Y-109157524D01*
X49091452Y-109174555D01*
X49101840Y-109193991D01*
X49108236Y-109215072D01*
X49111000Y-109243140D01*
X49111000Y-109706860D01*
X49108236Y-109734928D01*
X49101840Y-109756009D01*
X49091452Y-109775445D01*
X49077476Y-109792476D01*
X49060445Y-109806452D01*
X49041009Y-109816840D01*
X49019928Y-109823236D01*
X48991860Y-109826000D01*
X47178140Y-109826000D01*
X47150072Y-109823236D01*
X47128991Y-109816840D01*
X47109555Y-109806452D01*
X47092524Y-109792476D01*
X47078548Y-109775445D01*
X47068160Y-109756009D01*
X47061764Y-109734928D01*
X47059000Y-109706860D01*
X47059000Y-109243140D01*
X47061764Y-109215072D01*
X47068160Y-109193991D01*
X47078548Y-109174555D01*
X47092524Y-109157524D01*
X47109555Y-109143548D01*
X47128991Y-109133160D01*
X47150072Y-109126764D01*
X47178140Y-109124000D01*
X48991860Y-109124000D01*
X49019928Y-109126764D01*
G37*
G36*
X53969928Y-109126764D02*
G01*
X53991009Y-109133160D01*
X54010445Y-109143548D01*
X54027476Y-109157524D01*
X54041452Y-109174555D01*
X54051840Y-109193991D01*
X54058236Y-109215072D01*
X54061000Y-109243140D01*
X54061000Y-109706860D01*
X54058236Y-109734928D01*
X54051840Y-109756009D01*
X54041452Y-109775445D01*
X54027476Y-109792476D01*
X54010445Y-109806452D01*
X53991009Y-109816840D01*
X53969928Y-109823236D01*
X53941860Y-109826000D01*
X52128140Y-109826000D01*
X52100072Y-109823236D01*
X52078991Y-109816840D01*
X52059555Y-109806452D01*
X52042524Y-109792476D01*
X52028548Y-109775445D01*
X52018160Y-109756009D01*
X52011764Y-109734928D01*
X52009000Y-109706860D01*
X52009000Y-109243140D01*
X52011764Y-109215072D01*
X52018160Y-109193991D01*
X52028548Y-109174555D01*
X52042524Y-109157524D01*
X52059555Y-109143548D01*
X52078991Y-109133160D01*
X52100072Y-109126764D01*
X52128140Y-109124000D01*
X53941860Y-109124000D01*
X53969928Y-109126764D01*
G37*
G36*
X140284468Y-108686065D02*
G01*
X140323138Y-108697796D01*
X140358777Y-108716846D01*
X140390017Y-108742483D01*
X140415654Y-108773723D01*
X140434704Y-108809362D01*
X140446435Y-108848032D01*
X140451000Y-108894388D01*
X140451000Y-109545612D01*
X140446435Y-109591968D01*
X140434704Y-109630638D01*
X140415654Y-109666277D01*
X140390017Y-109697517D01*
X140358777Y-109723154D01*
X140323138Y-109742204D01*
X140284468Y-109753935D01*
X140238112Y-109758500D01*
X139161888Y-109758500D01*
X139115532Y-109753935D01*
X139076862Y-109742204D01*
X139041223Y-109723154D01*
X139009983Y-109697517D01*
X138984346Y-109666277D01*
X138965296Y-109630638D01*
X138953565Y-109591968D01*
X138949000Y-109545612D01*
X138949000Y-108894388D01*
X138953565Y-108848032D01*
X138965296Y-108809362D01*
X138984346Y-108773723D01*
X139009983Y-108742483D01*
X139041223Y-108716846D01*
X139076862Y-108697796D01*
X139115532Y-108686065D01*
X139161888Y-108681500D01*
X140238112Y-108681500D01*
X140284468Y-108686065D01*
G37*
G36*
X92024468Y-108686065D02*
G01*
X92063138Y-108697796D01*
X92098777Y-108716846D01*
X92130017Y-108742483D01*
X92155654Y-108773723D01*
X92174704Y-108809362D01*
X92186435Y-108848032D01*
X92191000Y-108894388D01*
X92191000Y-109545612D01*
X92186435Y-109591968D01*
X92174704Y-109630638D01*
X92155654Y-109666277D01*
X92130017Y-109697517D01*
X92098777Y-109723154D01*
X92063138Y-109742204D01*
X92024468Y-109753935D01*
X91978112Y-109758500D01*
X90901888Y-109758500D01*
X90855532Y-109753935D01*
X90816862Y-109742204D01*
X90781223Y-109723154D01*
X90749983Y-109697517D01*
X90724346Y-109666277D01*
X90705296Y-109630638D01*
X90693565Y-109591968D01*
X90689000Y-109545612D01*
X90689000Y-108894388D01*
X90693565Y-108848032D01*
X90705296Y-108809362D01*
X90724346Y-108773723D01*
X90749983Y-108742483D01*
X90781223Y-108716846D01*
X90816862Y-108697796D01*
X90855532Y-108686065D01*
X90901888Y-108681500D01*
X91978112Y-108681500D01*
X92024468Y-108686065D01*
G37*
G36*
X67894468Y-108686065D02*
G01*
X67933138Y-108697796D01*
X67968777Y-108716846D01*
X68000017Y-108742483D01*
X68025654Y-108773723D01*
X68044704Y-108809362D01*
X68056435Y-108848032D01*
X68061000Y-108894388D01*
X68061000Y-109545612D01*
X68056435Y-109591968D01*
X68044704Y-109630638D01*
X68025654Y-109666277D01*
X68000017Y-109697517D01*
X67968777Y-109723154D01*
X67933138Y-109742204D01*
X67894468Y-109753935D01*
X67848112Y-109758500D01*
X66771888Y-109758500D01*
X66725532Y-109753935D01*
X66686862Y-109742204D01*
X66651223Y-109723154D01*
X66619983Y-109697517D01*
X66594346Y-109666277D01*
X66575296Y-109630638D01*
X66563565Y-109591968D01*
X66559000Y-109545612D01*
X66559000Y-108894388D01*
X66563565Y-108848032D01*
X66575296Y-108809362D01*
X66594346Y-108773723D01*
X66619983Y-108742483D01*
X66651223Y-108716846D01*
X66686862Y-108697796D01*
X66725532Y-108686065D01*
X66771888Y-108681500D01*
X67848112Y-108681500D01*
X67894468Y-108686065D01*
G37*
G36*
X51624336Y-106022733D02*
G01*
X51654883Y-106031999D01*
X51683033Y-106047046D01*
X51707706Y-106067294D01*
X51727954Y-106091967D01*
X51743001Y-106120117D01*
X51752267Y-106150664D01*
X51756000Y-106188567D01*
X51756000Y-108951433D01*
X51752267Y-108989336D01*
X51743001Y-109019883D01*
X51727954Y-109048033D01*
X51707706Y-109072706D01*
X51683033Y-109092954D01*
X51654883Y-109108001D01*
X51624336Y-109117267D01*
X51586433Y-109121000D01*
X49533567Y-109121000D01*
X49495664Y-109117267D01*
X49465117Y-109108001D01*
X49436967Y-109092954D01*
X49412294Y-109072706D01*
X49392046Y-109048033D01*
X49376999Y-109019883D01*
X49367733Y-108989336D01*
X49364000Y-108951433D01*
X49364000Y-106188567D01*
X49367733Y-106150664D01*
X49376999Y-106120117D01*
X49392046Y-106091967D01*
X49412294Y-106067294D01*
X49436967Y-106047046D01*
X49465117Y-106031999D01*
X49495664Y-106022733D01*
X49533567Y-106019000D01*
X51586433Y-106019000D01*
X51624336Y-106022733D01*
G37*
G36*
X102469928Y-108236764D02*
G01*
X102491009Y-108243160D01*
X102510445Y-108253548D01*
X102527476Y-108267524D01*
X102541452Y-108284555D01*
X102551840Y-108303991D01*
X102558236Y-108325072D01*
X102561000Y-108353140D01*
X102561000Y-108816860D01*
X102558236Y-108844928D01*
X102551840Y-108866009D01*
X102541452Y-108885445D01*
X102527476Y-108902476D01*
X102510445Y-108916452D01*
X102491009Y-108926840D01*
X102469928Y-108933236D01*
X102441860Y-108936000D01*
X100628140Y-108936000D01*
X100600072Y-108933236D01*
X100578991Y-108926840D01*
X100559555Y-108916452D01*
X100542524Y-108902476D01*
X100528548Y-108885445D01*
X100518160Y-108866009D01*
X100511764Y-108844928D01*
X100509000Y-108816860D01*
X100509000Y-108353140D01*
X100511764Y-108325072D01*
X100518160Y-108303991D01*
X100528548Y-108284555D01*
X100542524Y-108267524D01*
X100559555Y-108253548D01*
X100578991Y-108243160D01*
X100600072Y-108236764D01*
X100628140Y-108234000D01*
X102441860Y-108234000D01*
X102469928Y-108236764D01*
G37*
G36*
X73389928Y-108236764D02*
G01*
X73411009Y-108243160D01*
X73430445Y-108253548D01*
X73447476Y-108267524D01*
X73461452Y-108284555D01*
X73471840Y-108303991D01*
X73478236Y-108325072D01*
X73481000Y-108353140D01*
X73481000Y-108816860D01*
X73478236Y-108844928D01*
X73471840Y-108866009D01*
X73461452Y-108885445D01*
X73447476Y-108902476D01*
X73430445Y-108916452D01*
X73411009Y-108926840D01*
X73389928Y-108933236D01*
X73361860Y-108936000D01*
X71548140Y-108936000D01*
X71520072Y-108933236D01*
X71498991Y-108926840D01*
X71479555Y-108916452D01*
X71462524Y-108902476D01*
X71448548Y-108885445D01*
X71438160Y-108866009D01*
X71431764Y-108844928D01*
X71429000Y-108816860D01*
X71429000Y-108353140D01*
X71431764Y-108325072D01*
X71438160Y-108303991D01*
X71448548Y-108284555D01*
X71462524Y-108267524D01*
X71479555Y-108253548D01*
X71498991Y-108243160D01*
X71520072Y-108236764D01*
X71548140Y-108234000D01*
X73361860Y-108234000D01*
X73389928Y-108236764D01*
G37*
G36*
X97519928Y-108236764D02*
G01*
X97541009Y-108243160D01*
X97560445Y-108253548D01*
X97577476Y-108267524D01*
X97591452Y-108284555D01*
X97601840Y-108303991D01*
X97608236Y-108325072D01*
X97611000Y-108353140D01*
X97611000Y-108816860D01*
X97608236Y-108844928D01*
X97601840Y-108866009D01*
X97591452Y-108885445D01*
X97577476Y-108902476D01*
X97560445Y-108916452D01*
X97541009Y-108926840D01*
X97519928Y-108933236D01*
X97491860Y-108936000D01*
X95678140Y-108936000D01*
X95650072Y-108933236D01*
X95628991Y-108926840D01*
X95609555Y-108916452D01*
X95592524Y-108902476D01*
X95578548Y-108885445D01*
X95568160Y-108866009D01*
X95561764Y-108844928D01*
X95559000Y-108816860D01*
X95559000Y-108353140D01*
X95561764Y-108325072D01*
X95568160Y-108303991D01*
X95578548Y-108284555D01*
X95592524Y-108267524D01*
X95609555Y-108253548D01*
X95628991Y-108243160D01*
X95650072Y-108236764D01*
X95678140Y-108234000D01*
X97491860Y-108234000D01*
X97519928Y-108236764D01*
G37*
G36*
X78339928Y-108236764D02*
G01*
X78361009Y-108243160D01*
X78380445Y-108253548D01*
X78397476Y-108267524D01*
X78411452Y-108284555D01*
X78421840Y-108303991D01*
X78428236Y-108325072D01*
X78431000Y-108353140D01*
X78431000Y-108816860D01*
X78428236Y-108844928D01*
X78421840Y-108866009D01*
X78411452Y-108885445D01*
X78397476Y-108902476D01*
X78380445Y-108916452D01*
X78361009Y-108926840D01*
X78339928Y-108933236D01*
X78311860Y-108936000D01*
X76498140Y-108936000D01*
X76470072Y-108933236D01*
X76448991Y-108926840D01*
X76429555Y-108916452D01*
X76412524Y-108902476D01*
X76398548Y-108885445D01*
X76388160Y-108866009D01*
X76381764Y-108844928D01*
X76379000Y-108816860D01*
X76379000Y-108353140D01*
X76381764Y-108325072D01*
X76388160Y-108303991D01*
X76398548Y-108284555D01*
X76412524Y-108267524D01*
X76429555Y-108253548D01*
X76448991Y-108243160D01*
X76470072Y-108236764D01*
X76498140Y-108234000D01*
X78311860Y-108234000D01*
X78339928Y-108236764D01*
G37*
G36*
X49019928Y-107856764D02*
G01*
X49041009Y-107863160D01*
X49060445Y-107873548D01*
X49077476Y-107887524D01*
X49091452Y-107904555D01*
X49101840Y-107923991D01*
X49108236Y-107945072D01*
X49111000Y-107973140D01*
X49111000Y-108436860D01*
X49108236Y-108464928D01*
X49101840Y-108486009D01*
X49091452Y-108505445D01*
X49077476Y-108522476D01*
X49060445Y-108536452D01*
X49041009Y-108546840D01*
X49019928Y-108553236D01*
X48991860Y-108556000D01*
X47178140Y-108556000D01*
X47150072Y-108553236D01*
X47128991Y-108546840D01*
X47109555Y-108536452D01*
X47092524Y-108522476D01*
X47078548Y-108505445D01*
X47068160Y-108486009D01*
X47061764Y-108464928D01*
X47059000Y-108436860D01*
X47059000Y-107973140D01*
X47061764Y-107945072D01*
X47068160Y-107923991D01*
X47078548Y-107904555D01*
X47092524Y-107887524D01*
X47109555Y-107873548D01*
X47128991Y-107863160D01*
X47150072Y-107856764D01*
X47178140Y-107854000D01*
X48991860Y-107854000D01*
X49019928Y-107856764D01*
G37*
G36*
X53969928Y-107856764D02*
G01*
X53991009Y-107863160D01*
X54010445Y-107873548D01*
X54027476Y-107887524D01*
X54041452Y-107904555D01*
X54051840Y-107923991D01*
X54058236Y-107945072D01*
X54061000Y-107973140D01*
X54061000Y-108436860D01*
X54058236Y-108464928D01*
X54051840Y-108486009D01*
X54041452Y-108505445D01*
X54027476Y-108522476D01*
X54010445Y-108536452D01*
X53991009Y-108546840D01*
X53969928Y-108553236D01*
X53941860Y-108556000D01*
X52128140Y-108556000D01*
X52100072Y-108553236D01*
X52078991Y-108546840D01*
X52059555Y-108536452D01*
X52042524Y-108522476D01*
X52028548Y-108505445D01*
X52018160Y-108486009D01*
X52011764Y-108464928D01*
X52009000Y-108436860D01*
X52009000Y-107973140D01*
X52011764Y-107945072D01*
X52018160Y-107923991D01*
X52028548Y-107904555D01*
X52042524Y-107887524D01*
X52059555Y-107873548D01*
X52078991Y-107863160D01*
X52100072Y-107856764D01*
X52128140Y-107854000D01*
X53941860Y-107854000D01*
X53969928Y-107856764D01*
G37*
G36*
X83134468Y-107416065D02*
G01*
X83173138Y-107427796D01*
X83208777Y-107446846D01*
X83240017Y-107472483D01*
X83265654Y-107503723D01*
X83284704Y-107539362D01*
X83296435Y-107578032D01*
X83301000Y-107624388D01*
X83301000Y-108275612D01*
X83296435Y-108321968D01*
X83284704Y-108360638D01*
X83265654Y-108396277D01*
X83240017Y-108427517D01*
X83208777Y-108453154D01*
X83173138Y-108472204D01*
X83134468Y-108483935D01*
X83088112Y-108488500D01*
X82011888Y-108488500D01*
X81965532Y-108483935D01*
X81926862Y-108472204D01*
X81891223Y-108453154D01*
X81859983Y-108427517D01*
X81834346Y-108396277D01*
X81815296Y-108360638D01*
X81803565Y-108321968D01*
X81799000Y-108275612D01*
X81799000Y-107624388D01*
X81803565Y-107578032D01*
X81815296Y-107539362D01*
X81834346Y-107503723D01*
X81859983Y-107472483D01*
X81891223Y-107446846D01*
X81926862Y-107427796D01*
X81965532Y-107416065D01*
X82011888Y-107411500D01*
X83088112Y-107411500D01*
X83134468Y-107416065D01*
G37*
G36*
X102469928Y-106966764D02*
G01*
X102491009Y-106973160D01*
X102510445Y-106983548D01*
X102527476Y-106997524D01*
X102541452Y-107014555D01*
X102551840Y-107033991D01*
X102558236Y-107055072D01*
X102561000Y-107083140D01*
X102561000Y-107546860D01*
X102558236Y-107574928D01*
X102551840Y-107596009D01*
X102541452Y-107615445D01*
X102527476Y-107632476D01*
X102510445Y-107646452D01*
X102491009Y-107656840D01*
X102469928Y-107663236D01*
X102441860Y-107666000D01*
X100628140Y-107666000D01*
X100600072Y-107663236D01*
X100578991Y-107656840D01*
X100559555Y-107646452D01*
X100542524Y-107632476D01*
X100528548Y-107615445D01*
X100518160Y-107596009D01*
X100511764Y-107574928D01*
X100509000Y-107546860D01*
X100509000Y-107083140D01*
X100511764Y-107055072D01*
X100518160Y-107033991D01*
X100528548Y-107014555D01*
X100542524Y-106997524D01*
X100559555Y-106983548D01*
X100578991Y-106973160D01*
X100600072Y-106966764D01*
X100628140Y-106964000D01*
X102441860Y-106964000D01*
X102469928Y-106966764D01*
G37*
G36*
X97519928Y-106966764D02*
G01*
X97541009Y-106973160D01*
X97560445Y-106983548D01*
X97577476Y-106997524D01*
X97591452Y-107014555D01*
X97601840Y-107033991D01*
X97608236Y-107055072D01*
X97611000Y-107083140D01*
X97611000Y-107546860D01*
X97608236Y-107574928D01*
X97601840Y-107596009D01*
X97591452Y-107615445D01*
X97577476Y-107632476D01*
X97560445Y-107646452D01*
X97541009Y-107656840D01*
X97519928Y-107663236D01*
X97491860Y-107666000D01*
X95678140Y-107666000D01*
X95650072Y-107663236D01*
X95628991Y-107656840D01*
X95609555Y-107646452D01*
X95592524Y-107632476D01*
X95578548Y-107615445D01*
X95568160Y-107596009D01*
X95561764Y-107574928D01*
X95559000Y-107546860D01*
X95559000Y-107083140D01*
X95561764Y-107055072D01*
X95568160Y-107033991D01*
X95578548Y-107014555D01*
X95592524Y-106997524D01*
X95609555Y-106983548D01*
X95628991Y-106973160D01*
X95650072Y-106966764D01*
X95678140Y-106964000D01*
X97491860Y-106964000D01*
X97519928Y-106966764D01*
G37*
G36*
X78339928Y-106966764D02*
G01*
X78361009Y-106973160D01*
X78380445Y-106983548D01*
X78397476Y-106997524D01*
X78411452Y-107014555D01*
X78421840Y-107033991D01*
X78428236Y-107055072D01*
X78431000Y-107083140D01*
X78431000Y-107546860D01*
X78428236Y-107574928D01*
X78421840Y-107596009D01*
X78411452Y-107615445D01*
X78397476Y-107632476D01*
X78380445Y-107646452D01*
X78361009Y-107656840D01*
X78339928Y-107663236D01*
X78311860Y-107666000D01*
X76498140Y-107666000D01*
X76470072Y-107663236D01*
X76448991Y-107656840D01*
X76429555Y-107646452D01*
X76412524Y-107632476D01*
X76398548Y-107615445D01*
X76388160Y-107596009D01*
X76381764Y-107574928D01*
X76379000Y-107546860D01*
X76379000Y-107083140D01*
X76381764Y-107055072D01*
X76388160Y-107033991D01*
X76398548Y-107014555D01*
X76412524Y-106997524D01*
X76429555Y-106983548D01*
X76448991Y-106973160D01*
X76470072Y-106966764D01*
X76498140Y-106964000D01*
X78311860Y-106964000D01*
X78339928Y-106966764D01*
G37*
G36*
X73389928Y-106966764D02*
G01*
X73411009Y-106973160D01*
X73430445Y-106983548D01*
X73447476Y-106997524D01*
X73461452Y-107014555D01*
X73471840Y-107033991D01*
X73478236Y-107055072D01*
X73481000Y-107083140D01*
X73481000Y-107546860D01*
X73478236Y-107574928D01*
X73471840Y-107596009D01*
X73461452Y-107615445D01*
X73447476Y-107632476D01*
X73430445Y-107646452D01*
X73411009Y-107656840D01*
X73389928Y-107663236D01*
X73361860Y-107666000D01*
X71548140Y-107666000D01*
X71520072Y-107663236D01*
X71498991Y-107656840D01*
X71479555Y-107646452D01*
X71462524Y-107632476D01*
X71448548Y-107615445D01*
X71438160Y-107596009D01*
X71431764Y-107574928D01*
X71429000Y-107546860D01*
X71429000Y-107083140D01*
X71431764Y-107055072D01*
X71438160Y-107033991D01*
X71448548Y-107014555D01*
X71462524Y-106997524D01*
X71479555Y-106983548D01*
X71498991Y-106973160D01*
X71520072Y-106966764D01*
X71548140Y-106964000D01*
X73361860Y-106964000D01*
X73389928Y-106966764D01*
G37*
G36*
X63871968Y-105933565D02*
G01*
X63910638Y-105945296D01*
X63946277Y-105964346D01*
X63977517Y-105989983D01*
X64003154Y-106021223D01*
X64022204Y-106056862D01*
X64033935Y-106095532D01*
X64038500Y-106141888D01*
X64038500Y-107218112D01*
X64033935Y-107264468D01*
X64022204Y-107303138D01*
X64003154Y-107338777D01*
X63977517Y-107370017D01*
X63946277Y-107395654D01*
X63910638Y-107414704D01*
X63871968Y-107426435D01*
X63825612Y-107431000D01*
X63174388Y-107431000D01*
X63128032Y-107426435D01*
X63089362Y-107414704D01*
X63053723Y-107395654D01*
X63022483Y-107370017D01*
X62996846Y-107338777D01*
X62977796Y-107303138D01*
X62966065Y-107264468D01*
X62961500Y-107218112D01*
X62961500Y-106141888D01*
X62966065Y-106095532D01*
X62977796Y-106056862D01*
X62996846Y-106021223D01*
X63022483Y-105989983D01*
X63053723Y-105964346D01*
X63089362Y-105945296D01*
X63128032Y-105933565D01*
X63174388Y-105929000D01*
X63825612Y-105929000D01*
X63871968Y-105933565D01*
G37*
G36*
X61996968Y-105933565D02*
G01*
X62035638Y-105945296D01*
X62071277Y-105964346D01*
X62102517Y-105989983D01*
X62128154Y-106021223D01*
X62147204Y-106056862D01*
X62158935Y-106095532D01*
X62163500Y-106141888D01*
X62163500Y-107218112D01*
X62158935Y-107264468D01*
X62147204Y-107303138D01*
X62128154Y-107338777D01*
X62102517Y-107370017D01*
X62071277Y-107395654D01*
X62035638Y-107414704D01*
X61996968Y-107426435D01*
X61950612Y-107431000D01*
X61299388Y-107431000D01*
X61253032Y-107426435D01*
X61214362Y-107414704D01*
X61178723Y-107395654D01*
X61147483Y-107370017D01*
X61121846Y-107338777D01*
X61102796Y-107303138D01*
X61091065Y-107264468D01*
X61086500Y-107218112D01*
X61086500Y-106141888D01*
X61091065Y-106095532D01*
X61102796Y-106056862D01*
X61121846Y-106021223D01*
X61147483Y-105989983D01*
X61178723Y-105964346D01*
X61214362Y-105945296D01*
X61253032Y-105933565D01*
X61299388Y-105929000D01*
X61950612Y-105929000D01*
X61996968Y-105933565D01*
G37*
G36*
X121061000Y-107341000D02*
G01*
X119659000Y-107341000D01*
X119659000Y-105689000D01*
X121061000Y-105689000D01*
X121061000Y-107341000D01*
G37*
G36*
X116561000Y-107341000D02*
G01*
X115159000Y-107341000D01*
X115159000Y-105689000D01*
X116561000Y-105689000D01*
X116561000Y-107341000D01*
G37*
G36*
X49019928Y-106586764D02*
G01*
X49041009Y-106593160D01*
X49060445Y-106603548D01*
X49077476Y-106617524D01*
X49091452Y-106634555D01*
X49101840Y-106653991D01*
X49108236Y-106675072D01*
X49111000Y-106703140D01*
X49111000Y-107166860D01*
X49108236Y-107194928D01*
X49101840Y-107216009D01*
X49091452Y-107235445D01*
X49077476Y-107252476D01*
X49060445Y-107266452D01*
X49041009Y-107276840D01*
X49019928Y-107283236D01*
X48991860Y-107286000D01*
X47178140Y-107286000D01*
X47150072Y-107283236D01*
X47128991Y-107276840D01*
X47109555Y-107266452D01*
X47092524Y-107252476D01*
X47078548Y-107235445D01*
X47068160Y-107216009D01*
X47061764Y-107194928D01*
X47059000Y-107166860D01*
X47059000Y-106703140D01*
X47061764Y-106675072D01*
X47068160Y-106653991D01*
X47078548Y-106634555D01*
X47092524Y-106617524D01*
X47109555Y-106603548D01*
X47128991Y-106593160D01*
X47150072Y-106586764D01*
X47178140Y-106584000D01*
X48991860Y-106584000D01*
X49019928Y-106586764D01*
G37*
G36*
X53969928Y-106586764D02*
G01*
X53991009Y-106593160D01*
X54010445Y-106603548D01*
X54027476Y-106617524D01*
X54041452Y-106634555D01*
X54051840Y-106653991D01*
X54058236Y-106675072D01*
X54061000Y-106703140D01*
X54061000Y-107166860D01*
X54058236Y-107194928D01*
X54051840Y-107216009D01*
X54041452Y-107235445D01*
X54027476Y-107252476D01*
X54010445Y-107266452D01*
X53991009Y-107276840D01*
X53969928Y-107283236D01*
X53941860Y-107286000D01*
X52128140Y-107286000D01*
X52100072Y-107283236D01*
X52078991Y-107276840D01*
X52059555Y-107266452D01*
X52042524Y-107252476D01*
X52028548Y-107235445D01*
X52018160Y-107216009D01*
X52011764Y-107194928D01*
X52009000Y-107166860D01*
X52009000Y-106703140D01*
X52011764Y-106675072D01*
X52018160Y-106653991D01*
X52028548Y-106634555D01*
X52042524Y-106617524D01*
X52059555Y-106603548D01*
X52078991Y-106593160D01*
X52100072Y-106586764D01*
X52128140Y-106584000D01*
X53941860Y-106584000D01*
X53969928Y-106586764D01*
G37*
G36*
X43764468Y-106146065D02*
G01*
X43803138Y-106157796D01*
X43838777Y-106176846D01*
X43870017Y-106202483D01*
X43895654Y-106233723D01*
X43914704Y-106269362D01*
X43926435Y-106308032D01*
X43931000Y-106354388D01*
X43931000Y-107005612D01*
X43926435Y-107051968D01*
X43914704Y-107090638D01*
X43895654Y-107126277D01*
X43870017Y-107157517D01*
X43838777Y-107183154D01*
X43803138Y-107202204D01*
X43764468Y-107213935D01*
X43718112Y-107218500D01*
X42641888Y-107218500D01*
X42595532Y-107213935D01*
X42556862Y-107202204D01*
X42521223Y-107183154D01*
X42489983Y-107157517D01*
X42464346Y-107126277D01*
X42445296Y-107090638D01*
X42433565Y-107051968D01*
X42429000Y-107005612D01*
X42429000Y-106354388D01*
X42433565Y-106308032D01*
X42445296Y-106269362D01*
X42464346Y-106233723D01*
X42489983Y-106202483D01*
X42521223Y-106176846D01*
X42556862Y-106157796D01*
X42595532Y-106146065D01*
X42641888Y-106141500D01*
X43718112Y-106141500D01*
X43764468Y-106146065D01*
G37*
G36*
X83134468Y-105541065D02*
G01*
X83173138Y-105552796D01*
X83208777Y-105571846D01*
X83240017Y-105597483D01*
X83265654Y-105628723D01*
X83284704Y-105664362D01*
X83296435Y-105703032D01*
X83301000Y-105749388D01*
X83301000Y-106400612D01*
X83296435Y-106446968D01*
X83284704Y-106485638D01*
X83265654Y-106521277D01*
X83240017Y-106552517D01*
X83208777Y-106578154D01*
X83173138Y-106597204D01*
X83134468Y-106608935D01*
X83088112Y-106613500D01*
X82011888Y-106613500D01*
X81965532Y-106608935D01*
X81926862Y-106597204D01*
X81891223Y-106578154D01*
X81859983Y-106552517D01*
X81834346Y-106521277D01*
X81815296Y-106485638D01*
X81803565Y-106446968D01*
X81799000Y-106400612D01*
X81799000Y-105749388D01*
X81803565Y-105703032D01*
X81815296Y-105664362D01*
X81834346Y-105628723D01*
X81859983Y-105597483D01*
X81891223Y-105571846D01*
X81926862Y-105552796D01*
X81965532Y-105541065D01*
X82011888Y-105536500D01*
X83088112Y-105536500D01*
X83134468Y-105541065D01*
G37*
G36*
X57069468Y-105481065D02*
G01*
X57108138Y-105492796D01*
X57143777Y-105511846D01*
X57175017Y-105537483D01*
X57200654Y-105568723D01*
X57219704Y-105604362D01*
X57231435Y-105643032D01*
X57236000Y-105689388D01*
X57236000Y-106340612D01*
X57231435Y-106386968D01*
X57219704Y-106425638D01*
X57200654Y-106461277D01*
X57175017Y-106492517D01*
X57143777Y-106518154D01*
X57108138Y-106537204D01*
X57069468Y-106548935D01*
X57023112Y-106553500D01*
X55946888Y-106553500D01*
X55900532Y-106548935D01*
X55861862Y-106537204D01*
X55826223Y-106518154D01*
X55794983Y-106492517D01*
X55769346Y-106461277D01*
X55750296Y-106425638D01*
X55738565Y-106386968D01*
X55734000Y-106340612D01*
X55734000Y-105689388D01*
X55738565Y-105643032D01*
X55750296Y-105604362D01*
X55769346Y-105568723D01*
X55794983Y-105537483D01*
X55826223Y-105511846D01*
X55861862Y-105492796D01*
X55900532Y-105481065D01*
X55946888Y-105476500D01*
X57023112Y-105476500D01*
X57069468Y-105481065D01*
G37*
G36*
X53969928Y-105316764D02*
G01*
X53991009Y-105323160D01*
X54010445Y-105333548D01*
X54027476Y-105347524D01*
X54041452Y-105364555D01*
X54051840Y-105383991D01*
X54058236Y-105405072D01*
X54061000Y-105433140D01*
X54061000Y-105896860D01*
X54058236Y-105924928D01*
X54051840Y-105946009D01*
X54041452Y-105965445D01*
X54027476Y-105982476D01*
X54010445Y-105996452D01*
X53991009Y-106006840D01*
X53969928Y-106013236D01*
X53941860Y-106016000D01*
X52128140Y-106016000D01*
X52100072Y-106013236D01*
X52078991Y-106006840D01*
X52059555Y-105996452D01*
X52042524Y-105982476D01*
X52028548Y-105965445D01*
X52018160Y-105946009D01*
X52011764Y-105924928D01*
X52009000Y-105896860D01*
X52009000Y-105433140D01*
X52011764Y-105405072D01*
X52018160Y-105383991D01*
X52028548Y-105364555D01*
X52042524Y-105347524D01*
X52059555Y-105333548D01*
X52078991Y-105323160D01*
X52100072Y-105316764D01*
X52128140Y-105314000D01*
X53941860Y-105314000D01*
X53969928Y-105316764D01*
G37*
G36*
X49019928Y-105316764D02*
G01*
X49041009Y-105323160D01*
X49060445Y-105333548D01*
X49077476Y-105347524D01*
X49091452Y-105364555D01*
X49101840Y-105383991D01*
X49108236Y-105405072D01*
X49111000Y-105433140D01*
X49111000Y-105896860D01*
X49108236Y-105924928D01*
X49101840Y-105946009D01*
X49091452Y-105965445D01*
X49077476Y-105982476D01*
X49060445Y-105996452D01*
X49041009Y-106006840D01*
X49019928Y-106013236D01*
X48991860Y-106016000D01*
X47178140Y-106016000D01*
X47150072Y-106013236D01*
X47128991Y-106006840D01*
X47109555Y-105996452D01*
X47092524Y-105982476D01*
X47078548Y-105965445D01*
X47068160Y-105946009D01*
X47061764Y-105924928D01*
X47059000Y-105896860D01*
X47059000Y-105433140D01*
X47061764Y-105405072D01*
X47068160Y-105383991D01*
X47078548Y-105364555D01*
X47092524Y-105347524D01*
X47109555Y-105333548D01*
X47128991Y-105323160D01*
X47150072Y-105316764D01*
X47178140Y-105314000D01*
X48991860Y-105314000D01*
X49019928Y-105316764D01*
G37*
G36*
X140284468Y-104876065D02*
G01*
X140323138Y-104887796D01*
X140358777Y-104906846D01*
X140390017Y-104932483D01*
X140415654Y-104963723D01*
X140434704Y-104999362D01*
X140446435Y-105038032D01*
X140451000Y-105084388D01*
X140451000Y-105735612D01*
X140446435Y-105781968D01*
X140434704Y-105820638D01*
X140415654Y-105856277D01*
X140390017Y-105887517D01*
X140358777Y-105913154D01*
X140323138Y-105932204D01*
X140284468Y-105943935D01*
X140238112Y-105948500D01*
X139161888Y-105948500D01*
X139115532Y-105943935D01*
X139076862Y-105932204D01*
X139041223Y-105913154D01*
X139009983Y-105887517D01*
X138984346Y-105856277D01*
X138965296Y-105820638D01*
X138953565Y-105781968D01*
X138949000Y-105735612D01*
X138949000Y-105084388D01*
X138953565Y-105038032D01*
X138965296Y-104999362D01*
X138984346Y-104963723D01*
X139009983Y-104932483D01*
X139041223Y-104906846D01*
X139076862Y-104887796D01*
X139115532Y-104876065D01*
X139161888Y-104871500D01*
X140238112Y-104871500D01*
X140284468Y-104876065D01*
G37*
G36*
X43764468Y-104271065D02*
G01*
X43803138Y-104282796D01*
X43838777Y-104301846D01*
X43870017Y-104327483D01*
X43895654Y-104358723D01*
X43914704Y-104394362D01*
X43926435Y-104433032D01*
X43931000Y-104479388D01*
X43931000Y-105130612D01*
X43926435Y-105176968D01*
X43914704Y-105215638D01*
X43895654Y-105251277D01*
X43870017Y-105282517D01*
X43838777Y-105308154D01*
X43803138Y-105327204D01*
X43764468Y-105338935D01*
X43718112Y-105343500D01*
X42641888Y-105343500D01*
X42595532Y-105338935D01*
X42556862Y-105327204D01*
X42521223Y-105308154D01*
X42489983Y-105282517D01*
X42464346Y-105251277D01*
X42445296Y-105215638D01*
X42433565Y-105176968D01*
X42429000Y-105130612D01*
X42429000Y-104479388D01*
X42433565Y-104433032D01*
X42445296Y-104394362D01*
X42464346Y-104358723D01*
X42489983Y-104327483D01*
X42521223Y-104301846D01*
X42556862Y-104282796D01*
X42595532Y-104271065D01*
X42641888Y-104266500D01*
X43718112Y-104266500D01*
X43764468Y-104271065D01*
G37*
G36*
X57069468Y-103606065D02*
G01*
X57108138Y-103617796D01*
X57143777Y-103636846D01*
X57175017Y-103662483D01*
X57200654Y-103693723D01*
X57219704Y-103729362D01*
X57231435Y-103768032D01*
X57236000Y-103814388D01*
X57236000Y-104465612D01*
X57231435Y-104511968D01*
X57219704Y-104550638D01*
X57200654Y-104586277D01*
X57175017Y-104617517D01*
X57143777Y-104643154D01*
X57108138Y-104662204D01*
X57069468Y-104673935D01*
X57023112Y-104678500D01*
X55946888Y-104678500D01*
X55900532Y-104673935D01*
X55861862Y-104662204D01*
X55826223Y-104643154D01*
X55794983Y-104617517D01*
X55769346Y-104586277D01*
X55750296Y-104550638D01*
X55738565Y-104511968D01*
X55734000Y-104465612D01*
X55734000Y-103814388D01*
X55738565Y-103768032D01*
X55750296Y-103729362D01*
X55769346Y-103693723D01*
X55794983Y-103662483D01*
X55826223Y-103636846D01*
X55861862Y-103617796D01*
X55900532Y-103606065D01*
X55946888Y-103601500D01*
X57023112Y-103601500D01*
X57069468Y-103606065D01*
G37*
G36*
X140284468Y-103001065D02*
G01*
X140323138Y-103012796D01*
X140358777Y-103031846D01*
X140390017Y-103057483D01*
X140415654Y-103088723D01*
X140434704Y-103124362D01*
X140446435Y-103163032D01*
X140451000Y-103209388D01*
X140451000Y-103860612D01*
X140446435Y-103906968D01*
X140434704Y-103945638D01*
X140415654Y-103981277D01*
X140390017Y-104012517D01*
X140358777Y-104038154D01*
X140323138Y-104057204D01*
X140284468Y-104068935D01*
X140238112Y-104073500D01*
X139161888Y-104073500D01*
X139115532Y-104068935D01*
X139076862Y-104057204D01*
X139041223Y-104038154D01*
X139009983Y-104012517D01*
X138984346Y-103981277D01*
X138965296Y-103945638D01*
X138953565Y-103906968D01*
X138949000Y-103860612D01*
X138949000Y-103209388D01*
X138953565Y-103163032D01*
X138965296Y-103124362D01*
X138984346Y-103088723D01*
X139009983Y-103057483D01*
X139041223Y-103031846D01*
X139076862Y-103012796D01*
X139115532Y-103001065D01*
X139161888Y-102996500D01*
X140238112Y-102996500D01*
X140284468Y-103001065D01*
G37*
G36*
X77841968Y-102123565D02*
G01*
X77880638Y-102135296D01*
X77916277Y-102154346D01*
X77947517Y-102179983D01*
X77973154Y-102211223D01*
X77992204Y-102246862D01*
X78003935Y-102285532D01*
X78008500Y-102331888D01*
X78008500Y-103408112D01*
X78003935Y-103454468D01*
X77992204Y-103493138D01*
X77973154Y-103528777D01*
X77947517Y-103560017D01*
X77916277Y-103585654D01*
X77880638Y-103604704D01*
X77841968Y-103616435D01*
X77795612Y-103621000D01*
X77144388Y-103621000D01*
X77098032Y-103616435D01*
X77059362Y-103604704D01*
X77023723Y-103585654D01*
X76992483Y-103560017D01*
X76966846Y-103528777D01*
X76947796Y-103493138D01*
X76936065Y-103454468D01*
X76931500Y-103408112D01*
X76931500Y-102331888D01*
X76936065Y-102285532D01*
X76947796Y-102246862D01*
X76966846Y-102211223D01*
X76992483Y-102179983D01*
X77023723Y-102154346D01*
X77059362Y-102135296D01*
X77098032Y-102123565D01*
X77144388Y-102119000D01*
X77795612Y-102119000D01*
X77841968Y-102123565D01*
G37*
G36*
X79716968Y-102123565D02*
G01*
X79755638Y-102135296D01*
X79791277Y-102154346D01*
X79822517Y-102179983D01*
X79848154Y-102211223D01*
X79867204Y-102246862D01*
X79878935Y-102285532D01*
X79883500Y-102331888D01*
X79883500Y-103408112D01*
X79878935Y-103454468D01*
X79867204Y-103493138D01*
X79848154Y-103528777D01*
X79822517Y-103560017D01*
X79791277Y-103585654D01*
X79755638Y-103604704D01*
X79716968Y-103616435D01*
X79670612Y-103621000D01*
X79019388Y-103621000D01*
X78973032Y-103616435D01*
X78934362Y-103604704D01*
X78898723Y-103585654D01*
X78867483Y-103560017D01*
X78841846Y-103528777D01*
X78822796Y-103493138D01*
X78811065Y-103454468D01*
X78806500Y-103408112D01*
X78806500Y-102331888D01*
X78811065Y-102285532D01*
X78822796Y-102246862D01*
X78841846Y-102211223D01*
X78867483Y-102179983D01*
X78898723Y-102154346D01*
X78934362Y-102135296D01*
X78973032Y-102123565D01*
X79019388Y-102119000D01*
X79670612Y-102119000D01*
X79716968Y-102123565D01*
G37*
G36*
X98826968Y-102123565D02*
G01*
X98865638Y-102135296D01*
X98901277Y-102154346D01*
X98932517Y-102179983D01*
X98958154Y-102211223D01*
X98977204Y-102246862D01*
X98988935Y-102285532D01*
X98993500Y-102331888D01*
X98993500Y-103408112D01*
X98988935Y-103454468D01*
X98977204Y-103493138D01*
X98958154Y-103528777D01*
X98932517Y-103560017D01*
X98901277Y-103585654D01*
X98865638Y-103604704D01*
X98826968Y-103616435D01*
X98780612Y-103621000D01*
X98129388Y-103621000D01*
X98083032Y-103616435D01*
X98044362Y-103604704D01*
X98008723Y-103585654D01*
X97977483Y-103560017D01*
X97951846Y-103528777D01*
X97932796Y-103493138D01*
X97921065Y-103454468D01*
X97916500Y-103408112D01*
X97916500Y-102331888D01*
X97921065Y-102285532D01*
X97932796Y-102246862D01*
X97951846Y-102211223D01*
X97977483Y-102179983D01*
X98008723Y-102154346D01*
X98044362Y-102135296D01*
X98083032Y-102123565D01*
X98129388Y-102119000D01*
X98780612Y-102119000D01*
X98826968Y-102123565D01*
G37*
G36*
X100701968Y-102123565D02*
G01*
X100740638Y-102135296D01*
X100776277Y-102154346D01*
X100807517Y-102179983D01*
X100833154Y-102211223D01*
X100852204Y-102246862D01*
X100863935Y-102285532D01*
X100868500Y-102331888D01*
X100868500Y-103408112D01*
X100863935Y-103454468D01*
X100852204Y-103493138D01*
X100833154Y-103528777D01*
X100807517Y-103560017D01*
X100776277Y-103585654D01*
X100740638Y-103604704D01*
X100701968Y-103616435D01*
X100655612Y-103621000D01*
X100004388Y-103621000D01*
X99958032Y-103616435D01*
X99919362Y-103604704D01*
X99883723Y-103585654D01*
X99852483Y-103560017D01*
X99826846Y-103528777D01*
X99807796Y-103493138D01*
X99796065Y-103454468D01*
X99791500Y-103408112D01*
X99791500Y-102331888D01*
X99796065Y-102285532D01*
X99807796Y-102246862D01*
X99826846Y-102211223D01*
X99852483Y-102179983D01*
X99883723Y-102154346D01*
X99919362Y-102135296D01*
X99958032Y-102123565D01*
X100004388Y-102119000D01*
X100655612Y-102119000D01*
X100701968Y-102123565D01*
G37*
G36*
X125950721Y-95990174D02*
G01*
X126050995Y-96031709D01*
X126050996Y-96031710D01*
X126141242Y-96092010D01*
X126217990Y-96168758D01*
X126217991Y-96168760D01*
X126278291Y-96259005D01*
X126319826Y-96359279D01*
X126341000Y-96465730D01*
X126341000Y-96574270D01*
X126319826Y-96680721D01*
X126278291Y-96780995D01*
X126278290Y-96780996D01*
X126217990Y-96871242D01*
X126141242Y-96947990D01*
X126095812Y-96978345D01*
X126050995Y-97008291D01*
X125950721Y-97049826D01*
X125844270Y-97071000D01*
X125735730Y-97071000D01*
X125629279Y-97049826D01*
X125529005Y-97008291D01*
X125484188Y-96978345D01*
X125438758Y-96947990D01*
X125362010Y-96871242D01*
X125301710Y-96780996D01*
X125301709Y-96780995D01*
X125260174Y-96680721D01*
X125239000Y-96574270D01*
X125239000Y-96465730D01*
X125260174Y-96359279D01*
X125301709Y-96259005D01*
X125362009Y-96168760D01*
X125362010Y-96168758D01*
X125438758Y-96092010D01*
X125529004Y-96031710D01*
X125529005Y-96031709D01*
X125629279Y-95990174D01*
X125735730Y-95969000D01*
X125844270Y-95969000D01*
X125950721Y-95990174D01*
G37*
G36*
X129700721Y-95990174D02*
G01*
X129800995Y-96031709D01*
X129800996Y-96031710D01*
X129891242Y-96092010D01*
X129967990Y-96168758D01*
X129967991Y-96168760D01*
X130028291Y-96259005D01*
X130069826Y-96359279D01*
X130091000Y-96465730D01*
X130091000Y-96574270D01*
X130069826Y-96680721D01*
X130028291Y-96780995D01*
X130028290Y-96780996D01*
X129967990Y-96871242D01*
X129891242Y-96947990D01*
X129845812Y-96978345D01*
X129800995Y-97008291D01*
X129700721Y-97049826D01*
X129594270Y-97071000D01*
X129485730Y-97071000D01*
X129379279Y-97049826D01*
X129279005Y-97008291D01*
X129234188Y-96978345D01*
X129188758Y-96947990D01*
X129112010Y-96871242D01*
X129051710Y-96780996D01*
X129051709Y-96780995D01*
X129010174Y-96680721D01*
X128989000Y-96574270D01*
X128989000Y-96465730D01*
X129010174Y-96359279D01*
X129051709Y-96259005D01*
X129112009Y-96168760D01*
X129112010Y-96168758D01*
X129188758Y-96092010D01*
X129279004Y-96031710D01*
X129279005Y-96031709D01*
X129379279Y-95990174D01*
X129485730Y-95969000D01*
X129594270Y-95969000D01*
X129700721Y-95990174D01*
G37*
G36*
X133450721Y-95990174D02*
G01*
X133550995Y-96031709D01*
X133550996Y-96031710D01*
X133641242Y-96092010D01*
X133717990Y-96168758D01*
X133717991Y-96168760D01*
X133778291Y-96259005D01*
X133819826Y-96359279D01*
X133841000Y-96465730D01*
X133841000Y-96574270D01*
X133819826Y-96680721D01*
X133778291Y-96780995D01*
X133778290Y-96780996D01*
X133717990Y-96871242D01*
X133641242Y-96947990D01*
X133595812Y-96978345D01*
X133550995Y-97008291D01*
X133450721Y-97049826D01*
X133344270Y-97071000D01*
X133235730Y-97071000D01*
X133129279Y-97049826D01*
X133029005Y-97008291D01*
X132984188Y-96978345D01*
X132938758Y-96947990D01*
X132862010Y-96871242D01*
X132801710Y-96780996D01*
X132801709Y-96780995D01*
X132760174Y-96680721D01*
X132739000Y-96574270D01*
X132739000Y-96465730D01*
X132760174Y-96359279D01*
X132801709Y-96259005D01*
X132862009Y-96168760D01*
X132862010Y-96168758D01*
X132938758Y-96092010D01*
X133029004Y-96031710D01*
X133029005Y-96031709D01*
X133129279Y-95990174D01*
X133235730Y-95969000D01*
X133344270Y-95969000D01*
X133450721Y-95990174D01*
G37*
G36*
X55609928Y-92361764D02*
G01*
X55631009Y-92368160D01*
X55650445Y-92378548D01*
X55667476Y-92392524D01*
X55681452Y-92409555D01*
X55691840Y-92428991D01*
X55698236Y-92450072D01*
X55701000Y-92478140D01*
X55701000Y-92941860D01*
X55698236Y-92969928D01*
X55691840Y-92991009D01*
X55681452Y-93010445D01*
X55667476Y-93027476D01*
X55650445Y-93041452D01*
X55631009Y-93051840D01*
X55609928Y-93058236D01*
X55581860Y-93061000D01*
X53768140Y-93061000D01*
X53740072Y-93058236D01*
X53718991Y-93051840D01*
X53699555Y-93041452D01*
X53682524Y-93027476D01*
X53668548Y-93010445D01*
X53658160Y-92991009D01*
X53651764Y-92969928D01*
X53649000Y-92941860D01*
X53649000Y-92478140D01*
X53651764Y-92450072D01*
X53658160Y-92428991D01*
X53668548Y-92409555D01*
X53682524Y-92392524D01*
X53699555Y-92378548D01*
X53718991Y-92368160D01*
X53740072Y-92361764D01*
X53768140Y-92359000D01*
X55581860Y-92359000D01*
X55609928Y-92361764D01*
G37*
G36*
X60559928Y-92361764D02*
G01*
X60581009Y-92368160D01*
X60600445Y-92378548D01*
X60617476Y-92392524D01*
X60631452Y-92409555D01*
X60641840Y-92428991D01*
X60648236Y-92450072D01*
X60651000Y-92478140D01*
X60651000Y-92941860D01*
X60648236Y-92969928D01*
X60641840Y-92991009D01*
X60631452Y-93010445D01*
X60617476Y-93027476D01*
X60600445Y-93041452D01*
X60581009Y-93051840D01*
X60559928Y-93058236D01*
X60531860Y-93061000D01*
X58718140Y-93061000D01*
X58690072Y-93058236D01*
X58668991Y-93051840D01*
X58649555Y-93041452D01*
X58632524Y-93027476D01*
X58618548Y-93010445D01*
X58608160Y-92991009D01*
X58601764Y-92969928D01*
X58599000Y-92941860D01*
X58599000Y-92478140D01*
X58601764Y-92450072D01*
X58608160Y-92428991D01*
X58618548Y-92409555D01*
X58632524Y-92392524D01*
X58649555Y-92378548D01*
X58668991Y-92368160D01*
X58690072Y-92361764D01*
X58718140Y-92359000D01*
X60531860Y-92359000D01*
X60559928Y-92361764D01*
G37*
G36*
X49129928Y-92361764D02*
G01*
X49151009Y-92368160D01*
X49170445Y-92378548D01*
X49187476Y-92392524D01*
X49201452Y-92409555D01*
X49211840Y-92428991D01*
X49218236Y-92450072D01*
X49221000Y-92478140D01*
X49221000Y-92941860D01*
X49218236Y-92969928D01*
X49211840Y-92991009D01*
X49201452Y-93010445D01*
X49187476Y-93027476D01*
X49170445Y-93041452D01*
X49151009Y-93051840D01*
X49129928Y-93058236D01*
X49101860Y-93061000D01*
X47288140Y-93061000D01*
X47260072Y-93058236D01*
X47238991Y-93051840D01*
X47219555Y-93041452D01*
X47202524Y-93027476D01*
X47188548Y-93010445D01*
X47178160Y-92991009D01*
X47171764Y-92969928D01*
X47169000Y-92941860D01*
X47169000Y-92478140D01*
X47171764Y-92450072D01*
X47178160Y-92428991D01*
X47188548Y-92409555D01*
X47202524Y-92392524D01*
X47219555Y-92378548D01*
X47238991Y-92368160D01*
X47260072Y-92361764D01*
X47288140Y-92359000D01*
X49101860Y-92359000D01*
X49129928Y-92361764D01*
G37*
G36*
X91039928Y-92361764D02*
G01*
X91061009Y-92368160D01*
X91080445Y-92378548D01*
X91097476Y-92392524D01*
X91111452Y-92409555D01*
X91121840Y-92428991D01*
X91128236Y-92450072D01*
X91131000Y-92478140D01*
X91131000Y-92941860D01*
X91128236Y-92969928D01*
X91121840Y-92991009D01*
X91111452Y-93010445D01*
X91097476Y-93027476D01*
X91080445Y-93041452D01*
X91061009Y-93051840D01*
X91039928Y-93058236D01*
X91011860Y-93061000D01*
X89198140Y-93061000D01*
X89170072Y-93058236D01*
X89148991Y-93051840D01*
X89129555Y-93041452D01*
X89112524Y-93027476D01*
X89098548Y-93010445D01*
X89088160Y-92991009D01*
X89081764Y-92969928D01*
X89079000Y-92941860D01*
X89079000Y-92478140D01*
X89081764Y-92450072D01*
X89088160Y-92428991D01*
X89098548Y-92409555D01*
X89112524Y-92392524D01*
X89129555Y-92378548D01*
X89148991Y-92368160D01*
X89170072Y-92361764D01*
X89198140Y-92359000D01*
X91011860Y-92359000D01*
X91039928Y-92361764D01*
G37*
G36*
X80879928Y-92361764D02*
G01*
X80901009Y-92368160D01*
X80920445Y-92378548D01*
X80937476Y-92392524D01*
X80951452Y-92409555D01*
X80961840Y-92428991D01*
X80968236Y-92450072D01*
X80971000Y-92478140D01*
X80971000Y-92941860D01*
X80968236Y-92969928D01*
X80961840Y-92991009D01*
X80951452Y-93010445D01*
X80937476Y-93027476D01*
X80920445Y-93041452D01*
X80901009Y-93051840D01*
X80879928Y-93058236D01*
X80851860Y-93061000D01*
X79038140Y-93061000D01*
X79010072Y-93058236D01*
X78988991Y-93051840D01*
X78969555Y-93041452D01*
X78952524Y-93027476D01*
X78938548Y-93010445D01*
X78928160Y-92991009D01*
X78921764Y-92969928D01*
X78919000Y-92941860D01*
X78919000Y-92478140D01*
X78921764Y-92450072D01*
X78928160Y-92428991D01*
X78938548Y-92409555D01*
X78952524Y-92392524D01*
X78969555Y-92378548D01*
X78988991Y-92368160D01*
X79010072Y-92361764D01*
X79038140Y-92359000D01*
X80851860Y-92359000D01*
X80879928Y-92361764D01*
G37*
G36*
X75929928Y-92361764D02*
G01*
X75951009Y-92368160D01*
X75970445Y-92378548D01*
X75987476Y-92392524D01*
X76001452Y-92409555D01*
X76011840Y-92428991D01*
X76018236Y-92450072D01*
X76021000Y-92478140D01*
X76021000Y-92941860D01*
X76018236Y-92969928D01*
X76011840Y-92991009D01*
X76001452Y-93010445D01*
X75987476Y-93027476D01*
X75970445Y-93041452D01*
X75951009Y-93051840D01*
X75929928Y-93058236D01*
X75901860Y-93061000D01*
X74088140Y-93061000D01*
X74060072Y-93058236D01*
X74038991Y-93051840D01*
X74019555Y-93041452D01*
X74002524Y-93027476D01*
X73988548Y-93010445D01*
X73978160Y-92991009D01*
X73971764Y-92969928D01*
X73969000Y-92941860D01*
X73969000Y-92478140D01*
X73971764Y-92450072D01*
X73978160Y-92428991D01*
X73988548Y-92409555D01*
X74002524Y-92392524D01*
X74019555Y-92378548D01*
X74038991Y-92368160D01*
X74060072Y-92361764D01*
X74088140Y-92359000D01*
X75901860Y-92359000D01*
X75929928Y-92361764D01*
G37*
G36*
X70719928Y-92361764D02*
G01*
X70741009Y-92368160D01*
X70760445Y-92378548D01*
X70777476Y-92392524D01*
X70791452Y-92409555D01*
X70801840Y-92428991D01*
X70808236Y-92450072D01*
X70811000Y-92478140D01*
X70811000Y-92941860D01*
X70808236Y-92969928D01*
X70801840Y-92991009D01*
X70791452Y-93010445D01*
X70777476Y-93027476D01*
X70760445Y-93041452D01*
X70741009Y-93051840D01*
X70719928Y-93058236D01*
X70691860Y-93061000D01*
X68878140Y-93061000D01*
X68850072Y-93058236D01*
X68828991Y-93051840D01*
X68809555Y-93041452D01*
X68792524Y-93027476D01*
X68778548Y-93010445D01*
X68768160Y-92991009D01*
X68761764Y-92969928D01*
X68759000Y-92941860D01*
X68759000Y-92478140D01*
X68761764Y-92450072D01*
X68768160Y-92428991D01*
X68778548Y-92409555D01*
X68792524Y-92392524D01*
X68809555Y-92378548D01*
X68828991Y-92368160D01*
X68850072Y-92361764D01*
X68878140Y-92359000D01*
X70691860Y-92359000D01*
X70719928Y-92361764D01*
G37*
G36*
X44179928Y-92361764D02*
G01*
X44201009Y-92368160D01*
X44220445Y-92378548D01*
X44237476Y-92392524D01*
X44251452Y-92409555D01*
X44261840Y-92428991D01*
X44268236Y-92450072D01*
X44271000Y-92478140D01*
X44271000Y-92941860D01*
X44268236Y-92969928D01*
X44261840Y-92991009D01*
X44251452Y-93010445D01*
X44237476Y-93027476D01*
X44220445Y-93041452D01*
X44201009Y-93051840D01*
X44179928Y-93058236D01*
X44151860Y-93061000D01*
X42338140Y-93061000D01*
X42310072Y-93058236D01*
X42288991Y-93051840D01*
X42269555Y-93041452D01*
X42252524Y-93027476D01*
X42238548Y-93010445D01*
X42228160Y-92991009D01*
X42221764Y-92969928D01*
X42219000Y-92941860D01*
X42219000Y-92478140D01*
X42221764Y-92450072D01*
X42228160Y-92428991D01*
X42238548Y-92409555D01*
X42252524Y-92392524D01*
X42269555Y-92378548D01*
X42288991Y-92368160D01*
X42310072Y-92361764D01*
X42338140Y-92359000D01*
X44151860Y-92359000D01*
X44179928Y-92361764D01*
G37*
G36*
X65769928Y-92361764D02*
G01*
X65791009Y-92368160D01*
X65810445Y-92378548D01*
X65827476Y-92392524D01*
X65841452Y-92409555D01*
X65851840Y-92428991D01*
X65858236Y-92450072D01*
X65861000Y-92478140D01*
X65861000Y-92941860D01*
X65858236Y-92969928D01*
X65851840Y-92991009D01*
X65841452Y-93010445D01*
X65827476Y-93027476D01*
X65810445Y-93041452D01*
X65791009Y-93051840D01*
X65769928Y-93058236D01*
X65741860Y-93061000D01*
X63928140Y-93061000D01*
X63900072Y-93058236D01*
X63878991Y-93051840D01*
X63859555Y-93041452D01*
X63842524Y-93027476D01*
X63828548Y-93010445D01*
X63818160Y-92991009D01*
X63811764Y-92969928D01*
X63809000Y-92941860D01*
X63809000Y-92478140D01*
X63811764Y-92450072D01*
X63818160Y-92428991D01*
X63828548Y-92409555D01*
X63842524Y-92392524D01*
X63859555Y-92378548D01*
X63878991Y-92368160D01*
X63900072Y-92361764D01*
X63928140Y-92359000D01*
X65741860Y-92359000D01*
X65769928Y-92361764D01*
G37*
G36*
X86089928Y-92361764D02*
G01*
X86111009Y-92368160D01*
X86130445Y-92378548D01*
X86147476Y-92392524D01*
X86161452Y-92409555D01*
X86171840Y-92428991D01*
X86178236Y-92450072D01*
X86181000Y-92478140D01*
X86181000Y-92941860D01*
X86178236Y-92969928D01*
X86171840Y-92991009D01*
X86161452Y-93010445D01*
X86147476Y-93027476D01*
X86130445Y-93041452D01*
X86111009Y-93051840D01*
X86089928Y-93058236D01*
X86061860Y-93061000D01*
X84248140Y-93061000D01*
X84220072Y-93058236D01*
X84198991Y-93051840D01*
X84179555Y-93041452D01*
X84162524Y-93027476D01*
X84148548Y-93010445D01*
X84138160Y-92991009D01*
X84131764Y-92969928D01*
X84129000Y-92941860D01*
X84129000Y-92478140D01*
X84131764Y-92450072D01*
X84138160Y-92428991D01*
X84148548Y-92409555D01*
X84162524Y-92392524D01*
X84179555Y-92378548D01*
X84198991Y-92368160D01*
X84220072Y-92361764D01*
X84248140Y-92359000D01*
X86061860Y-92359000D01*
X86089928Y-92361764D01*
G37*
G36*
X75929928Y-91091764D02*
G01*
X75951009Y-91098160D01*
X75970445Y-91108548D01*
X75987476Y-91122524D01*
X76001452Y-91139555D01*
X76011840Y-91158991D01*
X76018236Y-91180072D01*
X76021000Y-91208140D01*
X76021000Y-91671860D01*
X76018236Y-91699928D01*
X76011840Y-91721009D01*
X76001452Y-91740445D01*
X75987476Y-91757476D01*
X75970445Y-91771452D01*
X75951009Y-91781840D01*
X75929928Y-91788236D01*
X75901860Y-91791000D01*
X74088140Y-91791000D01*
X74060072Y-91788236D01*
X74038991Y-91781840D01*
X74019555Y-91771452D01*
X74002524Y-91757476D01*
X73988548Y-91740445D01*
X73978160Y-91721009D01*
X73971764Y-91699928D01*
X73969000Y-91671860D01*
X73969000Y-91208140D01*
X73971764Y-91180072D01*
X73978160Y-91158991D01*
X73988548Y-91139555D01*
X74002524Y-91122524D01*
X74019555Y-91108548D01*
X74038991Y-91098160D01*
X74060072Y-91091764D01*
X74088140Y-91089000D01*
X75901860Y-91089000D01*
X75929928Y-91091764D01*
G37*
G36*
X91039928Y-91091764D02*
G01*
X91061009Y-91098160D01*
X91080445Y-91108548D01*
X91097476Y-91122524D01*
X91111452Y-91139555D01*
X91121840Y-91158991D01*
X91128236Y-91180072D01*
X91131000Y-91208140D01*
X91131000Y-91671860D01*
X91128236Y-91699928D01*
X91121840Y-91721009D01*
X91111452Y-91740445D01*
X91097476Y-91757476D01*
X91080445Y-91771452D01*
X91061009Y-91781840D01*
X91039928Y-91788236D01*
X91011860Y-91791000D01*
X89198140Y-91791000D01*
X89170072Y-91788236D01*
X89148991Y-91781840D01*
X89129555Y-91771452D01*
X89112524Y-91757476D01*
X89098548Y-91740445D01*
X89088160Y-91721009D01*
X89081764Y-91699928D01*
X89079000Y-91671860D01*
X89079000Y-91208140D01*
X89081764Y-91180072D01*
X89088160Y-91158991D01*
X89098548Y-91139555D01*
X89112524Y-91122524D01*
X89129555Y-91108548D01*
X89148991Y-91098160D01*
X89170072Y-91091764D01*
X89198140Y-91089000D01*
X91011860Y-91089000D01*
X91039928Y-91091764D01*
G37*
G36*
X86089928Y-91091764D02*
G01*
X86111009Y-91098160D01*
X86130445Y-91108548D01*
X86147476Y-91122524D01*
X86161452Y-91139555D01*
X86171840Y-91158991D01*
X86178236Y-91180072D01*
X86181000Y-91208140D01*
X86181000Y-91671860D01*
X86178236Y-91699928D01*
X86171840Y-91721009D01*
X86161452Y-91740445D01*
X86147476Y-91757476D01*
X86130445Y-91771452D01*
X86111009Y-91781840D01*
X86089928Y-91788236D01*
X86061860Y-91791000D01*
X84248140Y-91791000D01*
X84220072Y-91788236D01*
X84198991Y-91781840D01*
X84179555Y-91771452D01*
X84162524Y-91757476D01*
X84148548Y-91740445D01*
X84138160Y-91721009D01*
X84131764Y-91699928D01*
X84129000Y-91671860D01*
X84129000Y-91208140D01*
X84131764Y-91180072D01*
X84138160Y-91158991D01*
X84148548Y-91139555D01*
X84162524Y-91122524D01*
X84179555Y-91108548D01*
X84198991Y-91098160D01*
X84220072Y-91091764D01*
X84248140Y-91089000D01*
X86061860Y-91089000D01*
X86089928Y-91091764D01*
G37*
G36*
X80879928Y-91091764D02*
G01*
X80901009Y-91098160D01*
X80920445Y-91108548D01*
X80937476Y-91122524D01*
X80951452Y-91139555D01*
X80961840Y-91158991D01*
X80968236Y-91180072D01*
X80971000Y-91208140D01*
X80971000Y-91671860D01*
X80968236Y-91699928D01*
X80961840Y-91721009D01*
X80951452Y-91740445D01*
X80937476Y-91757476D01*
X80920445Y-91771452D01*
X80901009Y-91781840D01*
X80879928Y-91788236D01*
X80851860Y-91791000D01*
X79038140Y-91791000D01*
X79010072Y-91788236D01*
X78988991Y-91781840D01*
X78969555Y-91771452D01*
X78952524Y-91757476D01*
X78938548Y-91740445D01*
X78928160Y-91721009D01*
X78921764Y-91699928D01*
X78919000Y-91671860D01*
X78919000Y-91208140D01*
X78921764Y-91180072D01*
X78928160Y-91158991D01*
X78938548Y-91139555D01*
X78952524Y-91122524D01*
X78969555Y-91108548D01*
X78988991Y-91098160D01*
X79010072Y-91091764D01*
X79038140Y-91089000D01*
X80851860Y-91089000D01*
X80879928Y-91091764D01*
G37*
G36*
X44179928Y-91091764D02*
G01*
X44201009Y-91098160D01*
X44220445Y-91108548D01*
X44237476Y-91122524D01*
X44251452Y-91139555D01*
X44261840Y-91158991D01*
X44268236Y-91180072D01*
X44271000Y-91208140D01*
X44271000Y-91671860D01*
X44268236Y-91699928D01*
X44261840Y-91721009D01*
X44251452Y-91740445D01*
X44237476Y-91757476D01*
X44220445Y-91771452D01*
X44201009Y-91781840D01*
X44179928Y-91788236D01*
X44151860Y-91791000D01*
X42338140Y-91791000D01*
X42310072Y-91788236D01*
X42288991Y-91781840D01*
X42269555Y-91771452D01*
X42252524Y-91757476D01*
X42238548Y-91740445D01*
X42228160Y-91721009D01*
X42221764Y-91699928D01*
X42219000Y-91671860D01*
X42219000Y-91208140D01*
X42221764Y-91180072D01*
X42228160Y-91158991D01*
X42238548Y-91139555D01*
X42252524Y-91122524D01*
X42269555Y-91108548D01*
X42288991Y-91098160D01*
X42310072Y-91091764D01*
X42338140Y-91089000D01*
X44151860Y-91089000D01*
X44179928Y-91091764D01*
G37*
G36*
X70719928Y-91091764D02*
G01*
X70741009Y-91098160D01*
X70760445Y-91108548D01*
X70777476Y-91122524D01*
X70791452Y-91139555D01*
X70801840Y-91158991D01*
X70808236Y-91180072D01*
X70811000Y-91208140D01*
X70811000Y-91671860D01*
X70808236Y-91699928D01*
X70801840Y-91721009D01*
X70791452Y-91740445D01*
X70777476Y-91757476D01*
X70760445Y-91771452D01*
X70741009Y-91781840D01*
X70719928Y-91788236D01*
X70691860Y-91791000D01*
X68878140Y-91791000D01*
X68850072Y-91788236D01*
X68828991Y-91781840D01*
X68809555Y-91771452D01*
X68792524Y-91757476D01*
X68778548Y-91740445D01*
X68768160Y-91721009D01*
X68761764Y-91699928D01*
X68759000Y-91671860D01*
X68759000Y-91208140D01*
X68761764Y-91180072D01*
X68768160Y-91158991D01*
X68778548Y-91139555D01*
X68792524Y-91122524D01*
X68809555Y-91108548D01*
X68828991Y-91098160D01*
X68850072Y-91091764D01*
X68878140Y-91089000D01*
X70691860Y-91089000D01*
X70719928Y-91091764D01*
G37*
G36*
X65769928Y-91091764D02*
G01*
X65791009Y-91098160D01*
X65810445Y-91108548D01*
X65827476Y-91122524D01*
X65841452Y-91139555D01*
X65851840Y-91158991D01*
X65858236Y-91180072D01*
X65861000Y-91208140D01*
X65861000Y-91671860D01*
X65858236Y-91699928D01*
X65851840Y-91721009D01*
X65841452Y-91740445D01*
X65827476Y-91757476D01*
X65810445Y-91771452D01*
X65791009Y-91781840D01*
X65769928Y-91788236D01*
X65741860Y-91791000D01*
X63928140Y-91791000D01*
X63900072Y-91788236D01*
X63878991Y-91781840D01*
X63859555Y-91771452D01*
X63842524Y-91757476D01*
X63828548Y-91740445D01*
X63818160Y-91721009D01*
X63811764Y-91699928D01*
X63809000Y-91671860D01*
X63809000Y-91208140D01*
X63811764Y-91180072D01*
X63818160Y-91158991D01*
X63828548Y-91139555D01*
X63842524Y-91122524D01*
X63859555Y-91108548D01*
X63878991Y-91098160D01*
X63900072Y-91091764D01*
X63928140Y-91089000D01*
X65741860Y-91089000D01*
X65769928Y-91091764D01*
G37*
G36*
X60559928Y-91091764D02*
G01*
X60581009Y-91098160D01*
X60600445Y-91108548D01*
X60617476Y-91122524D01*
X60631452Y-91139555D01*
X60641840Y-91158991D01*
X60648236Y-91180072D01*
X60651000Y-91208140D01*
X60651000Y-91671860D01*
X60648236Y-91699928D01*
X60641840Y-91721009D01*
X60631452Y-91740445D01*
X60617476Y-91757476D01*
X60600445Y-91771452D01*
X60581009Y-91781840D01*
X60559928Y-91788236D01*
X60531860Y-91791000D01*
X58718140Y-91791000D01*
X58690072Y-91788236D01*
X58668991Y-91781840D01*
X58649555Y-91771452D01*
X58632524Y-91757476D01*
X58618548Y-91740445D01*
X58608160Y-91721009D01*
X58601764Y-91699928D01*
X58599000Y-91671860D01*
X58599000Y-91208140D01*
X58601764Y-91180072D01*
X58608160Y-91158991D01*
X58618548Y-91139555D01*
X58632524Y-91122524D01*
X58649555Y-91108548D01*
X58668991Y-91098160D01*
X58690072Y-91091764D01*
X58718140Y-91089000D01*
X60531860Y-91089000D01*
X60559928Y-91091764D01*
G37*
G36*
X55609928Y-91091764D02*
G01*
X55631009Y-91098160D01*
X55650445Y-91108548D01*
X55667476Y-91122524D01*
X55681452Y-91139555D01*
X55691840Y-91158991D01*
X55698236Y-91180072D01*
X55701000Y-91208140D01*
X55701000Y-91671860D01*
X55698236Y-91699928D01*
X55691840Y-91721009D01*
X55681452Y-91740445D01*
X55667476Y-91757476D01*
X55650445Y-91771452D01*
X55631009Y-91781840D01*
X55609928Y-91788236D01*
X55581860Y-91791000D01*
X53768140Y-91791000D01*
X53740072Y-91788236D01*
X53718991Y-91781840D01*
X53699555Y-91771452D01*
X53682524Y-91757476D01*
X53668548Y-91740445D01*
X53658160Y-91721009D01*
X53651764Y-91699928D01*
X53649000Y-91671860D01*
X53649000Y-91208140D01*
X53651764Y-91180072D01*
X53658160Y-91158991D01*
X53668548Y-91139555D01*
X53682524Y-91122524D01*
X53699555Y-91108548D01*
X53718991Y-91098160D01*
X53740072Y-91091764D01*
X53768140Y-91089000D01*
X55581860Y-91089000D01*
X55609928Y-91091764D01*
G37*
G36*
X49129928Y-91091764D02*
G01*
X49151009Y-91098160D01*
X49170445Y-91108548D01*
X49187476Y-91122524D01*
X49201452Y-91139555D01*
X49211840Y-91158991D01*
X49218236Y-91180072D01*
X49221000Y-91208140D01*
X49221000Y-91671860D01*
X49218236Y-91699928D01*
X49211840Y-91721009D01*
X49201452Y-91740445D01*
X49187476Y-91757476D01*
X49170445Y-91771452D01*
X49151009Y-91781840D01*
X49129928Y-91788236D01*
X49101860Y-91791000D01*
X47288140Y-91791000D01*
X47260072Y-91788236D01*
X47238991Y-91781840D01*
X47219555Y-91771452D01*
X47202524Y-91757476D01*
X47188548Y-91740445D01*
X47178160Y-91721009D01*
X47171764Y-91699928D01*
X47169000Y-91671860D01*
X47169000Y-91208140D01*
X47171764Y-91180072D01*
X47178160Y-91158991D01*
X47188548Y-91139555D01*
X47202524Y-91122524D01*
X47219555Y-91108548D01*
X47238991Y-91098160D01*
X47260072Y-91091764D01*
X47288140Y-91089000D01*
X49101860Y-91089000D01*
X49129928Y-91091764D01*
G37*
G36*
X86089928Y-89821764D02*
G01*
X86111009Y-89828160D01*
X86130445Y-89838548D01*
X86147476Y-89852524D01*
X86161452Y-89869555D01*
X86171840Y-89888991D01*
X86178236Y-89910072D01*
X86181000Y-89938140D01*
X86181000Y-90401860D01*
X86178236Y-90429928D01*
X86171840Y-90451009D01*
X86161452Y-90470445D01*
X86147476Y-90487476D01*
X86130445Y-90501452D01*
X86111009Y-90511840D01*
X86089928Y-90518236D01*
X86061860Y-90521000D01*
X84248140Y-90521000D01*
X84220072Y-90518236D01*
X84198991Y-90511840D01*
X84179555Y-90501452D01*
X84162524Y-90487476D01*
X84148548Y-90470445D01*
X84138160Y-90451009D01*
X84131764Y-90429928D01*
X84129000Y-90401860D01*
X84129000Y-89938140D01*
X84131764Y-89910072D01*
X84138160Y-89888991D01*
X84148548Y-89869555D01*
X84162524Y-89852524D01*
X84179555Y-89838548D01*
X84198991Y-89828160D01*
X84220072Y-89821764D01*
X84248140Y-89819000D01*
X86061860Y-89819000D01*
X86089928Y-89821764D01*
G37*
G36*
X75929928Y-89821764D02*
G01*
X75951009Y-89828160D01*
X75970445Y-89838548D01*
X75987476Y-89852524D01*
X76001452Y-89869555D01*
X76011840Y-89888991D01*
X76018236Y-89910072D01*
X76021000Y-89938140D01*
X76021000Y-90401860D01*
X76018236Y-90429928D01*
X76011840Y-90451009D01*
X76001452Y-90470445D01*
X75987476Y-90487476D01*
X75970445Y-90501452D01*
X75951009Y-90511840D01*
X75929928Y-90518236D01*
X75901860Y-90521000D01*
X74088140Y-90521000D01*
X74060072Y-90518236D01*
X74038991Y-90511840D01*
X74019555Y-90501452D01*
X74002524Y-90487476D01*
X73988548Y-90470445D01*
X73978160Y-90451009D01*
X73971764Y-90429928D01*
X73969000Y-90401860D01*
X73969000Y-89938140D01*
X73971764Y-89910072D01*
X73978160Y-89888991D01*
X73988548Y-89869555D01*
X74002524Y-89852524D01*
X74019555Y-89838548D01*
X74038991Y-89828160D01*
X74060072Y-89821764D01*
X74088140Y-89819000D01*
X75901860Y-89819000D01*
X75929928Y-89821764D01*
G37*
G36*
X60559928Y-89821764D02*
G01*
X60581009Y-89828160D01*
X60600445Y-89838548D01*
X60617476Y-89852524D01*
X60631452Y-89869555D01*
X60641840Y-89888991D01*
X60648236Y-89910072D01*
X60651000Y-89938140D01*
X60651000Y-90401860D01*
X60648236Y-90429928D01*
X60641840Y-90451009D01*
X60631452Y-90470445D01*
X60617476Y-90487476D01*
X60600445Y-90501452D01*
X60581009Y-90511840D01*
X60559928Y-90518236D01*
X60531860Y-90521000D01*
X58718140Y-90521000D01*
X58690072Y-90518236D01*
X58668991Y-90511840D01*
X58649555Y-90501452D01*
X58632524Y-90487476D01*
X58618548Y-90470445D01*
X58608160Y-90451009D01*
X58601764Y-90429928D01*
X58599000Y-90401860D01*
X58599000Y-89938140D01*
X58601764Y-89910072D01*
X58608160Y-89888991D01*
X58618548Y-89869555D01*
X58632524Y-89852524D01*
X58649555Y-89838548D01*
X58668991Y-89828160D01*
X58690072Y-89821764D01*
X58718140Y-89819000D01*
X60531860Y-89819000D01*
X60559928Y-89821764D01*
G37*
G36*
X55609928Y-89821764D02*
G01*
X55631009Y-89828160D01*
X55650445Y-89838548D01*
X55667476Y-89852524D01*
X55681452Y-89869555D01*
X55691840Y-89888991D01*
X55698236Y-89910072D01*
X55701000Y-89938140D01*
X55701000Y-90401860D01*
X55698236Y-90429928D01*
X55691840Y-90451009D01*
X55681452Y-90470445D01*
X55667476Y-90487476D01*
X55650445Y-90501452D01*
X55631009Y-90511840D01*
X55609928Y-90518236D01*
X55581860Y-90521000D01*
X53768140Y-90521000D01*
X53740072Y-90518236D01*
X53718991Y-90511840D01*
X53699555Y-90501452D01*
X53682524Y-90487476D01*
X53668548Y-90470445D01*
X53658160Y-90451009D01*
X53651764Y-90429928D01*
X53649000Y-90401860D01*
X53649000Y-89938140D01*
X53651764Y-89910072D01*
X53658160Y-89888991D01*
X53668548Y-89869555D01*
X53682524Y-89852524D01*
X53699555Y-89838548D01*
X53718991Y-89828160D01*
X53740072Y-89821764D01*
X53768140Y-89819000D01*
X55581860Y-89819000D01*
X55609928Y-89821764D01*
G37*
G36*
X49129928Y-89821764D02*
G01*
X49151009Y-89828160D01*
X49170445Y-89838548D01*
X49187476Y-89852524D01*
X49201452Y-89869555D01*
X49211840Y-89888991D01*
X49218236Y-89910072D01*
X49221000Y-89938140D01*
X49221000Y-90401860D01*
X49218236Y-90429928D01*
X49211840Y-90451009D01*
X49201452Y-90470445D01*
X49187476Y-90487476D01*
X49170445Y-90501452D01*
X49151009Y-90511840D01*
X49129928Y-90518236D01*
X49101860Y-90521000D01*
X47288140Y-90521000D01*
X47260072Y-90518236D01*
X47238991Y-90511840D01*
X47219555Y-90501452D01*
X47202524Y-90487476D01*
X47188548Y-90470445D01*
X47178160Y-90451009D01*
X47171764Y-90429928D01*
X47169000Y-90401860D01*
X47169000Y-89938140D01*
X47171764Y-89910072D01*
X47178160Y-89888991D01*
X47188548Y-89869555D01*
X47202524Y-89852524D01*
X47219555Y-89838548D01*
X47238991Y-89828160D01*
X47260072Y-89821764D01*
X47288140Y-89819000D01*
X49101860Y-89819000D01*
X49129928Y-89821764D01*
G37*
G36*
X44179928Y-89821764D02*
G01*
X44201009Y-89828160D01*
X44220445Y-89838548D01*
X44237476Y-89852524D01*
X44251452Y-89869555D01*
X44261840Y-89888991D01*
X44268236Y-89910072D01*
X44271000Y-89938140D01*
X44271000Y-90401860D01*
X44268236Y-90429928D01*
X44261840Y-90451009D01*
X44251452Y-90470445D01*
X44237476Y-90487476D01*
X44220445Y-90501452D01*
X44201009Y-90511840D01*
X44179928Y-90518236D01*
X44151860Y-90521000D01*
X42338140Y-90521000D01*
X42310072Y-90518236D01*
X42288991Y-90511840D01*
X42269555Y-90501452D01*
X42252524Y-90487476D01*
X42238548Y-90470445D01*
X42228160Y-90451009D01*
X42221764Y-90429928D01*
X42219000Y-90401860D01*
X42219000Y-89938140D01*
X42221764Y-89910072D01*
X42228160Y-89888991D01*
X42238548Y-89869555D01*
X42252524Y-89852524D01*
X42269555Y-89838548D01*
X42288991Y-89828160D01*
X42310072Y-89821764D01*
X42338140Y-89819000D01*
X44151860Y-89819000D01*
X44179928Y-89821764D01*
G37*
G36*
X65769928Y-89821764D02*
G01*
X65791009Y-89828160D01*
X65810445Y-89838548D01*
X65827476Y-89852524D01*
X65841452Y-89869555D01*
X65851840Y-89888991D01*
X65858236Y-89910072D01*
X65861000Y-89938140D01*
X65861000Y-90401860D01*
X65858236Y-90429928D01*
X65851840Y-90451009D01*
X65841452Y-90470445D01*
X65827476Y-90487476D01*
X65810445Y-90501452D01*
X65791009Y-90511840D01*
X65769928Y-90518236D01*
X65741860Y-90521000D01*
X63928140Y-90521000D01*
X63900072Y-90518236D01*
X63878991Y-90511840D01*
X63859555Y-90501452D01*
X63842524Y-90487476D01*
X63828548Y-90470445D01*
X63818160Y-90451009D01*
X63811764Y-90429928D01*
X63809000Y-90401860D01*
X63809000Y-89938140D01*
X63811764Y-89910072D01*
X63818160Y-89888991D01*
X63828548Y-89869555D01*
X63842524Y-89852524D01*
X63859555Y-89838548D01*
X63878991Y-89828160D01*
X63900072Y-89821764D01*
X63928140Y-89819000D01*
X65741860Y-89819000D01*
X65769928Y-89821764D01*
G37*
G36*
X91039928Y-89821764D02*
G01*
X91061009Y-89828160D01*
X91080445Y-89838548D01*
X91097476Y-89852524D01*
X91111452Y-89869555D01*
X91121840Y-89888991D01*
X91128236Y-89910072D01*
X91131000Y-89938140D01*
X91131000Y-90401860D01*
X91128236Y-90429928D01*
X91121840Y-90451009D01*
X91111452Y-90470445D01*
X91097476Y-90487476D01*
X91080445Y-90501452D01*
X91061009Y-90511840D01*
X91039928Y-90518236D01*
X91011860Y-90521000D01*
X89198140Y-90521000D01*
X89170072Y-90518236D01*
X89148991Y-90511840D01*
X89129555Y-90501452D01*
X89112524Y-90487476D01*
X89098548Y-90470445D01*
X89088160Y-90451009D01*
X89081764Y-90429928D01*
X89079000Y-90401860D01*
X89079000Y-89938140D01*
X89081764Y-89910072D01*
X89088160Y-89888991D01*
X89098548Y-89869555D01*
X89112524Y-89852524D01*
X89129555Y-89838548D01*
X89148991Y-89828160D01*
X89170072Y-89821764D01*
X89198140Y-89819000D01*
X91011860Y-89819000D01*
X91039928Y-89821764D01*
G37*
G36*
X70719928Y-89821764D02*
G01*
X70741009Y-89828160D01*
X70760445Y-89838548D01*
X70777476Y-89852524D01*
X70791452Y-89869555D01*
X70801840Y-89888991D01*
X70808236Y-89910072D01*
X70811000Y-89938140D01*
X70811000Y-90401860D01*
X70808236Y-90429928D01*
X70801840Y-90451009D01*
X70791452Y-90470445D01*
X70777476Y-90487476D01*
X70760445Y-90501452D01*
X70741009Y-90511840D01*
X70719928Y-90518236D01*
X70691860Y-90521000D01*
X68878140Y-90521000D01*
X68850072Y-90518236D01*
X68828991Y-90511840D01*
X68809555Y-90501452D01*
X68792524Y-90487476D01*
X68778548Y-90470445D01*
X68768160Y-90451009D01*
X68761764Y-90429928D01*
X68759000Y-90401860D01*
X68759000Y-89938140D01*
X68761764Y-89910072D01*
X68768160Y-89888991D01*
X68778548Y-89869555D01*
X68792524Y-89852524D01*
X68809555Y-89838548D01*
X68828991Y-89828160D01*
X68850072Y-89821764D01*
X68878140Y-89819000D01*
X70691860Y-89819000D01*
X70719928Y-89821764D01*
G37*
G36*
X80879928Y-89821764D02*
G01*
X80901009Y-89828160D01*
X80920445Y-89838548D01*
X80937476Y-89852524D01*
X80951452Y-89869555D01*
X80961840Y-89888991D01*
X80968236Y-89910072D01*
X80971000Y-89938140D01*
X80971000Y-90401860D01*
X80968236Y-90429928D01*
X80961840Y-90451009D01*
X80951452Y-90470445D01*
X80937476Y-90487476D01*
X80920445Y-90501452D01*
X80901009Y-90511840D01*
X80879928Y-90518236D01*
X80851860Y-90521000D01*
X79038140Y-90521000D01*
X79010072Y-90518236D01*
X78988991Y-90511840D01*
X78969555Y-90501452D01*
X78952524Y-90487476D01*
X78938548Y-90470445D01*
X78928160Y-90451009D01*
X78921764Y-90429928D01*
X78919000Y-90401860D01*
X78919000Y-89938140D01*
X78921764Y-89910072D01*
X78928160Y-89888991D01*
X78938548Y-89869555D01*
X78952524Y-89852524D01*
X78969555Y-89838548D01*
X78988991Y-89828160D01*
X79010072Y-89821764D01*
X79038140Y-89819000D01*
X80851860Y-89819000D01*
X80879928Y-89821764D01*
G37*
G36*
X116154468Y-88971065D02*
G01*
X116193138Y-88982796D01*
X116228777Y-89001846D01*
X116260017Y-89027483D01*
X116285654Y-89058723D01*
X116304704Y-89094362D01*
X116316435Y-89133032D01*
X116321000Y-89179388D01*
X116321000Y-89830612D01*
X116316435Y-89876968D01*
X116304704Y-89915638D01*
X116285654Y-89951277D01*
X116260017Y-89982517D01*
X116228777Y-90008154D01*
X116193138Y-90027204D01*
X116154468Y-90038935D01*
X116108112Y-90043500D01*
X115031888Y-90043500D01*
X114985532Y-90038935D01*
X114946862Y-90027204D01*
X114911223Y-90008154D01*
X114879983Y-89982517D01*
X114854346Y-89951277D01*
X114835296Y-89915638D01*
X114823565Y-89876968D01*
X114819000Y-89830612D01*
X114819000Y-89179388D01*
X114823565Y-89133032D01*
X114835296Y-89094362D01*
X114854346Y-89058723D01*
X114879983Y-89027483D01*
X114911223Y-89001846D01*
X114946862Y-88982796D01*
X114985532Y-88971065D01*
X115031888Y-88966500D01*
X116108112Y-88966500D01*
X116154468Y-88971065D01*
G37*
G36*
X107601000Y-89451000D02*
G01*
X104989000Y-89451000D01*
X104989000Y-88349000D01*
X107601000Y-88349000D01*
X107601000Y-89451000D01*
G37*
G36*
X100914468Y-88366065D02*
G01*
X100953138Y-88377796D01*
X100988777Y-88396846D01*
X101020017Y-88422483D01*
X101045654Y-88453723D01*
X101064704Y-88489362D01*
X101076435Y-88528032D01*
X101081000Y-88574388D01*
X101081000Y-89225612D01*
X101076435Y-89271968D01*
X101064704Y-89310638D01*
X101045654Y-89346277D01*
X101020017Y-89377517D01*
X100988777Y-89403154D01*
X100953138Y-89422204D01*
X100914468Y-89433935D01*
X100868112Y-89438500D01*
X99791888Y-89438500D01*
X99745532Y-89433935D01*
X99706862Y-89422204D01*
X99671223Y-89403154D01*
X99639983Y-89377517D01*
X99614346Y-89346277D01*
X99595296Y-89310638D01*
X99583565Y-89271968D01*
X99579000Y-89225612D01*
X99579000Y-88574388D01*
X99583565Y-88528032D01*
X99595296Y-88489362D01*
X99614346Y-88453723D01*
X99639983Y-88422483D01*
X99671223Y-88396846D01*
X99706862Y-88377796D01*
X99745532Y-88366065D01*
X99791888Y-88361500D01*
X100868112Y-88361500D01*
X100914468Y-88366065D01*
G37*
G36*
X136549999Y-85269737D02*
G01*
X136559608Y-85272652D01*
X136568472Y-85277390D01*
X136576237Y-85283763D01*
X136582610Y-85291528D01*
X136587348Y-85300392D01*
X136590263Y-85310001D01*
X136591852Y-85326140D01*
X136591852Y-89313860D01*
X136590263Y-89329999D01*
X136587348Y-89339608D01*
X136582610Y-89348472D01*
X136576237Y-89356237D01*
X136568472Y-89362610D01*
X136559608Y-89367348D01*
X136549999Y-89370263D01*
X136533860Y-89371852D01*
X133546140Y-89371852D01*
X133530001Y-89370263D01*
X133520392Y-89367348D01*
X133511528Y-89362610D01*
X133503763Y-89356237D01*
X133497390Y-89348472D01*
X133492652Y-89339608D01*
X133489737Y-89329999D01*
X133488148Y-89313860D01*
X133488148Y-85326140D01*
X133489737Y-85310001D01*
X133492652Y-85300392D01*
X133497390Y-85291528D01*
X133503763Y-85283763D01*
X133511528Y-85277390D01*
X133520392Y-85272652D01*
X133530001Y-85269737D01*
X133546140Y-85268148D01*
X136533860Y-85268148D01*
X136549999Y-85269737D01*
G37*
G36*
X125549999Y-85269737D02*
G01*
X125559608Y-85272652D01*
X125568472Y-85277390D01*
X125576237Y-85283763D01*
X125582610Y-85291528D01*
X125587348Y-85300392D01*
X125590263Y-85310001D01*
X125591852Y-85326140D01*
X125591852Y-89313860D01*
X125590263Y-89329999D01*
X125587348Y-89339608D01*
X125582610Y-89348472D01*
X125576237Y-89356237D01*
X125568472Y-89362610D01*
X125559608Y-89367348D01*
X125549999Y-89370263D01*
X125533860Y-89371852D01*
X122546140Y-89371852D01*
X122530001Y-89370263D01*
X122520392Y-89367348D01*
X122511528Y-89362610D01*
X122503763Y-89356237D01*
X122497390Y-89348472D01*
X122492652Y-89339608D01*
X122489737Y-89329999D01*
X122488148Y-89313860D01*
X122488148Y-85326140D01*
X122489737Y-85310001D01*
X122492652Y-85300392D01*
X122497390Y-85291528D01*
X122503763Y-85283763D01*
X122511528Y-85277390D01*
X122520392Y-85272652D01*
X122530001Y-85269737D01*
X122546140Y-85268148D01*
X125533860Y-85268148D01*
X125549999Y-85269737D01*
G37*
G36*
X60559928Y-88551764D02*
G01*
X60581009Y-88558160D01*
X60600445Y-88568548D01*
X60617476Y-88582524D01*
X60631452Y-88599555D01*
X60641840Y-88618991D01*
X60648236Y-88640072D01*
X60651000Y-88668140D01*
X60651000Y-89131860D01*
X60648236Y-89159928D01*
X60641840Y-89181009D01*
X60631452Y-89200445D01*
X60617476Y-89217476D01*
X60600445Y-89231452D01*
X60581009Y-89241840D01*
X60559928Y-89248236D01*
X60531860Y-89251000D01*
X58718140Y-89251000D01*
X58690072Y-89248236D01*
X58668991Y-89241840D01*
X58649555Y-89231452D01*
X58632524Y-89217476D01*
X58618548Y-89200445D01*
X58608160Y-89181009D01*
X58601764Y-89159928D01*
X58599000Y-89131860D01*
X58599000Y-88668140D01*
X58601764Y-88640072D01*
X58608160Y-88618991D01*
X58618548Y-88599555D01*
X58632524Y-88582524D01*
X58649555Y-88568548D01*
X58668991Y-88558160D01*
X58690072Y-88551764D01*
X58718140Y-88549000D01*
X60531860Y-88549000D01*
X60559928Y-88551764D01*
G37*
G36*
X91039928Y-88551764D02*
G01*
X91061009Y-88558160D01*
X91080445Y-88568548D01*
X91097476Y-88582524D01*
X91111452Y-88599555D01*
X91121840Y-88618991D01*
X91128236Y-88640072D01*
X91131000Y-88668140D01*
X91131000Y-89131860D01*
X91128236Y-89159928D01*
X91121840Y-89181009D01*
X91111452Y-89200445D01*
X91097476Y-89217476D01*
X91080445Y-89231452D01*
X91061009Y-89241840D01*
X91039928Y-89248236D01*
X91011860Y-89251000D01*
X89198140Y-89251000D01*
X89170072Y-89248236D01*
X89148991Y-89241840D01*
X89129555Y-89231452D01*
X89112524Y-89217476D01*
X89098548Y-89200445D01*
X89088160Y-89181009D01*
X89081764Y-89159928D01*
X89079000Y-89131860D01*
X89079000Y-88668140D01*
X89081764Y-88640072D01*
X89088160Y-88618991D01*
X89098548Y-88599555D01*
X89112524Y-88582524D01*
X89129555Y-88568548D01*
X89148991Y-88558160D01*
X89170072Y-88551764D01*
X89198140Y-88549000D01*
X91011860Y-88549000D01*
X91039928Y-88551764D01*
G37*
G36*
X86089928Y-88551764D02*
G01*
X86111009Y-88558160D01*
X86130445Y-88568548D01*
X86147476Y-88582524D01*
X86161452Y-88599555D01*
X86171840Y-88618991D01*
X86178236Y-88640072D01*
X86181000Y-88668140D01*
X86181000Y-89131860D01*
X86178236Y-89159928D01*
X86171840Y-89181009D01*
X86161452Y-89200445D01*
X86147476Y-89217476D01*
X86130445Y-89231452D01*
X86111009Y-89241840D01*
X86089928Y-89248236D01*
X86061860Y-89251000D01*
X84248140Y-89251000D01*
X84220072Y-89248236D01*
X84198991Y-89241840D01*
X84179555Y-89231452D01*
X84162524Y-89217476D01*
X84148548Y-89200445D01*
X84138160Y-89181009D01*
X84131764Y-89159928D01*
X84129000Y-89131860D01*
X84129000Y-88668140D01*
X84131764Y-88640072D01*
X84138160Y-88618991D01*
X84148548Y-88599555D01*
X84162524Y-88582524D01*
X84179555Y-88568548D01*
X84198991Y-88558160D01*
X84220072Y-88551764D01*
X84248140Y-88549000D01*
X86061860Y-88549000D01*
X86089928Y-88551764D01*
G37*
G36*
X80879928Y-88551764D02*
G01*
X80901009Y-88558160D01*
X80920445Y-88568548D01*
X80937476Y-88582524D01*
X80951452Y-88599555D01*
X80961840Y-88618991D01*
X80968236Y-88640072D01*
X80971000Y-88668140D01*
X80971000Y-89131860D01*
X80968236Y-89159928D01*
X80961840Y-89181009D01*
X80951452Y-89200445D01*
X80937476Y-89217476D01*
X80920445Y-89231452D01*
X80901009Y-89241840D01*
X80879928Y-89248236D01*
X80851860Y-89251000D01*
X79038140Y-89251000D01*
X79010072Y-89248236D01*
X78988991Y-89241840D01*
X78969555Y-89231452D01*
X78952524Y-89217476D01*
X78938548Y-89200445D01*
X78928160Y-89181009D01*
X78921764Y-89159928D01*
X78919000Y-89131860D01*
X78919000Y-88668140D01*
X78921764Y-88640072D01*
X78928160Y-88618991D01*
X78938548Y-88599555D01*
X78952524Y-88582524D01*
X78969555Y-88568548D01*
X78988991Y-88558160D01*
X79010072Y-88551764D01*
X79038140Y-88549000D01*
X80851860Y-88549000D01*
X80879928Y-88551764D01*
G37*
G36*
X44179928Y-88551764D02*
G01*
X44201009Y-88558160D01*
X44220445Y-88568548D01*
X44237476Y-88582524D01*
X44251452Y-88599555D01*
X44261840Y-88618991D01*
X44268236Y-88640072D01*
X44271000Y-88668140D01*
X44271000Y-89131860D01*
X44268236Y-89159928D01*
X44261840Y-89181009D01*
X44251452Y-89200445D01*
X44237476Y-89217476D01*
X44220445Y-89231452D01*
X44201009Y-89241840D01*
X44179928Y-89248236D01*
X44151860Y-89251000D01*
X42338140Y-89251000D01*
X42310072Y-89248236D01*
X42288991Y-89241840D01*
X42269555Y-89231452D01*
X42252524Y-89217476D01*
X42238548Y-89200445D01*
X42228160Y-89181009D01*
X42221764Y-89159928D01*
X42219000Y-89131860D01*
X42219000Y-88668140D01*
X42221764Y-88640072D01*
X42228160Y-88618991D01*
X42238548Y-88599555D01*
X42252524Y-88582524D01*
X42269555Y-88568548D01*
X42288991Y-88558160D01*
X42310072Y-88551764D01*
X42338140Y-88549000D01*
X44151860Y-88549000D01*
X44179928Y-88551764D01*
G37*
G36*
X55609928Y-88551764D02*
G01*
X55631009Y-88558160D01*
X55650445Y-88568548D01*
X55667476Y-88582524D01*
X55681452Y-88599555D01*
X55691840Y-88618991D01*
X55698236Y-88640072D01*
X55701000Y-88668140D01*
X55701000Y-89131860D01*
X55698236Y-89159928D01*
X55691840Y-89181009D01*
X55681452Y-89200445D01*
X55667476Y-89217476D01*
X55650445Y-89231452D01*
X55631009Y-89241840D01*
X55609928Y-89248236D01*
X55581860Y-89251000D01*
X53768140Y-89251000D01*
X53740072Y-89248236D01*
X53718991Y-89241840D01*
X53699555Y-89231452D01*
X53682524Y-89217476D01*
X53668548Y-89200445D01*
X53658160Y-89181009D01*
X53651764Y-89159928D01*
X53649000Y-89131860D01*
X53649000Y-88668140D01*
X53651764Y-88640072D01*
X53658160Y-88618991D01*
X53668548Y-88599555D01*
X53682524Y-88582524D01*
X53699555Y-88568548D01*
X53718991Y-88558160D01*
X53740072Y-88551764D01*
X53768140Y-88549000D01*
X55581860Y-88549000D01*
X55609928Y-88551764D01*
G37*
G36*
X65769928Y-88551764D02*
G01*
X65791009Y-88558160D01*
X65810445Y-88568548D01*
X65827476Y-88582524D01*
X65841452Y-88599555D01*
X65851840Y-88618991D01*
X65858236Y-88640072D01*
X65861000Y-88668140D01*
X65861000Y-89131860D01*
X65858236Y-89159928D01*
X65851840Y-89181009D01*
X65841452Y-89200445D01*
X65827476Y-89217476D01*
X65810445Y-89231452D01*
X65791009Y-89241840D01*
X65769928Y-89248236D01*
X65741860Y-89251000D01*
X63928140Y-89251000D01*
X63900072Y-89248236D01*
X63878991Y-89241840D01*
X63859555Y-89231452D01*
X63842524Y-89217476D01*
X63828548Y-89200445D01*
X63818160Y-89181009D01*
X63811764Y-89159928D01*
X63809000Y-89131860D01*
X63809000Y-88668140D01*
X63811764Y-88640072D01*
X63818160Y-88618991D01*
X63828548Y-88599555D01*
X63842524Y-88582524D01*
X63859555Y-88568548D01*
X63878991Y-88558160D01*
X63900072Y-88551764D01*
X63928140Y-88549000D01*
X65741860Y-88549000D01*
X65769928Y-88551764D01*
G37*
G36*
X49129928Y-88551764D02*
G01*
X49151009Y-88558160D01*
X49170445Y-88568548D01*
X49187476Y-88582524D01*
X49201452Y-88599555D01*
X49211840Y-88618991D01*
X49218236Y-88640072D01*
X49221000Y-88668140D01*
X49221000Y-89131860D01*
X49218236Y-89159928D01*
X49211840Y-89181009D01*
X49201452Y-89200445D01*
X49187476Y-89217476D01*
X49170445Y-89231452D01*
X49151009Y-89241840D01*
X49129928Y-89248236D01*
X49101860Y-89251000D01*
X47288140Y-89251000D01*
X47260072Y-89248236D01*
X47238991Y-89241840D01*
X47219555Y-89231452D01*
X47202524Y-89217476D01*
X47188548Y-89200445D01*
X47178160Y-89181009D01*
X47171764Y-89159928D01*
X47169000Y-89131860D01*
X47169000Y-88668140D01*
X47171764Y-88640072D01*
X47178160Y-88618991D01*
X47188548Y-88599555D01*
X47202524Y-88582524D01*
X47219555Y-88568548D01*
X47238991Y-88558160D01*
X47260072Y-88551764D01*
X47288140Y-88549000D01*
X49101860Y-88549000D01*
X49129928Y-88551764D01*
G37*
G36*
X70719928Y-88551764D02*
G01*
X70741009Y-88558160D01*
X70760445Y-88568548D01*
X70777476Y-88582524D01*
X70791452Y-88599555D01*
X70801840Y-88618991D01*
X70808236Y-88640072D01*
X70811000Y-88668140D01*
X70811000Y-89131860D01*
X70808236Y-89159928D01*
X70801840Y-89181009D01*
X70791452Y-89200445D01*
X70777476Y-89217476D01*
X70760445Y-89231452D01*
X70741009Y-89241840D01*
X70719928Y-89248236D01*
X70691860Y-89251000D01*
X68878140Y-89251000D01*
X68850072Y-89248236D01*
X68828991Y-89241840D01*
X68809555Y-89231452D01*
X68792524Y-89217476D01*
X68778548Y-89200445D01*
X68768160Y-89181009D01*
X68761764Y-89159928D01*
X68759000Y-89131860D01*
X68759000Y-88668140D01*
X68761764Y-88640072D01*
X68768160Y-88618991D01*
X68778548Y-88599555D01*
X68792524Y-88582524D01*
X68809555Y-88568548D01*
X68828991Y-88558160D01*
X68850072Y-88551764D01*
X68878140Y-88549000D01*
X70691860Y-88549000D01*
X70719928Y-88551764D01*
G37*
G36*
X75929928Y-88551764D02*
G01*
X75951009Y-88558160D01*
X75970445Y-88568548D01*
X75987476Y-88582524D01*
X76001452Y-88599555D01*
X76011840Y-88618991D01*
X76018236Y-88640072D01*
X76021000Y-88668140D01*
X76021000Y-89131860D01*
X76018236Y-89159928D01*
X76011840Y-89181009D01*
X76001452Y-89200445D01*
X75987476Y-89217476D01*
X75970445Y-89231452D01*
X75951009Y-89241840D01*
X75929928Y-89248236D01*
X75901860Y-89251000D01*
X74088140Y-89251000D01*
X74060072Y-89248236D01*
X74038991Y-89241840D01*
X74019555Y-89231452D01*
X74002524Y-89217476D01*
X73988548Y-89200445D01*
X73978160Y-89181009D01*
X73971764Y-89159928D01*
X73969000Y-89131860D01*
X73969000Y-88668140D01*
X73971764Y-88640072D01*
X73978160Y-88618991D01*
X73988548Y-88599555D01*
X74002524Y-88582524D01*
X74019555Y-88568548D01*
X74038991Y-88558160D01*
X74060072Y-88551764D01*
X74088140Y-88549000D01*
X75901860Y-88549000D01*
X75929928Y-88551764D01*
G37*
G36*
X116154468Y-87096065D02*
G01*
X116193138Y-87107796D01*
X116228777Y-87126846D01*
X116260017Y-87152483D01*
X116285654Y-87183723D01*
X116304704Y-87219362D01*
X116316435Y-87258032D01*
X116321000Y-87304388D01*
X116321000Y-87955612D01*
X116316435Y-88001968D01*
X116304704Y-88040638D01*
X116285654Y-88076277D01*
X116260017Y-88107517D01*
X116228777Y-88133154D01*
X116193138Y-88152204D01*
X116154468Y-88163935D01*
X116108112Y-88168500D01*
X115031888Y-88168500D01*
X114985532Y-88163935D01*
X114946862Y-88152204D01*
X114911223Y-88133154D01*
X114879983Y-88107517D01*
X114854346Y-88076277D01*
X114835296Y-88040638D01*
X114823565Y-88001968D01*
X114819000Y-87955612D01*
X114819000Y-87304388D01*
X114823565Y-87258032D01*
X114835296Y-87219362D01*
X114854346Y-87183723D01*
X114879983Y-87152483D01*
X114911223Y-87126846D01*
X114946862Y-87107796D01*
X114985532Y-87096065D01*
X115031888Y-87091500D01*
X116108112Y-87091500D01*
X116154468Y-87096065D01*
G37*
G36*
X91039928Y-87281764D02*
G01*
X91061009Y-87288160D01*
X91080445Y-87298548D01*
X91097476Y-87312524D01*
X91111452Y-87329555D01*
X91121840Y-87348991D01*
X91128236Y-87370072D01*
X91131000Y-87398140D01*
X91131000Y-87861860D01*
X91128236Y-87889928D01*
X91121840Y-87911009D01*
X91111452Y-87930445D01*
X91097476Y-87947476D01*
X91080445Y-87961452D01*
X91061009Y-87971840D01*
X91039928Y-87978236D01*
X91011860Y-87981000D01*
X89198140Y-87981000D01*
X89170072Y-87978236D01*
X89148991Y-87971840D01*
X89129555Y-87961452D01*
X89112524Y-87947476D01*
X89098548Y-87930445D01*
X89088160Y-87911009D01*
X89081764Y-87889928D01*
X89079000Y-87861860D01*
X89079000Y-87398140D01*
X89081764Y-87370072D01*
X89088160Y-87348991D01*
X89098548Y-87329555D01*
X89112524Y-87312524D01*
X89129555Y-87298548D01*
X89148991Y-87288160D01*
X89170072Y-87281764D01*
X89198140Y-87279000D01*
X91011860Y-87279000D01*
X91039928Y-87281764D01*
G37*
G36*
X44179928Y-87281764D02*
G01*
X44201009Y-87288160D01*
X44220445Y-87298548D01*
X44237476Y-87312524D01*
X44251452Y-87329555D01*
X44261840Y-87348991D01*
X44268236Y-87370072D01*
X44271000Y-87398140D01*
X44271000Y-87861860D01*
X44268236Y-87889928D01*
X44261840Y-87911009D01*
X44251452Y-87930445D01*
X44237476Y-87947476D01*
X44220445Y-87961452D01*
X44201009Y-87971840D01*
X44179928Y-87978236D01*
X44151860Y-87981000D01*
X42338140Y-87981000D01*
X42310072Y-87978236D01*
X42288991Y-87971840D01*
X42269555Y-87961452D01*
X42252524Y-87947476D01*
X42238548Y-87930445D01*
X42228160Y-87911009D01*
X42221764Y-87889928D01*
X42219000Y-87861860D01*
X42219000Y-87398140D01*
X42221764Y-87370072D01*
X42228160Y-87348991D01*
X42238548Y-87329555D01*
X42252524Y-87312524D01*
X42269555Y-87298548D01*
X42288991Y-87288160D01*
X42310072Y-87281764D01*
X42338140Y-87279000D01*
X44151860Y-87279000D01*
X44179928Y-87281764D01*
G37*
G36*
X49129928Y-87281764D02*
G01*
X49151009Y-87288160D01*
X49170445Y-87298548D01*
X49187476Y-87312524D01*
X49201452Y-87329555D01*
X49211840Y-87348991D01*
X49218236Y-87370072D01*
X49221000Y-87398140D01*
X49221000Y-87861860D01*
X49218236Y-87889928D01*
X49211840Y-87911009D01*
X49201452Y-87930445D01*
X49187476Y-87947476D01*
X49170445Y-87961452D01*
X49151009Y-87971840D01*
X49129928Y-87978236D01*
X49101860Y-87981000D01*
X47288140Y-87981000D01*
X47260072Y-87978236D01*
X47238991Y-87971840D01*
X47219555Y-87961452D01*
X47202524Y-87947476D01*
X47188548Y-87930445D01*
X47178160Y-87911009D01*
X47171764Y-87889928D01*
X47169000Y-87861860D01*
X47169000Y-87398140D01*
X47171764Y-87370072D01*
X47178160Y-87348991D01*
X47188548Y-87329555D01*
X47202524Y-87312524D01*
X47219555Y-87298548D01*
X47238991Y-87288160D01*
X47260072Y-87281764D01*
X47288140Y-87279000D01*
X49101860Y-87279000D01*
X49129928Y-87281764D01*
G37*
G36*
X55609928Y-87281764D02*
G01*
X55631009Y-87288160D01*
X55650445Y-87298548D01*
X55667476Y-87312524D01*
X55681452Y-87329555D01*
X55691840Y-87348991D01*
X55698236Y-87370072D01*
X55701000Y-87398140D01*
X55701000Y-87861860D01*
X55698236Y-87889928D01*
X55691840Y-87911009D01*
X55681452Y-87930445D01*
X55667476Y-87947476D01*
X55650445Y-87961452D01*
X55631009Y-87971840D01*
X55609928Y-87978236D01*
X55581860Y-87981000D01*
X53768140Y-87981000D01*
X53740072Y-87978236D01*
X53718991Y-87971840D01*
X53699555Y-87961452D01*
X53682524Y-87947476D01*
X53668548Y-87930445D01*
X53658160Y-87911009D01*
X53651764Y-87889928D01*
X53649000Y-87861860D01*
X53649000Y-87398140D01*
X53651764Y-87370072D01*
X53658160Y-87348991D01*
X53668548Y-87329555D01*
X53682524Y-87312524D01*
X53699555Y-87298548D01*
X53718991Y-87288160D01*
X53740072Y-87281764D01*
X53768140Y-87279000D01*
X55581860Y-87279000D01*
X55609928Y-87281764D01*
G37*
G36*
X60559928Y-87281764D02*
G01*
X60581009Y-87288160D01*
X60600445Y-87298548D01*
X60617476Y-87312524D01*
X60631452Y-87329555D01*
X60641840Y-87348991D01*
X60648236Y-87370072D01*
X60651000Y-87398140D01*
X60651000Y-87861860D01*
X60648236Y-87889928D01*
X60641840Y-87911009D01*
X60631452Y-87930445D01*
X60617476Y-87947476D01*
X60600445Y-87961452D01*
X60581009Y-87971840D01*
X60559928Y-87978236D01*
X60531860Y-87981000D01*
X58718140Y-87981000D01*
X58690072Y-87978236D01*
X58668991Y-87971840D01*
X58649555Y-87961452D01*
X58632524Y-87947476D01*
X58618548Y-87930445D01*
X58608160Y-87911009D01*
X58601764Y-87889928D01*
X58599000Y-87861860D01*
X58599000Y-87398140D01*
X58601764Y-87370072D01*
X58608160Y-87348991D01*
X58618548Y-87329555D01*
X58632524Y-87312524D01*
X58649555Y-87298548D01*
X58668991Y-87288160D01*
X58690072Y-87281764D01*
X58718140Y-87279000D01*
X60531860Y-87279000D01*
X60559928Y-87281764D01*
G37*
G36*
X65769928Y-87281764D02*
G01*
X65791009Y-87288160D01*
X65810445Y-87298548D01*
X65827476Y-87312524D01*
X65841452Y-87329555D01*
X65851840Y-87348991D01*
X65858236Y-87370072D01*
X65861000Y-87398140D01*
X65861000Y-87861860D01*
X65858236Y-87889928D01*
X65851840Y-87911009D01*
X65841452Y-87930445D01*
X65827476Y-87947476D01*
X65810445Y-87961452D01*
X65791009Y-87971840D01*
X65769928Y-87978236D01*
X65741860Y-87981000D01*
X63928140Y-87981000D01*
X63900072Y-87978236D01*
X63878991Y-87971840D01*
X63859555Y-87961452D01*
X63842524Y-87947476D01*
X63828548Y-87930445D01*
X63818160Y-87911009D01*
X63811764Y-87889928D01*
X63809000Y-87861860D01*
X63809000Y-87398140D01*
X63811764Y-87370072D01*
X63818160Y-87348991D01*
X63828548Y-87329555D01*
X63842524Y-87312524D01*
X63859555Y-87298548D01*
X63878991Y-87288160D01*
X63900072Y-87281764D01*
X63928140Y-87279000D01*
X65741860Y-87279000D01*
X65769928Y-87281764D01*
G37*
G36*
X86089928Y-87281764D02*
G01*
X86111009Y-87288160D01*
X86130445Y-87298548D01*
X86147476Y-87312524D01*
X86161452Y-87329555D01*
X86171840Y-87348991D01*
X86178236Y-87370072D01*
X86181000Y-87398140D01*
X86181000Y-87861860D01*
X86178236Y-87889928D01*
X86171840Y-87911009D01*
X86161452Y-87930445D01*
X86147476Y-87947476D01*
X86130445Y-87961452D01*
X86111009Y-87971840D01*
X86089928Y-87978236D01*
X86061860Y-87981000D01*
X84248140Y-87981000D01*
X84220072Y-87978236D01*
X84198991Y-87971840D01*
X84179555Y-87961452D01*
X84162524Y-87947476D01*
X84148548Y-87930445D01*
X84138160Y-87911009D01*
X84131764Y-87889928D01*
X84129000Y-87861860D01*
X84129000Y-87398140D01*
X84131764Y-87370072D01*
X84138160Y-87348991D01*
X84148548Y-87329555D01*
X84162524Y-87312524D01*
X84179555Y-87298548D01*
X84198991Y-87288160D01*
X84220072Y-87281764D01*
X84248140Y-87279000D01*
X86061860Y-87279000D01*
X86089928Y-87281764D01*
G37*
G36*
X70719928Y-87281764D02*
G01*
X70741009Y-87288160D01*
X70760445Y-87298548D01*
X70777476Y-87312524D01*
X70791452Y-87329555D01*
X70801840Y-87348991D01*
X70808236Y-87370072D01*
X70811000Y-87398140D01*
X70811000Y-87861860D01*
X70808236Y-87889928D01*
X70801840Y-87911009D01*
X70791452Y-87930445D01*
X70777476Y-87947476D01*
X70760445Y-87961452D01*
X70741009Y-87971840D01*
X70719928Y-87978236D01*
X70691860Y-87981000D01*
X68878140Y-87981000D01*
X68850072Y-87978236D01*
X68828991Y-87971840D01*
X68809555Y-87961452D01*
X68792524Y-87947476D01*
X68778548Y-87930445D01*
X68768160Y-87911009D01*
X68761764Y-87889928D01*
X68759000Y-87861860D01*
X68759000Y-87398140D01*
X68761764Y-87370072D01*
X68768160Y-87348991D01*
X68778548Y-87329555D01*
X68792524Y-87312524D01*
X68809555Y-87298548D01*
X68828991Y-87288160D01*
X68850072Y-87281764D01*
X68878140Y-87279000D01*
X70691860Y-87279000D01*
X70719928Y-87281764D01*
G37*
G36*
X75929928Y-87281764D02*
G01*
X75951009Y-87288160D01*
X75970445Y-87298548D01*
X75987476Y-87312524D01*
X76001452Y-87329555D01*
X76011840Y-87348991D01*
X76018236Y-87370072D01*
X76021000Y-87398140D01*
X76021000Y-87861860D01*
X76018236Y-87889928D01*
X76011840Y-87911009D01*
X76001452Y-87930445D01*
X75987476Y-87947476D01*
X75970445Y-87961452D01*
X75951009Y-87971840D01*
X75929928Y-87978236D01*
X75901860Y-87981000D01*
X74088140Y-87981000D01*
X74060072Y-87978236D01*
X74038991Y-87971840D01*
X74019555Y-87961452D01*
X74002524Y-87947476D01*
X73988548Y-87930445D01*
X73978160Y-87911009D01*
X73971764Y-87889928D01*
X73969000Y-87861860D01*
X73969000Y-87398140D01*
X73971764Y-87370072D01*
X73978160Y-87348991D01*
X73988548Y-87329555D01*
X74002524Y-87312524D01*
X74019555Y-87298548D01*
X74038991Y-87288160D01*
X74060072Y-87281764D01*
X74088140Y-87279000D01*
X75901860Y-87279000D01*
X75929928Y-87281764D01*
G37*
G36*
X80879928Y-87281764D02*
G01*
X80901009Y-87288160D01*
X80920445Y-87298548D01*
X80937476Y-87312524D01*
X80951452Y-87329555D01*
X80961840Y-87348991D01*
X80968236Y-87370072D01*
X80971000Y-87398140D01*
X80971000Y-87861860D01*
X80968236Y-87889928D01*
X80961840Y-87911009D01*
X80951452Y-87930445D01*
X80937476Y-87947476D01*
X80920445Y-87961452D01*
X80901009Y-87971840D01*
X80879928Y-87978236D01*
X80851860Y-87981000D01*
X79038140Y-87981000D01*
X79010072Y-87978236D01*
X78988991Y-87971840D01*
X78969555Y-87961452D01*
X78952524Y-87947476D01*
X78938548Y-87930445D01*
X78928160Y-87911009D01*
X78921764Y-87889928D01*
X78919000Y-87861860D01*
X78919000Y-87398140D01*
X78921764Y-87370072D01*
X78928160Y-87348991D01*
X78938548Y-87329555D01*
X78952524Y-87312524D01*
X78969555Y-87298548D01*
X78988991Y-87288160D01*
X79010072Y-87281764D01*
X79038140Y-87279000D01*
X80851860Y-87279000D01*
X80879928Y-87281764D01*
G37*
G36*
X100914468Y-86491065D02*
G01*
X100953138Y-86502796D01*
X100988777Y-86521846D01*
X101020017Y-86547483D01*
X101045654Y-86578723D01*
X101064704Y-86614362D01*
X101076435Y-86653032D01*
X101081000Y-86699388D01*
X101081000Y-87350612D01*
X101076435Y-87396968D01*
X101064704Y-87435638D01*
X101045654Y-87471277D01*
X101020017Y-87502517D01*
X100988777Y-87528154D01*
X100953138Y-87547204D01*
X100914468Y-87558935D01*
X100868112Y-87563500D01*
X99791888Y-87563500D01*
X99745532Y-87558935D01*
X99706862Y-87547204D01*
X99671223Y-87528154D01*
X99639983Y-87502517D01*
X99614346Y-87471277D01*
X99595296Y-87435638D01*
X99583565Y-87396968D01*
X99579000Y-87350612D01*
X99579000Y-86699388D01*
X99583565Y-86653032D01*
X99595296Y-86614362D01*
X99614346Y-86578723D01*
X99639983Y-86547483D01*
X99671223Y-86521846D01*
X99706862Y-86502796D01*
X99745532Y-86491065D01*
X99791888Y-86486500D01*
X100868112Y-86486500D01*
X100914468Y-86491065D01*
G37*
G36*
X110911000Y-86911000D02*
G01*
X108299000Y-86911000D01*
X108299000Y-85809000D01*
X110911000Y-85809000D01*
X110911000Y-86911000D01*
G37*
G36*
X75929928Y-86011764D02*
G01*
X75951009Y-86018160D01*
X75970445Y-86028548D01*
X75987476Y-86042524D01*
X76001452Y-86059555D01*
X76011840Y-86078991D01*
X76018236Y-86100072D01*
X76021000Y-86128140D01*
X76021000Y-86591860D01*
X76018236Y-86619928D01*
X76011840Y-86641009D01*
X76001452Y-86660445D01*
X75987476Y-86677476D01*
X75970445Y-86691452D01*
X75951009Y-86701840D01*
X75929928Y-86708236D01*
X75901860Y-86711000D01*
X74088140Y-86711000D01*
X74060072Y-86708236D01*
X74038991Y-86701840D01*
X74019555Y-86691452D01*
X74002524Y-86677476D01*
X73988548Y-86660445D01*
X73978160Y-86641009D01*
X73971764Y-86619928D01*
X73969000Y-86591860D01*
X73969000Y-86128140D01*
X73971764Y-86100072D01*
X73978160Y-86078991D01*
X73988548Y-86059555D01*
X74002524Y-86042524D01*
X74019555Y-86028548D01*
X74038991Y-86018160D01*
X74060072Y-86011764D01*
X74088140Y-86009000D01*
X75901860Y-86009000D01*
X75929928Y-86011764D01*
G37*
G36*
X80879928Y-86011764D02*
G01*
X80901009Y-86018160D01*
X80920445Y-86028548D01*
X80937476Y-86042524D01*
X80951452Y-86059555D01*
X80961840Y-86078991D01*
X80968236Y-86100072D01*
X80971000Y-86128140D01*
X80971000Y-86591860D01*
X80968236Y-86619928D01*
X80961840Y-86641009D01*
X80951452Y-86660445D01*
X80937476Y-86677476D01*
X80920445Y-86691452D01*
X80901009Y-86701840D01*
X80879928Y-86708236D01*
X80851860Y-86711000D01*
X79038140Y-86711000D01*
X79010072Y-86708236D01*
X78988991Y-86701840D01*
X78969555Y-86691452D01*
X78952524Y-86677476D01*
X78938548Y-86660445D01*
X78928160Y-86641009D01*
X78921764Y-86619928D01*
X78919000Y-86591860D01*
X78919000Y-86128140D01*
X78921764Y-86100072D01*
X78928160Y-86078991D01*
X78938548Y-86059555D01*
X78952524Y-86042524D01*
X78969555Y-86028548D01*
X78988991Y-86018160D01*
X79010072Y-86011764D01*
X79038140Y-86009000D01*
X80851860Y-86009000D01*
X80879928Y-86011764D01*
G37*
G36*
X86089928Y-86011764D02*
G01*
X86111009Y-86018160D01*
X86130445Y-86028548D01*
X86147476Y-86042524D01*
X86161452Y-86059555D01*
X86171840Y-86078991D01*
X86178236Y-86100072D01*
X86181000Y-86128140D01*
X86181000Y-86591860D01*
X86178236Y-86619928D01*
X86171840Y-86641009D01*
X86161452Y-86660445D01*
X86147476Y-86677476D01*
X86130445Y-86691452D01*
X86111009Y-86701840D01*
X86089928Y-86708236D01*
X86061860Y-86711000D01*
X84248140Y-86711000D01*
X84220072Y-86708236D01*
X84198991Y-86701840D01*
X84179555Y-86691452D01*
X84162524Y-86677476D01*
X84148548Y-86660445D01*
X84138160Y-86641009D01*
X84131764Y-86619928D01*
X84129000Y-86591860D01*
X84129000Y-86128140D01*
X84131764Y-86100072D01*
X84138160Y-86078991D01*
X84148548Y-86059555D01*
X84162524Y-86042524D01*
X84179555Y-86028548D01*
X84198991Y-86018160D01*
X84220072Y-86011764D01*
X84248140Y-86009000D01*
X86061860Y-86009000D01*
X86089928Y-86011764D01*
G37*
G36*
X91039928Y-86011764D02*
G01*
X91061009Y-86018160D01*
X91080445Y-86028548D01*
X91097476Y-86042524D01*
X91111452Y-86059555D01*
X91121840Y-86078991D01*
X91128236Y-86100072D01*
X91131000Y-86128140D01*
X91131000Y-86591860D01*
X91128236Y-86619928D01*
X91121840Y-86641009D01*
X91111452Y-86660445D01*
X91097476Y-86677476D01*
X91080445Y-86691452D01*
X91061009Y-86701840D01*
X91039928Y-86708236D01*
X91011860Y-86711000D01*
X89198140Y-86711000D01*
X89170072Y-86708236D01*
X89148991Y-86701840D01*
X89129555Y-86691452D01*
X89112524Y-86677476D01*
X89098548Y-86660445D01*
X89088160Y-86641009D01*
X89081764Y-86619928D01*
X89079000Y-86591860D01*
X89079000Y-86128140D01*
X89081764Y-86100072D01*
X89088160Y-86078991D01*
X89098548Y-86059555D01*
X89112524Y-86042524D01*
X89129555Y-86028548D01*
X89148991Y-86018160D01*
X89170072Y-86011764D01*
X89198140Y-86009000D01*
X91011860Y-86009000D01*
X91039928Y-86011764D01*
G37*
G36*
X70719928Y-86011764D02*
G01*
X70741009Y-86018160D01*
X70760445Y-86028548D01*
X70777476Y-86042524D01*
X70791452Y-86059555D01*
X70801840Y-86078991D01*
X70808236Y-86100072D01*
X70811000Y-86128140D01*
X70811000Y-86591860D01*
X70808236Y-86619928D01*
X70801840Y-86641009D01*
X70791452Y-86660445D01*
X70777476Y-86677476D01*
X70760445Y-86691452D01*
X70741009Y-86701840D01*
X70719928Y-86708236D01*
X70691860Y-86711000D01*
X68878140Y-86711000D01*
X68850072Y-86708236D01*
X68828991Y-86701840D01*
X68809555Y-86691452D01*
X68792524Y-86677476D01*
X68778548Y-86660445D01*
X68768160Y-86641009D01*
X68761764Y-86619928D01*
X68759000Y-86591860D01*
X68759000Y-86128140D01*
X68761764Y-86100072D01*
X68768160Y-86078991D01*
X68778548Y-86059555D01*
X68792524Y-86042524D01*
X68809555Y-86028548D01*
X68828991Y-86018160D01*
X68850072Y-86011764D01*
X68878140Y-86009000D01*
X70691860Y-86009000D01*
X70719928Y-86011764D01*
G37*
G36*
X44179928Y-86011764D02*
G01*
X44201009Y-86018160D01*
X44220445Y-86028548D01*
X44237476Y-86042524D01*
X44251452Y-86059555D01*
X44261840Y-86078991D01*
X44268236Y-86100072D01*
X44271000Y-86128140D01*
X44271000Y-86591860D01*
X44268236Y-86619928D01*
X44261840Y-86641009D01*
X44251452Y-86660445D01*
X44237476Y-86677476D01*
X44220445Y-86691452D01*
X44201009Y-86701840D01*
X44179928Y-86708236D01*
X44151860Y-86711000D01*
X42338140Y-86711000D01*
X42310072Y-86708236D01*
X42288991Y-86701840D01*
X42269555Y-86691452D01*
X42252524Y-86677476D01*
X42238548Y-86660445D01*
X42228160Y-86641009D01*
X42221764Y-86619928D01*
X42219000Y-86591860D01*
X42219000Y-86128140D01*
X42221764Y-86100072D01*
X42228160Y-86078991D01*
X42238548Y-86059555D01*
X42252524Y-86042524D01*
X42269555Y-86028548D01*
X42288991Y-86018160D01*
X42310072Y-86011764D01*
X42338140Y-86009000D01*
X44151860Y-86009000D01*
X44179928Y-86011764D01*
G37*
G36*
X49129928Y-86011764D02*
G01*
X49151009Y-86018160D01*
X49170445Y-86028548D01*
X49187476Y-86042524D01*
X49201452Y-86059555D01*
X49211840Y-86078991D01*
X49218236Y-86100072D01*
X49221000Y-86128140D01*
X49221000Y-86591860D01*
X49218236Y-86619928D01*
X49211840Y-86641009D01*
X49201452Y-86660445D01*
X49187476Y-86677476D01*
X49170445Y-86691452D01*
X49151009Y-86701840D01*
X49129928Y-86708236D01*
X49101860Y-86711000D01*
X47288140Y-86711000D01*
X47260072Y-86708236D01*
X47238991Y-86701840D01*
X47219555Y-86691452D01*
X47202524Y-86677476D01*
X47188548Y-86660445D01*
X47178160Y-86641009D01*
X47171764Y-86619928D01*
X47169000Y-86591860D01*
X47169000Y-86128140D01*
X47171764Y-86100072D01*
X47178160Y-86078991D01*
X47188548Y-86059555D01*
X47202524Y-86042524D01*
X47219555Y-86028548D01*
X47238991Y-86018160D01*
X47260072Y-86011764D01*
X47288140Y-86009000D01*
X49101860Y-86009000D01*
X49129928Y-86011764D01*
G37*
G36*
X55609928Y-86011764D02*
G01*
X55631009Y-86018160D01*
X55650445Y-86028548D01*
X55667476Y-86042524D01*
X55681452Y-86059555D01*
X55691840Y-86078991D01*
X55698236Y-86100072D01*
X55701000Y-86128140D01*
X55701000Y-86591860D01*
X55698236Y-86619928D01*
X55691840Y-86641009D01*
X55681452Y-86660445D01*
X55667476Y-86677476D01*
X55650445Y-86691452D01*
X55631009Y-86701840D01*
X55609928Y-86708236D01*
X55581860Y-86711000D01*
X53768140Y-86711000D01*
X53740072Y-86708236D01*
X53718991Y-86701840D01*
X53699555Y-86691452D01*
X53682524Y-86677476D01*
X53668548Y-86660445D01*
X53658160Y-86641009D01*
X53651764Y-86619928D01*
X53649000Y-86591860D01*
X53649000Y-86128140D01*
X53651764Y-86100072D01*
X53658160Y-86078991D01*
X53668548Y-86059555D01*
X53682524Y-86042524D01*
X53699555Y-86028548D01*
X53718991Y-86018160D01*
X53740072Y-86011764D01*
X53768140Y-86009000D01*
X55581860Y-86009000D01*
X55609928Y-86011764D01*
G37*
G36*
X65769928Y-86011764D02*
G01*
X65791009Y-86018160D01*
X65810445Y-86028548D01*
X65827476Y-86042524D01*
X65841452Y-86059555D01*
X65851840Y-86078991D01*
X65858236Y-86100072D01*
X65861000Y-86128140D01*
X65861000Y-86591860D01*
X65858236Y-86619928D01*
X65851840Y-86641009D01*
X65841452Y-86660445D01*
X65827476Y-86677476D01*
X65810445Y-86691452D01*
X65791009Y-86701840D01*
X65769928Y-86708236D01*
X65741860Y-86711000D01*
X63928140Y-86711000D01*
X63900072Y-86708236D01*
X63878991Y-86701840D01*
X63859555Y-86691452D01*
X63842524Y-86677476D01*
X63828548Y-86660445D01*
X63818160Y-86641009D01*
X63811764Y-86619928D01*
X63809000Y-86591860D01*
X63809000Y-86128140D01*
X63811764Y-86100072D01*
X63818160Y-86078991D01*
X63828548Y-86059555D01*
X63842524Y-86042524D01*
X63859555Y-86028548D01*
X63878991Y-86018160D01*
X63900072Y-86011764D01*
X63928140Y-86009000D01*
X65741860Y-86009000D01*
X65769928Y-86011764D01*
G37*
G36*
X60559928Y-86011764D02*
G01*
X60581009Y-86018160D01*
X60600445Y-86028548D01*
X60617476Y-86042524D01*
X60631452Y-86059555D01*
X60641840Y-86078991D01*
X60648236Y-86100072D01*
X60651000Y-86128140D01*
X60651000Y-86591860D01*
X60648236Y-86619928D01*
X60641840Y-86641009D01*
X60631452Y-86660445D01*
X60617476Y-86677476D01*
X60600445Y-86691452D01*
X60581009Y-86701840D01*
X60559928Y-86708236D01*
X60531860Y-86711000D01*
X58718140Y-86711000D01*
X58690072Y-86708236D01*
X58668991Y-86701840D01*
X58649555Y-86691452D01*
X58632524Y-86677476D01*
X58618548Y-86660445D01*
X58608160Y-86641009D01*
X58601764Y-86619928D01*
X58599000Y-86591860D01*
X58599000Y-86128140D01*
X58601764Y-86100072D01*
X58608160Y-86078991D01*
X58618548Y-86059555D01*
X58632524Y-86042524D01*
X58649555Y-86028548D01*
X58668991Y-86018160D01*
X58690072Y-86011764D01*
X58718140Y-86009000D01*
X60531860Y-86009000D01*
X60559928Y-86011764D01*
G37*
G36*
X49129928Y-84741764D02*
G01*
X49151009Y-84748160D01*
X49170445Y-84758548D01*
X49187476Y-84772524D01*
X49201452Y-84789555D01*
X49211840Y-84808991D01*
X49218236Y-84830072D01*
X49221000Y-84858140D01*
X49221000Y-85321860D01*
X49218236Y-85349928D01*
X49211840Y-85371009D01*
X49201452Y-85390445D01*
X49187476Y-85407476D01*
X49170445Y-85421452D01*
X49151009Y-85431840D01*
X49129928Y-85438236D01*
X49101860Y-85441000D01*
X47288140Y-85441000D01*
X47260072Y-85438236D01*
X47238991Y-85431840D01*
X47219555Y-85421452D01*
X47202524Y-85407476D01*
X47188548Y-85390445D01*
X47178160Y-85371009D01*
X47171764Y-85349928D01*
X47169000Y-85321860D01*
X47169000Y-84858140D01*
X47171764Y-84830072D01*
X47178160Y-84808991D01*
X47188548Y-84789555D01*
X47202524Y-84772524D01*
X47219555Y-84758548D01*
X47238991Y-84748160D01*
X47260072Y-84741764D01*
X47288140Y-84739000D01*
X49101860Y-84739000D01*
X49129928Y-84741764D01*
G37*
G36*
X75929928Y-84741764D02*
G01*
X75951009Y-84748160D01*
X75970445Y-84758548D01*
X75987476Y-84772524D01*
X76001452Y-84789555D01*
X76011840Y-84808991D01*
X76018236Y-84830072D01*
X76021000Y-84858140D01*
X76021000Y-85321860D01*
X76018236Y-85349928D01*
X76011840Y-85371009D01*
X76001452Y-85390445D01*
X75987476Y-85407476D01*
X75970445Y-85421452D01*
X75951009Y-85431840D01*
X75929928Y-85438236D01*
X75901860Y-85441000D01*
X74088140Y-85441000D01*
X74060072Y-85438236D01*
X74038991Y-85431840D01*
X74019555Y-85421452D01*
X74002524Y-85407476D01*
X73988548Y-85390445D01*
X73978160Y-85371009D01*
X73971764Y-85349928D01*
X73969000Y-85321860D01*
X73969000Y-84858140D01*
X73971764Y-84830072D01*
X73978160Y-84808991D01*
X73988548Y-84789555D01*
X74002524Y-84772524D01*
X74019555Y-84758548D01*
X74038991Y-84748160D01*
X74060072Y-84741764D01*
X74088140Y-84739000D01*
X75901860Y-84739000D01*
X75929928Y-84741764D01*
G37*
G36*
X80879928Y-84741764D02*
G01*
X80901009Y-84748160D01*
X80920445Y-84758548D01*
X80937476Y-84772524D01*
X80951452Y-84789555D01*
X80961840Y-84808991D01*
X80968236Y-84830072D01*
X80971000Y-84858140D01*
X80971000Y-85321860D01*
X80968236Y-85349928D01*
X80961840Y-85371009D01*
X80951452Y-85390445D01*
X80937476Y-85407476D01*
X80920445Y-85421452D01*
X80901009Y-85431840D01*
X80879928Y-85438236D01*
X80851860Y-85441000D01*
X79038140Y-85441000D01*
X79010072Y-85438236D01*
X78988991Y-85431840D01*
X78969555Y-85421452D01*
X78952524Y-85407476D01*
X78938548Y-85390445D01*
X78928160Y-85371009D01*
X78921764Y-85349928D01*
X78919000Y-85321860D01*
X78919000Y-84858140D01*
X78921764Y-84830072D01*
X78928160Y-84808991D01*
X78938548Y-84789555D01*
X78952524Y-84772524D01*
X78969555Y-84758548D01*
X78988991Y-84748160D01*
X79010072Y-84741764D01*
X79038140Y-84739000D01*
X80851860Y-84739000D01*
X80879928Y-84741764D01*
G37*
G36*
X65769928Y-84741764D02*
G01*
X65791009Y-84748160D01*
X65810445Y-84758548D01*
X65827476Y-84772524D01*
X65841452Y-84789555D01*
X65851840Y-84808991D01*
X65858236Y-84830072D01*
X65861000Y-84858140D01*
X65861000Y-85321860D01*
X65858236Y-85349928D01*
X65851840Y-85371009D01*
X65841452Y-85390445D01*
X65827476Y-85407476D01*
X65810445Y-85421452D01*
X65791009Y-85431840D01*
X65769928Y-85438236D01*
X65741860Y-85441000D01*
X63928140Y-85441000D01*
X63900072Y-85438236D01*
X63878991Y-85431840D01*
X63859555Y-85421452D01*
X63842524Y-85407476D01*
X63828548Y-85390445D01*
X63818160Y-85371009D01*
X63811764Y-85349928D01*
X63809000Y-85321860D01*
X63809000Y-84858140D01*
X63811764Y-84830072D01*
X63818160Y-84808991D01*
X63828548Y-84789555D01*
X63842524Y-84772524D01*
X63859555Y-84758548D01*
X63878991Y-84748160D01*
X63900072Y-84741764D01*
X63928140Y-84739000D01*
X65741860Y-84739000D01*
X65769928Y-84741764D01*
G37*
G36*
X91039928Y-84741764D02*
G01*
X91061009Y-84748160D01*
X91080445Y-84758548D01*
X91097476Y-84772524D01*
X91111452Y-84789555D01*
X91121840Y-84808991D01*
X91128236Y-84830072D01*
X91131000Y-84858140D01*
X91131000Y-85321860D01*
X91128236Y-85349928D01*
X91121840Y-85371009D01*
X91111452Y-85390445D01*
X91097476Y-85407476D01*
X91080445Y-85421452D01*
X91061009Y-85431840D01*
X91039928Y-85438236D01*
X91011860Y-85441000D01*
X89198140Y-85441000D01*
X89170072Y-85438236D01*
X89148991Y-85431840D01*
X89129555Y-85421452D01*
X89112524Y-85407476D01*
X89098548Y-85390445D01*
X89088160Y-85371009D01*
X89081764Y-85349928D01*
X89079000Y-85321860D01*
X89079000Y-84858140D01*
X89081764Y-84830072D01*
X89088160Y-84808991D01*
X89098548Y-84789555D01*
X89112524Y-84772524D01*
X89129555Y-84758548D01*
X89148991Y-84748160D01*
X89170072Y-84741764D01*
X89198140Y-84739000D01*
X91011860Y-84739000D01*
X91039928Y-84741764D01*
G37*
G36*
X86089928Y-84741764D02*
G01*
X86111009Y-84748160D01*
X86130445Y-84758548D01*
X86147476Y-84772524D01*
X86161452Y-84789555D01*
X86171840Y-84808991D01*
X86178236Y-84830072D01*
X86181000Y-84858140D01*
X86181000Y-85321860D01*
X86178236Y-85349928D01*
X86171840Y-85371009D01*
X86161452Y-85390445D01*
X86147476Y-85407476D01*
X86130445Y-85421452D01*
X86111009Y-85431840D01*
X86089928Y-85438236D01*
X86061860Y-85441000D01*
X84248140Y-85441000D01*
X84220072Y-85438236D01*
X84198991Y-85431840D01*
X84179555Y-85421452D01*
X84162524Y-85407476D01*
X84148548Y-85390445D01*
X84138160Y-85371009D01*
X84131764Y-85349928D01*
X84129000Y-85321860D01*
X84129000Y-84858140D01*
X84131764Y-84830072D01*
X84138160Y-84808991D01*
X84148548Y-84789555D01*
X84162524Y-84772524D01*
X84179555Y-84758548D01*
X84198991Y-84748160D01*
X84220072Y-84741764D01*
X84248140Y-84739000D01*
X86061860Y-84739000D01*
X86089928Y-84741764D01*
G37*
G36*
X70719928Y-84741764D02*
G01*
X70741009Y-84748160D01*
X70760445Y-84758548D01*
X70777476Y-84772524D01*
X70791452Y-84789555D01*
X70801840Y-84808991D01*
X70808236Y-84830072D01*
X70811000Y-84858140D01*
X70811000Y-85321860D01*
X70808236Y-85349928D01*
X70801840Y-85371009D01*
X70791452Y-85390445D01*
X70777476Y-85407476D01*
X70760445Y-85421452D01*
X70741009Y-85431840D01*
X70719928Y-85438236D01*
X70691860Y-85441000D01*
X68878140Y-85441000D01*
X68850072Y-85438236D01*
X68828991Y-85431840D01*
X68809555Y-85421452D01*
X68792524Y-85407476D01*
X68778548Y-85390445D01*
X68768160Y-85371009D01*
X68761764Y-85349928D01*
X68759000Y-85321860D01*
X68759000Y-84858140D01*
X68761764Y-84830072D01*
X68768160Y-84808991D01*
X68778548Y-84789555D01*
X68792524Y-84772524D01*
X68809555Y-84758548D01*
X68828991Y-84748160D01*
X68850072Y-84741764D01*
X68878140Y-84739000D01*
X70691860Y-84739000D01*
X70719928Y-84741764D01*
G37*
G36*
X60559928Y-84741764D02*
G01*
X60581009Y-84748160D01*
X60600445Y-84758548D01*
X60617476Y-84772524D01*
X60631452Y-84789555D01*
X60641840Y-84808991D01*
X60648236Y-84830072D01*
X60651000Y-84858140D01*
X60651000Y-85321860D01*
X60648236Y-85349928D01*
X60641840Y-85371009D01*
X60631452Y-85390445D01*
X60617476Y-85407476D01*
X60600445Y-85421452D01*
X60581009Y-85431840D01*
X60559928Y-85438236D01*
X60531860Y-85441000D01*
X58718140Y-85441000D01*
X58690072Y-85438236D01*
X58668991Y-85431840D01*
X58649555Y-85421452D01*
X58632524Y-85407476D01*
X58618548Y-85390445D01*
X58608160Y-85371009D01*
X58601764Y-85349928D01*
X58599000Y-85321860D01*
X58599000Y-84858140D01*
X58601764Y-84830072D01*
X58608160Y-84808991D01*
X58618548Y-84789555D01*
X58632524Y-84772524D01*
X58649555Y-84758548D01*
X58668991Y-84748160D01*
X58690072Y-84741764D01*
X58718140Y-84739000D01*
X60531860Y-84739000D01*
X60559928Y-84741764D01*
G37*
G36*
X55609928Y-84741764D02*
G01*
X55631009Y-84748160D01*
X55650445Y-84758548D01*
X55667476Y-84772524D01*
X55681452Y-84789555D01*
X55691840Y-84808991D01*
X55698236Y-84830072D01*
X55701000Y-84858140D01*
X55701000Y-85321860D01*
X55698236Y-85349928D01*
X55691840Y-85371009D01*
X55681452Y-85390445D01*
X55667476Y-85407476D01*
X55650445Y-85421452D01*
X55631009Y-85431840D01*
X55609928Y-85438236D01*
X55581860Y-85441000D01*
X53768140Y-85441000D01*
X53740072Y-85438236D01*
X53718991Y-85431840D01*
X53699555Y-85421452D01*
X53682524Y-85407476D01*
X53668548Y-85390445D01*
X53658160Y-85371009D01*
X53651764Y-85349928D01*
X53649000Y-85321860D01*
X53649000Y-84858140D01*
X53651764Y-84830072D01*
X53658160Y-84808991D01*
X53668548Y-84789555D01*
X53682524Y-84772524D01*
X53699555Y-84758548D01*
X53718991Y-84748160D01*
X53740072Y-84741764D01*
X53768140Y-84739000D01*
X55581860Y-84739000D01*
X55609928Y-84741764D01*
G37*
G36*
X44179928Y-84741764D02*
G01*
X44201009Y-84748160D01*
X44220445Y-84758548D01*
X44237476Y-84772524D01*
X44251452Y-84789555D01*
X44261840Y-84808991D01*
X44268236Y-84830072D01*
X44271000Y-84858140D01*
X44271000Y-85321860D01*
X44268236Y-85349928D01*
X44261840Y-85371009D01*
X44251452Y-85390445D01*
X44237476Y-85407476D01*
X44220445Y-85421452D01*
X44201009Y-85431840D01*
X44179928Y-85438236D01*
X44151860Y-85441000D01*
X42338140Y-85441000D01*
X42310072Y-85438236D01*
X42288991Y-85431840D01*
X42269555Y-85421452D01*
X42252524Y-85407476D01*
X42238548Y-85390445D01*
X42228160Y-85371009D01*
X42221764Y-85349928D01*
X42219000Y-85321860D01*
X42219000Y-84858140D01*
X42221764Y-84830072D01*
X42228160Y-84808991D01*
X42238548Y-84789555D01*
X42252524Y-84772524D01*
X42269555Y-84758548D01*
X42288991Y-84748160D01*
X42310072Y-84741764D01*
X42338140Y-84739000D01*
X44151860Y-84739000D01*
X44179928Y-84741764D01*
G37*
M02*
